SplineFontDB: 3.0
FontName: Gafata-Regular
FullName: Gafata
FamilyName: Gafata
Weight: Book
Copyright: Copyright (c) 2010-2012, Lautaro Hourcade (lautaro.uy@gmail.com), with Reserved Font Name 'Gafata'
Version: 4.002
ItalicAngle: 0
UnderlinePosition: -50
UnderlineWidth: 50
Ascent: 800
Descent: 200
sfntRevision: 0x00040083
LayerCount: 2
Layer: 0 1 "Back"  1
Layer: 1 1 "Fore"  0
XUID: [1021 802 1185290112 3792563]
FSType: 0
OS2Version: 3
OS2_WeightWidthSlopeOnly: 0
OS2_UseTypoMetrics: 1
CreationTime: 1291909980
ModificationTime: 1362175070
PfmFamily: 17
TTFWeight: 400
TTFWidth: 5
LineGap: 0
VLineGap: 0
Panose: 2 0 5 3 0 0 0 2 0 4
OS2TypoAscent: 921
OS2TypoAOffset: 0
OS2TypoDescent: -202
OS2TypoDOffset: 0
OS2TypoLinegap: 0
OS2WinAscent: 921
OS2WinAOffset: 0
OS2WinDescent: 202
OS2WinDOffset: 0
HheadAscent: 921
HheadAOffset: 0
HheadDescent: -202
HheadDOffset: 0
OS2SubXSize: 650
OS2SubYSize: 600
OS2SubXOff: 0
OS2SubYOff: 75
OS2SupXSize: 650
OS2SupYSize: 600
OS2SupXOff: 0
OS2SupYOff: 350
OS2StrikeYSize: 50
OS2StrikeYPos: 295
OS2Vendor: 'PYRS'
OS2CodePages: 20000001.00000000
OS2UnicodeRanges: 8000002f.4000004a.00000000.00000000
Lookup: 1 0 0 "'aalt' Access All Alternates lookup 0"  {"'aalt' Access All Alternates lookup 0 subtable"  } ['aalt' ('DFLT' <'dflt' > ) ]
Lookup: 1 0 0 "'ss01' Style Set 1 lookup 1"  {"'ss01' Style Set 1 lookup 1 subtable"  } ['ss01' ('DFLT' <'dflt' > ) ]
Lookup: 4 0 1 "'liga' Standard Ligatures lookup 2"  {"'liga' Standard Ligatures lookup 2 subtable"  } ['liga' ('DFLT' <'dflt' > ) ]
Lookup: 258 0 0 "'kern' Horizontal Kerning lookup 0"  {"'kern' Horizontal Kerning lookup 0 per glyph data 0"  "'kern' Horizontal Kerning lookup 0 kerning class 1"  } ['kern' ('DFLT' <'dflt' > ) ]
DEI: 91125
KernClass2: 76+ 66 "'kern' Horizontal Kerning lookup 0 kerning class 1" 
 5 space
 40 comma period quotesinglbase quotedblbase
 2 at
 10 exclamdown
 8 asterisk
 15 colon semicolon
 9 ampersand
 5 slash
 20 hyphen endash emdash
 20 quotedbl quotesingle
 9 backslash

StartChar: exclam
Encoding: 33 33 4
Width: 249
GlyphClass: 2
Flags: W
LayerCount: 2
Fore
SplineSet
147 146 m 1,0,-1
 102 146 l 1,1,-1
 92 380 l 1,2,-1
 87 671 l 1,3,-1
 162 671 l 1,4,-1
 157 380 l 1,5,-1
 147 146 l 1,0,-1
160 1 m 1,6,-1
 88 1 l 1,7,-1
 88 75 l 1,8,-1
 160 75 l 1,9,-1
 160 1 l 1,6,-1
EndSplineSet
EndChar

StartChar: quotedbl
Encoding: 34 34 5
Width: 330
GlyphClass: 2
Flags: W
LayerCount: 2
Fore
SplineSet
91 667 m 1,0,-1
 151 667 l 1,1,-1
 151 613 l 2,2,3
 151 569 151 569 150.5 551.5 c 128,-1,4
 150 534 150 534 138 513 c 128,-1,5
 126 492 126 492 118 485 c 128,-1,6
 110 478 110 478 73 447 c 1,7,-1
 47 470 l 1,8,9
 76 508 76 508 88 535 c 1,10,-1
 91 612 l 1,11,-1
 91 667 l 1,0,-1
213 667 m 1,12,-1
 274 667 l 1,13,-1
 273 613 l 1,14,15
 273 539 273 539 264 518 c 128,-1,16
 255 497 255 497 208 457 c 0,17,18
 200 451 200 451 196 447 c 1,19,-1
 169 470 l 1,20,21
 198 508 198 508 211 535 c 1,22,-1
 213 612 l 1,23,-1
 213 667 l 1,12,-1
EndSplineSet
EndChar

StartChar: numbersign
Encoding: 35 35 6
Width: 633
GlyphClass: 2
Flags: W
LayerCount: 2
Fore
SplineSet
332 -71 m 1,0,-1
 367 118 l 1,1,-1
 217 118 l 1,2,-1
 180 -84 l 1,3,-1
 119 -71 l 1,4,-1
 154 118 l 1,5,-1
 45 118 l 1,6,-1
 44 176 l 1,7,-1
 165 176 l 1,8,-1
 196 339 l 1,9,-1
 89 339 l 1,10,-1
 88 397 l 1,11,-1
 207 397 l 1,12,-1
 241 578 l 1,13,-1
 301 565 l 1,14,-1
 270 397 l 1,15,-1
 420 397 l 1,16,-1
 454 578 l 1,17,-1
 514 565 l 1,18,-1
 483 397 l 1,19,-1
 587 397 l 1,20,-1
 588 339 l 1,21,-1
 472 339 l 1,22,-1
 441 176 l 1,23,-1
 543 176 l 1,24,-1
 544 118 l 1,25,-1
 430 118 l 1,26,-1
 393 -84 l 1,27,-1
 332 -71 l 1,0,-1
259 339 m 1,28,-1
 228 176 l 1,29,-1
 378 176 l 1,30,-1
 409 339 l 1,31,-1
 259 339 l 1,28,-1
EndSplineSet
EndChar

StartChar: dollar
Encoding: 36 36 7
Width: 497
GlyphClass: 2
Flags: W
LayerCount: 2
Fore
SplineSet
229 -97 m 1,0,-1
 229 -7 l 1,1,-1
 226 -7 l 2,2,3
 140 -7 140 -7 50 22 c 1,4,-1
 66 75 l 1,5,6
 144 46 144 46 225 46 c 128,-1,7
 306 46 306 46 341.5 70 c 128,-1,8
 377 94 377 94 377 160 c 0,9,10
 377 204 377 204 344 228 c 0,11,12
 301 260 301 260 261 273 c 1,13,14
 201 300 201 300 175 312.5 c 128,-1,15
 149 325 149 325 116.5 347.5 c 128,-1,16
 84 370 84 370 72 393.5 c 128,-1,17
 60 417 60 417 59 449 c 1,18,19
 59 520 59 520 106.5 562.5 c 128,-1,20
 154 605 154 605 229 611 c 1,21,-1
 229 714 l 1,22,-1
 283 714 l 1,23,-1
 283 610 l 1,24,25
 348 605 348 605 419 582 c 1,26,-1
 406 534 l 1,27,28
 312 558 312 558 270 558 c 0,29,30
 190 558 190 558 158.5 536 c 128,-1,31
 127 514 127 514 127 457 c 0,32,33
 127 414 127 414 171 386 c 0,34,35
 202 366 202 366 280.5 333 c 128,-1,36
 359 300 359 300 388 280 c 0,37,38
 451 236 451 236 452 162 c 1,39,40
 452 15 452 15 283 -4 c 1,41,-1
 283 -97 l 1,42,-1
 229 -97 l 1,0,-1
EndSplineSet
EndChar

StartChar: percent
Encoding: 37 37 8
Width: 706
GlyphClass: 2
Flags: W
LayerCount: 2
Fore
SplineSet
196 -9 m 1,0,-1
 131 -9 l 1,1,-1
 505 696 l 1,2,-1
 569 696 l 1,3,-1
 196 -9 l 1,0,-1
173 647 m 128,-1,5
 124 647 124 647 111 628 c 128,-1,6
 98 609 98 609 98 543 c 128,-1,7
 98 477 98 477 112.5 451.5 c 128,-1,8
 127 426 127 426 175.5 426 c 128,-1,9
 224 426 224 426 236.5 446 c 128,-1,10
 249 466 249 466 249 531 c 128,-1,11
 249 596 249 596 235.5 621.5 c 128,-1,4
 222 647 222 647 173 647 c 128,-1,5
173 696 m 0,12,13
 253 696 253 696 277 662 c 128,-1,14
 301 628 301 628 301 545.5 c 128,-1,15
 301 463 301 463 268 420 c 128,-1,16
 235 377 235 377 166 377 c 128,-1,17
 97 377 97 377 71.5 412 c 128,-1,18
 46 447 46 447 46 528.5 c 128,-1,19
 46 610 46 610 80 653 c 128,-1,20
 114 696 114 696 173 696 c 0,12,13
533 259 m 128,-1,22
 484 259 484 259 471 240 c 128,-1,23
 458 221 458 221 458 155 c 128,-1,24
 458 89 458 89 472.5 63.5 c 128,-1,25
 487 38 487 38 535.5 38 c 128,-1,26
 584 38 584 38 596.5 58 c 128,-1,27
 609 78 609 78 609 143 c 128,-1,28
 609 208 609 208 595.5 233.5 c 128,-1,21
 582 259 582 259 533 259 c 128,-1,22
533 308 m 0,29,30
 613 308 613 308 637 274 c 128,-1,31
 661 240 661 240 661 157.5 c 128,-1,32
 661 75 661 75 628 32 c 128,-1,33
 595 -11 595 -11 526 -11 c 128,-1,34
 457 -11 457 -11 431.5 24 c 128,-1,35
 406 59 406 59 406 140.5 c 128,-1,36
 406 222 406 222 440 265 c 128,-1,37
 474 308 474 308 533 308 c 0,29,30
EndSplineSet
EndChar

StartChar: ampersand
Encoding: 38 38 9
Width: 600
GlyphClass: 2
Flags: W
LayerCount: 2
Fore
SplineSet
557 355 m 1,0,-1
 560 314 l 1,1,-1
 559 302 l 1,2,-1
 463 302 l 1,3,4
 480 232 480 232 480 176.5 c 128,-1,5
 480 121 480 121 459 84.5 c 128,-1,6
 438 48 438 48 405 28 c 0,7,8
 342 -9 342 -9 275 -9 c 0,9,10
 184 -9 184 -9 122.5 36.5 c 128,-1,11
 61 82 61 82 61 169 c 0,12,13
 61 286 61 286 152 332 c 1,14,15
 81 387 81 387 81 476.5 c 128,-1,16
 81 566 81 566 136.5 612.5 c 128,-1,17
 192 659 192 659 247 659 c 128,-1,18
 302 659 302 659 340 644 c 1,19,-1
 317 591 l 1,20,21
 291 604 291 604 250 604 c 0,22,23
 187 604 187 604 168 574.5 c 128,-1,24
 149 545 149 545 149 482.5 c 128,-1,25
 149 420 149 420 182.5 390.5 c 128,-1,26
 216 361 216 361 279 352 c 1,27,-1
 264 302 l 1,28,29
 217 302 217 302 201 307 c 1,30,31
 188 302 188 302 174.5 292 c 128,-1,32
 161 282 161 282 145.5 249 c 128,-1,33
 130 216 130 216 130 169.5 c 128,-1,34
 130 123 130 123 168 84.5 c 128,-1,35
 206 46 206 46 275 46 c 0,36,37
 412 46 412 46 412 168 c 0,38,39
 412 274 412 274 399 342 c 1,40,41
 399 349 399 349 518 354 c 1,42,-1
 557 355 l 1,0,-1
EndSplineSet
EndChar

StartChar: quotesingle
Encoding: 39 39 10
Width: 208
GlyphClass: 2
Flags: W
LayerCount: 2
Fore
SplineSet
91 667 m 1,0,-1
 151 667 l 1,1,-1
 151 613 l 2,2,3
 151 569 151 569 150.5 551.5 c 128,-1,4
 150 534 150 534 138 513 c 128,-1,5
 126 492 126 492 118 485 c 128,-1,6
 110 478 110 478 73 447 c 1,7,-1
 47 470 l 1,8,9
 76 508 76 508 88 535 c 1,10,-1
 91 612 l 1,11,-1
 91 667 l 1,0,-1
EndSplineSet
EndChar

StartChar: parenleft
Encoding: 40 40 11
Width: 255
GlyphClass: 2
Flags: W
LayerCount: 2
Fore
SplineSet
88 11 m 128,-1,1
 58 111 58 111 58 279.5 c 128,-1,2
 58 448 58 448 88 545 c 128,-1,3
 118 642 118 642 191 707 c 1,4,-1
 217 684 l 1,5,6
 190 650 190 650 182.5 633.5 c 128,-1,7
 175 617 175 617 166 589.5 c 128,-1,8
 157 562 157 562 154 551.5 c 128,-1,9
 151 541 151 541 143.5 508.5 c 128,-1,10
 136 476 136 476 133 448 c 0,11,12
 124 364 124 364 124 268 c 0,13,14
 124 64 124 64 176 -67 c 1,15,16
 190 -96 190 -96 217 -133 c 1,17,-1
 191 -156 l 1,18,0
 118 -89 118 -89 88 11 c 128,-1,1
EndSplineSet
EndChar

StartChar: parenright
Encoding: 41 41 12
Width: 255
GlyphClass: 2
Flags: W
LayerCount: 2
Fore
SplineSet
101 552 m 0,0,1
 85 606 85 606 75 628 c 128,-1,2
 65 650 65 650 38 684 c 1,3,-1
 64 707 l 1,4,5
 137 642 137 642 167 545 c 128,-1,6
 197 448 197 448 197 279.5 c 128,-1,7
 197 111 197 111 167 11 c 128,-1,8
 137 -89 137 -89 64 -156 c 1,9,-1
 38 -133 l 1,10,11
 65 -96 65 -96 79 -67 c 1,12,13
 131 64 131 64 131 255 c 128,-1,14
 131 446 131 446 101 552 c 0,0,1
EndSplineSet
EndChar

StartChar: asterisk
Encoding: 42 42 13
Width: 406
GlyphClass: 2
Flags: W
LayerCount: 2
Fore
SplineSet
183 552 m 1,0,-1
 177 669 l 1,1,-1
 230 669 l 1,2,-1
 224 552 l 1,3,-1
 333 593 l 1,4,-1
 350 543 l 1,5,-1
 237 512 l 1,6,-1
 310 421 l 1,7,-1
 267 390 l 1,8,-1
 203 488 l 1,9,-1
 139 390 l 1,10,-1
 97 421 l 1,11,-1
 170 513 l 1,12,-1
 57 543 l 1,13,-1
 73 593 l 1,14,-1
 183 552 l 1,0,-1
EndSplineSet
EndChar

StartChar: plus
Encoding: 43 43 14
Width: 489
GlyphClass: 2
Flags: W
LayerCount: 2
Fore
SplineSet
214 509 m 1,0,-1
 273 509 l 1,1,-1
 273 343 l 1,2,-1
 435 343 l 1,3,-1
 435 284 l 1,4,-1
 273 284 l 1,5,-1
 273 124 l 1,6,-1
 214 124 l 1,7,-1
 214 284 l 1,8,-1
 54 284 l 1,9,-1
 54 343 l 1,10,-1
 214 343 l 1,11,-1
 214 509 l 1,0,-1
EndSplineSet
EndChar

StartChar: comma
Encoding: 44 44 15
Width: 215
GlyphClass: 2
Flags: W
LayerCount: 2
Fore
SplineSet
145 92 m 1,0,-1
 146 1 l 1,1,-1
 93 -126 l 1,2,-1
 44 -126 l 1,3,-1
 69 1 l 1,4,-1
 70 92 l 1,5,-1
 145 92 l 1,0,-1
EndSplineSet
EndChar

StartChar: hyphen
Encoding: 45 45 16
Width: 525
GlyphClass: 2
Flags: W
LayerCount: 2
Fore
SplineSet
72 284 m 1,0,-1
 72 343 l 1,1,-1
 453 343 l 1,2,-1
 453 284 l 1,3,-1
 72 284 l 1,0,-1
EndSplineSet
EndChar

StartChar: period
Encoding: 46 46 17
Width: 223
GlyphClass: 2
Flags: W
LayerCount: 2
Fore
SplineSet
154 90 m 1,0,-1
 154 0 l 1,1,-1
 69 0 l 1,2,-1
 69 90 l 1,3,-1
 154 90 l 1,0,-1
EndSplineSet
EndChar

StartChar: slash
Encoding: 47 47 18
Width: 425
GlyphClass: 2
Flags: W
LayerCount: 2
Fore
SplineSet
23 6 m 1,0,-1
 350 741 l 1,1,-1
 403 718 l 1,2,-1
 77 -17 l 1,3,-1
 23 6 l 1,0,-1
EndSplineSet
EndChar

StartChar: zero
Encoding: 48 48 19
Width: 549
GlyphClass: 2
Flags: W
LayerCount: 2
Fore
SplineSet
275 661 m 0,0,1
 330 661 330 661 369.5 643.5 c 128,-1,2
 409 626 409 626 431 599.5 c 128,-1,3
 453 573 453 573 465 527 c 0,4,5
 484 454 484 454 484 360 c 128,-1,6
 484 266 484 266 474.5 211 c 128,-1,7
 465 156 465 156 443.5 104 c 128,-1,8
 422 52 422 52 378.5 21.5 c 128,-1,9
 335 -9 335 -9 275 -9 c 0,10,11
 199 -9 199 -9 159 16 c 0,12,13
 138 30 138 30 122.5 45.5 c 128,-1,14
 107 61 107 61 97 86.5 c 128,-1,15
 87 112 87 112 80.5 135 c 128,-1,16
 74 158 74 158 71 193 c 0,17,18
 66 251 66 251 66 328 c 0,19,20
 66 661 66 661 275 661 c 0,0,1
413 329 m 1,21,-1
 414 403 l 1,22,23
 414 496 414 496 396 533 c 0,24,25
 362 599 362 599 256 599 c 0,26,27
 183 599 183 599 159 536 c 0,28,29
 137 478 137 478 137 397 c 2,30,-1
 137 328 l 1,31,-1
 137 246 l 2,32,33
 137 184 137 184 142.5 164 c 128,-1,34
 148 144 148 144 155 123.5 c 128,-1,35
 162 103 162 103 173.5 92.5 c 128,-1,36
 185 82 185 82 200 72 c 0,37,38
 229 52 229 52 289 52 c 0,39,40
 336 52 336 52 368 86 c 0,41,42
 390 109 390 109 404 171 c 0,43,44
 413 213 413 213 413 329 c 1,21,-1
EndSplineSet
EndChar

StartChar: one
Encoding: 49 49 20
Width: 355
GlyphClass: 2
Flags: W
LayerCount: 2
Fore
SplineSet
191 0 m 1,0,-1
 191 586 l 1,1,-1
 58 506 l 1,2,-1
 31 551 l 1,3,-1
 191 648 l 1,4,-1
 259 648 l 1,5,-1
 258 0 l 1,6,-1
 191 0 l 1,0,-1
EndSplineSet
EndChar

StartChar: two
Encoding: 50 50 21
Width: 476
GlyphClass: 2
Flags: W
LayerCount: 2
Fore
SplineSet
424 56 m 1,0,-1
 424 0 l 1,1,-1
 53 0 l 1,2,-1
 53 23 l 2,3,4
 53 174 53 174 204 295 c 0,5,6
 287 362 287 362 309 392.5 c 128,-1,7
 331 423 331 423 331 481.5 c 128,-1,8
 331 540 331 540 303.5 563 c 128,-1,9
 276 586 276 586 215 586 c 128,-1,10
 154 586 154 586 80 555 c 1,11,-1
 63 612 l 1,12,13
 148 648 148 648 227.5 648 c 128,-1,14
 307 648 307 648 354.5 602.5 c 128,-1,15
 402 557 402 557 402 484 c 0,16,17
 402 441 402 441 384 398 c 0,18,19
 378 383 378 383 357.5 359.5 c 128,-1,20
 337 336 337 336 325.5 325.5 c 128,-1,21
 314 315 314 315 291 293.5 c 128,-1,22
 268 272 268 272 242.5 249 c 128,-1,23
 217 226 217 226 210 219.5 c 128,-1,24
 203 213 203 213 185.5 195.5 c 128,-1,25
 168 178 168 178 163.5 170.5 c 128,-1,26
 159 163 159 163 148.5 147.5 c 128,-1,27
 138 132 138 132 135 120 c 0,28,29
 125 81 125 81 124 56 c 1,30,-1
 424 56 l 1,0,-1
EndSplineSet
EndChar

StartChar: three
Encoding: 51 51 22
Width: 473
GlyphClass: 2
Flags: W
LayerCount: 2
Fore
SplineSet
186 316 m 2,0,-1
 159 316 l 1,1,-1
 159 364 l 1,2,-1
 186 364 l 1,3,4
 193 365 193 365 208.5 366 c 128,-1,5
 224 367 224 367 230.5 367.5 c 128,-1,6
 237 368 237 368 248.5 369.5 c 128,-1,7
 260 371 260 371 265.5 373.5 c 128,-1,8
 271 376 271 376 278 380 c 0,9,10
 318 398 318 398 318 488 c 0,11,12
 318 553 318 553 286.5 579 c 128,-1,13
 255 605 255 605 201.5 605 c 128,-1,14
 148 605 148 605 86 580 c 1,15,-1
 67 629 l 1,16,17
 140 661 140 661 217.5 661 c 128,-1,18
 295 661 295 661 340 618 c 0,19,20
 386 574 386 574 386 487 c 0,21,22
 386 441 386 441 369.5 401 c 128,-1,23
 353 361 353 361 322 348 c 1,24,25
 413 313 413 313 413 183 c 0,26,27
 413 93 413 93 357 40 c 128,-1,28
 301 -13 301 -13 209.5 -13 c 128,-1,29
 118 -13 118 -13 43 33 c 1,30,-1
 69 84 l 1,31,32
 136 45 136 45 214.5 45 c 128,-1,33
 293 45 293 45 323 85 c 0,34,35
 344 113 344 113 344 172 c 128,-1,36
 344 231 344 231 323 269.5 c 128,-1,37
 302 308 302 308 264 312 c 128,-1,38
 226 316 226 316 186 316 c 2,0,-1
EndSplineSet
EndChar

StartChar: four
Encoding: 52 52 23
Width: 465
GlyphClass: 2
Flags: W
LayerCount: 2
Fore
SplineSet
356 384 m 1,0,-1
 356 237 l 1,1,-1
 424 237 l 1,2,-1
 424 181 l 1,3,-1
 356 181 l 1,4,-1
 356 0 l 1,5,-1
 288 0 l 1,6,-1
 288 181 l 1,7,-1
 46 181 l 1,8,-1
 46 252 l 2,9,10
 46 306 46 306 75 354 c 1,11,-1
 274 659 l 1,12,-1
 324 627 l 1,13,-1
 143 347 l 2,14,15
 122 315 122 315 118 301.5 c 128,-1,16
 114 288 114 288 114 257 c 2,17,-1
 114 237 l 1,18,-1
 288 238 l 1,19,-1
 288 384 l 1,20,-1
 356 384 l 1,0,-1
EndSplineSet
EndChar

StartChar: five
Encoding: 53 53 24
Width: 483
GlyphClass: 2
Flags: W
LayerCount: 2
Fore
SplineSet
379 53 m 128,-1,1
 328 -7 328 -7 235.5 -7 c 128,-1,2
 143 -7 143 -7 50 47 c 1,3,-1
 73 104 l 1,4,5
 157 55 157 55 230 55 c 128,-1,6
 303 55 303 55 331 87.5 c 128,-1,7
 359 120 359 120 359 203.5 c 128,-1,8
 359 287 359 287 328 316 c 128,-1,9
 297 345 297 345 232 345 c 2,10,-1
 88 345 l 1,11,-1
 88 648 l 1,12,-1
 393 648 l 1,13,-1
 393 591 l 1,14,-1
 156 591 l 1,15,-1
 153 409 l 1,16,-1
 244 409 l 2,17,18
 430 409 430 409 430 214 c 0,19,0
 430 113 430 113 379 53 c 128,-1,1
EndSplineSet
EndChar

StartChar: six
Encoding: 54 54 25
Width: 509
GlyphClass: 2
Flags: W
LayerCount: 2
Fore
SplineSet
294 380 m 0,0,1
 369 380 369 380 411 337.5 c 128,-1,2
 453 295 453 295 453 187 c 0,3,4
 453 85 453 85 371 25 c 0,5,6
 326 -8 326 -8 263 -8 c 0,7,8
 148 -8 148 -8 106.5 64 c 128,-1,9
 65 136 65 136 65 307 c 128,-1,10
 65 478 65 478 116 568.5 c 128,-1,11
 167 659 167 659 270 659 c 0,12,13
 351 659 351 659 437 607 c 1,14,-1
 405 557 l 1,15,16
 337 597 337 597 274 597 c 0,17,18
 193 597 193 597 165 540.5 c 128,-1,19
 137 484 137 484 136 335 c 1,20,21
 139 336 139 336 156 344.5 c 128,-1,22
 173 353 173 353 179.5 355.5 c 128,-1,23
 186 358 186 358 202.5 364 c 128,-1,24
 219 370 219 370 230 372 c 0,25,26
 265 380 265 380 294 380 c 0,0,1
213.5 311.5 m 128,-1,28
 189 303 189 303 163 291 c 128,-1,29
 137 279 137 279 136 279 c 1,30,31
 136 137 136 137 173 93 c 0,32,33
 207 52 207 52 279 52 c 0,34,35
 385 52 385 52 385 184 c 0,36,37
 385 266 385 266 359.5 293 c 128,-1,38
 334 320 334 320 286 320 c 128,-1,27
 238 320 238 320 213.5 311.5 c 128,-1,28
EndSplineSet
EndChar

StartChar: seven
Encoding: 55 55 26
Width: 453
GlyphClass: 2
Flags: W
LayerCount: 2
Fore
SplineSet
118 604 m 1,0,-1
 118 519 l 1,1,-1
 47 519 l 1,2,-1
 47 660 l 1,3,-1
 409 660 l 1,4,-1
 424 613 l 1,5,-1
 368 498 l 1,6,7
 285 330 285 330 248 231 c 128,-1,8
 211 132 211 132 190 -9 c 1,9,-1
 118 -9 l 1,10,11
 137 147 137 147 215 321 c 1,12,-1
 350 604 l 1,13,-1
 118 604 l 1,0,-1
EndSplineSet
EndChar

StartChar: eight
Encoding: 56 56 27
Width: 514
GlyphClass: 2
Flags: W
LayerCount: 2
Fore
SplineSet
115 36 m 128,-1,1
 61 81 61 81 61 169 c 0,2,3
 61 227 61 227 87.5 268.5 c 128,-1,4
 114 310 114 310 156 332 c 1,5,6
 81 383 81 383 81 483 c 0,7,8
 81 540 81 540 112.5 582 c 128,-1,9
 144 624 144 624 182.5 641.5 c 128,-1,10
 221 659 221 659 256 659 c 0,11,12
 433 659 433 659 433 481 c 0,13,14
 433 432 433 432 411.5 393 c 128,-1,15
 390 354 390 354 357 330 c 1,16,17
 453 281 453 281 453 169 c 0,18,19
 453 110 453 110 418 68 c 0,20,21
 355 -9 355 -9 262 -9 c 128,-1,0
 169 -9 169 -9 115 36 c 128,-1,1
159 83 m 128,-1,23
 190 46 190 46 257.5 46 c 128,-1,24
 325 46 325 46 355 77 c 128,-1,25
 385 108 385 108 385 168 c 0,26,27
 385 240 385 240 339 266 c 0,28,29
 306 285 306 285 263.5 293 c 128,-1,30
 221 301 221 301 208 306 c 1,31,32
 205 305 205 305 199.5 303.5 c 128,-1,33
 194 302 194 302 180 292.5 c 128,-1,34
 166 283 166 283 155.5 269.5 c 128,-1,35
 145 256 145 256 136.5 229 c 128,-1,36
 128 202 128 202 128 161 c 128,-1,22
 128 120 128 120 159 83 c 128,-1,23
170.5 573.5 m 128,-1,38
 149 543 149 543 149 482 c 0,39,40
 149 363 149 363 304 349 c 0,41,42
 306 349 306 349 315 354 c 128,-1,43
 324 359 324 359 330.5 364.5 c 128,-1,44
 337 370 337 370 343 379.5 c 128,-1,45
 349 389 349 389 354 402 c 0,46,47
 366 431 366 431 366 468.5 c 128,-1,48
 366 506 366 506 362.5 524 c 128,-1,49
 359 542 359 542 349 562 c 0,50,51
 328 604 328 604 260 604 c 128,-1,37
 192 604 192 604 170.5 573.5 c 128,-1,38
EndSplineSet
EndChar

StartChar: nine
Encoding: 57 57 28
Width: 518
GlyphClass: 2
Flags: W
LayerCount: 2
Fore
SplineSet
381 303 m 1,0,1
 280 273 280 273 211 273 c 128,-1,2
 142 273 142 273 100.5 316.5 c 128,-1,3
 59 360 59 360 59 466 c 0,4,5
 59 535 59 535 110.5 597 c 128,-1,6
 162 659 162 659 254 659 c 0,7,8
 354 659 354 659 400 608 c 0,9,10
 440 565 440 565 448 450 c 0,11,12
 452 403 452 403 452 329 c 0,13,14
 452 160 452 160 397.5 76 c 128,-1,15
 343 -8 343 -8 247 -8 c 0,16,17
 199 -8 199 -8 161.5 5 c 128,-1,18
 124 18 124 18 66 52 c 1,19,-1
 88 106 l 1,20,21
 182 51 182 51 251.5 51 c 128,-1,22
 321 51 321 51 350 106 c 128,-1,23
 379 161 379 161 381 303 c 1,0,1
148 358.5 m 128,-1,25
 173 333 173 333 226 333 c 128,-1,26
 279 333 279 333 381 359 c 1,27,28
 383 387 383 387 383 410.5 c 128,-1,29
 383 434 383 434 381 465.5 c 128,-1,30
 379 497 379 497 369 530 c 0,31,32
 348 599 348 599 238 599 c 0,33,34
 123 599 123 599 123 466 c 0,35,24
 123 384 123 384 148 358.5 c 128,-1,25
EndSplineSet
EndChar

StartChar: colon
Encoding: 58 58 29
Width: 229
GlyphClass: 2
Flags: W
LayerCount: 2
Fore
SplineSet
157 93 m 1,0,-1
 157 2 l 1,1,-1
 72 2 l 1,2,-1
 73 93 l 1,3,-1
 157 93 l 1,0,-1
157 408 m 1,4,-1
 157 317 l 1,5,-1
 72 317 l 1,6,-1
 73 408 l 1,7,-1
 157 408 l 1,4,-1
EndSplineSet
EndChar

StartChar: semicolon
Encoding: 59 59 30
Width: 249
GlyphClass: 2
Flags: W
LayerCount: 2
Fore
SplineSet
169 93 m 1,0,-1
 170 2 l 1,1,-1
 117 -125 l 1,2,-1
 68 -125 l 1,3,-1
 93 2 l 1,4,-1
 94 93 l 1,5,-1
 169 93 l 1,0,-1
165 408 m 1,6,-1
 165 317 l 1,7,-1
 80 317 l 1,8,-1
 81 408 l 1,9,-1
 165 408 l 1,6,-1
EndSplineSet
EndChar

StartChar: less
Encoding: 60 60 31
Width: 449
GlyphClass: 2
Flags: W
LayerCount: 2
Fore
SplineSet
379 144 m 1,0,-1
 379 81 l 1,1,-1
 50 250 l 1,2,-1
 50 310 l 1,3,-1
 379 478 l 1,4,-1
 379 415 l 1,5,-1
 135 292 l 2,6,7
 122 286 122 286 122 280.5 c 128,-1,8
 122 275 122 275 129.5 271.5 c 128,-1,9
 137 268 137 268 379 144 c 1,0,-1
EndSplineSet
EndChar

StartChar: equal
Encoding: 61 61 32
Width: 483
GlyphClass: 2
Flags: W
LayerCount: 2
Fore
SplineSet
76 184 m 1,0,-1
 76 243 l 1,1,-1
 407 243 l 1,2,-1
 407 184 l 1,3,-1
 76 184 l 1,0,-1
76 384 m 1,4,-1
 76 443 l 1,5,-1
 407 443 l 1,6,-1
 407 384 l 1,7,-1
 76 384 l 1,4,-1
EndSplineSet
EndChar

StartChar: greater
Encoding: 62 62 33
Width: 449
GlyphClass: 2
Flags: W
LayerCount: 2
Fore
SplineSet
327 283 m 2,0,1
 327 284 327 284 326 286 c 1,2,3
 323 288 323 288 319.5 289.5 c 128,-1,4
 316 291 316 291 314 292 c 2,5,-1
 70 415 l 1,6,-1
 70 478 l 1,7,-1
 399 310 l 1,8,-1
 399 250 l 1,9,-1
 70 81 l 1,10,-1
 70 144 l 1,11,12
 263 243 263 243 314 269 c 1,13,14
 326 277 326 277 327 280 c 1,15,-1
 327 283 l 2,0,1
EndSplineSet
EndChar

StartChar: question
Encoding: 63 63 34
Width: 406
GlyphClass: 2
Flags: W
LayerCount: 2
Fore
SplineSet
37 655 m 1,0,1
 105 662 105 662 150.5 662 c 128,-1,2
 196 662 196 662 218 657.5 c 128,-1,3
 240 653 240 653 265 644.5 c 128,-1,4
 290 636 290 636 305.5 621 c 128,-1,5
 321 606 321 606 334 584 c 1,6,7
 360 544 360 544 360 462 c 0,8,9
 360 390 360 390 328 354 c 0,10,11
 310 334 310 334 298.5 325 c 128,-1,12
 287 316 287 316 270 305.5 c 128,-1,13
 253 295 253 295 238 286 c 128,-1,14
 223 277 223 277 218 273.5 c 128,-1,15
 213 270 213 270 203.5 263 c 128,-1,16
 194 256 194 256 190.5 250.5 c 128,-1,17
 187 245 187 245 182 236 c 0,18,19
 176 224 176 224 176 193 c 2,20,-1
 174 129 l 1,21,-1
 118 129 l 1,22,23
 116 161 116 161 116 205.5 c 128,-1,24
 116 250 116 250 134.5 277 c 128,-1,25
 153 304 153 304 179 320 c 128,-1,26
 205 336 205 336 231 352 c 0,27,28
 294 391 294 391 294 460 c 0,29,30
 294 522 294 522 273 551 c 0,31,32
 262 566 262 566 250.5 577.5 c 128,-1,33
 239 589 239 589 220 594 c 0,34,35
 178 607 178 607 135.5 607 c 128,-1,36
 93 607 93 607 51 601 c 1,37,38
 42 645 42 645 37 655 c 1,0,1
181 -19 m 1,39,-1
 109 -19 l 1,40,-1
 109 55 l 1,41,-1
 181 55 l 1,42,-1
 181 -19 l 1,39,-1
EndSplineSet
EndChar

StartChar: at
Encoding: 64 64 35
Width: 774
GlyphClass: 2
Flags: W
LayerCount: 2
Fore
SplineSet
489 250 m 1,0,-1
 478 251 l 1,1,2
 425 254 425 254 378 254 c 128,-1,3
 331 254 331 254 312 239.5 c 128,-1,4
 293 225 293 225 293 185.5 c 128,-1,5
 293 146 293 146 306 132.5 c 128,-1,6
 319 119 319 119 352 119 c 128,-1,7
 385 119 385 119 430.5 133.5 c 128,-1,8
 476 148 476 148 489 166 c 1,9,-1
 489 250 l 1,0,-1
489 298 m 1,10,-1
 490 353 l 2,11,12
 490 405 490 405 467 425.5 c 128,-1,13
 444 446 444 446 387.5 446 c 128,-1,14
 331 446 331 446 256.5 420 c 128,-1,15
 182 394 182 394 151 344.5 c 128,-1,16
 120 295 120 295 120 207 c 128,-1,17
 120 119 120 119 129.5 77 c 128,-1,18
 139 35 139 35 174.5 3.5 c 128,-1,19
 210 -28 210 -28 254.5 -41.5 c 128,-1,20
 299 -55 299 -55 365 -55 c 128,-1,21
 431 -55 431 -55 472 -51.5 c 128,-1,22
 513 -48 513 -48 549.5 -36 c 128,-1,23
 586 -24 586 -24 607 -4 c 128,-1,24
 628 16 628 16 644 50 c 1,25,26
 671 112 671 112 671 249 c 1,27,-1
 727 246 l 1,28,29
 727 78 727 78 675 -4 c 0,30,31
 630 -76 630 -76 510 -97 c 0,32,33
 459 -106 459 -106 383 -108 c 1,34,35
 58 -108 58 -108 58 156 c 0,36,37
 58 311 58 311 103 373 c 128,-1,38
 148 435 148 435 244 467.5 c 128,-1,39
 340 500 340 500 412.5 500 c 128,-1,40
 485 500 485 500 525 455 c 0,41,42
 547 431 547 431 548 378 c 0,43,44
 549 362 549 362 549 321 c 2,45,-1
 549 298 l 2,46,47
 549 203 549 203 550 178 c 1,48,49
 553 159 553 159 560 121.5 c 128,-1,50
 567 84 567 84 570 65 c 1,51,-1
 529 65 l 1,52,-1
 522 72 l 1,53,-1
 505 123 l 1,54,55
 418 66 418 66 348 64 c 1,56,57
 294 64 294 64 264 93.5 c 128,-1,58
 234 123 234 123 234 176 c 0,59,60
 234 250 234 250 275 276.5 c 128,-1,61
 316 303 316 303 389 303 c 0,62,63
 417 303 417 303 471 299 c 2,64,-1
 489 298 l 1,10,-1
EndSplineSet
EndChar

StartChar: A
Encoding: 65 65 36
Width: 596
GlyphClass: 2
Flags: W
LayerCount: 2
Fore
SplineSet
253 648 m 1,0,-1
 343 648 l 1,1,-1
 562 0 l 1,2,-1
 491 0 l 1,3,-1
 424 201 l 1,4,-1
 172 201 l 1,5,-1
 105 0 l 1,6,-1
 34 0 l 1,7,-1
 253 648 l 1,0,-1
190 257 m 1,8,-1
 407 257 l 1,9,-1
 301 593 l 1,10,-1
 298 593 l 1,11,-1
 190 257 l 1,8,-1
EndSplineSet
EndChar

StartChar: B
Encoding: 66 66 37
Width: 549
GlyphClass: 2
Flags: W
LayerCount: 2
Fore
SplineSet
260 -1 m 1,0,-1
 157 0 l 1,1,-1
 91 0 l 1,2,-1
 91 648 l 1,3,-1
 248 648 l 2,4,5
 290 648 290 648 317.5 645.5 c 128,-1,6
 345 643 345 643 374.5 632.5 c 128,-1,7
 404 622 404 622 421 603 c 0,8,9
 460 559 460 559 460 463.5 c 128,-1,10
 460 368 460 368 407 333 c 1,11,12
 427 325 427 325 438 317.5 c 128,-1,13
 449 310 449 310 464 294 c 1,14,15
 491 262 491 262 491 167.5 c 128,-1,16
 491 73 491 73 436.5 36 c 128,-1,17
 382 -1 382 -1 260 -1 c 1,0,-1
157 60 m 1,18,-1
 295 59 l 2,19,20
 366 59 366 59 394 79 c 128,-1,21
 422 99 422 99 422 175 c 0,22,23
 422 302 422 302 322 302 c 2,24,-1
 157 302 l 1,25,-1
 157 60 l 1,18,-1
237 587 m 2,26,-1
 157 587 l 1,27,-1
 157 358 l 1,28,-1
 343 358 l 2,29,30
 392 358 392 358 392 466 c 0,31,32
 392 527 392 527 381 545 c 128,-1,33
 370 563 370 563 360.5 570 c 128,-1,34
 351 577 351 577 330 581 c 0,35,36
 300 587 300 587 237 587 c 2,26,-1
EndSplineSet
EndChar

StartChar: C
Encoding: 67 67 38
Width: 554
GlyphClass: 2
Flags: W
LayerCount: 2
Fore
SplineSet
281 653.5 m 128,-1,1
 317 660 317 660 374 660 c 128,-1,2
 431 660 431 660 514 633 c 1,3,-1
 498 580 l 1,4,5
 408 598 408 598 364.5 598 c 128,-1,6
 321 598 321 598 290 593.5 c 128,-1,7
 259 589 259 589 226.5 573 c 128,-1,8
 194 557 194 557 175 528 c 0,9,10
 132 462 132 462 132 326 c 0,11,12
 132 159 132 159 192 102 c 0,13,14
 221 75 221 75 252 64.5 c 128,-1,15
 283 54 283 54 320.5 54 c 128,-1,16
 358 54 358 54 376 56 c 0,17,18
 434 60 434 60 491 94 c 1,19,-1
 514 40 l 1,20,21
 442 -9 442 -9 326 -9 c 0,22,23
 281 -9 281 -9 248 -3.5 c 128,-1,24
 215 2 215 2 178 21.5 c 128,-1,25
 141 41 141 41 117.5 76 c 128,-1,26
 94 111 94 111 78 174 c 128,-1,27
 62 237 62 237 62 322.5 c 128,-1,28
 62 408 62 408 82 471 c 128,-1,29
 102 534 102 534 131.5 569 c 128,-1,30
 161 604 161 604 203 625.5 c 128,-1,0
 245 647 245 647 281 653.5 c 128,-1,1
EndSplineSet
EndChar

StartChar: D
Encoding: 68 68 39
Width: 622
GlyphClass: 2
Flags: W
LayerCount: 2
Fore
SplineSet
91 648 m 1,0,-1
 262 648 l 2,1,2
 323 648 323 648 364 642 c 128,-1,3
 405 636 405 636 445 616.5 c 128,-1,4
 485 597 485 597 508 563 c 0,5,6
 559 488 559 488 559 329 c 0,7,8
 559 231 559 231 533 155 c 0,9,10
 515 103 515 103 464 57 c 0,11,12
 436 31 436 31 372 12 c 0,13,14
 336 2 336 2 295.5 1 c 128,-1,15
 255 0 255 0 224 0 c 2,16,-1
 91 0 l 1,17,-1
 91 648 l 1,0,-1
157 58 m 1,18,-1
 224 58 l 2,19,20
 229 58 229 58 250 58 c 128,-1,21
 271 58 271 58 287.5 58.5 c 128,-1,22
 304 59 304 59 331 61 c 128,-1,23
 358 63 358 63 370.5 68 c 128,-1,24
 383 73 383 73 403 82 c 128,-1,25
 423 91 423 91 432 104.5 c 128,-1,26
 441 118 441 118 453.5 138 c 128,-1,27
 466 158 466 158 472 185 c 0,28,29
 486 258 486 258 487 336 c 128,-1,30
 488 414 488 414 477.5 464.5 c 128,-1,31
 467 515 467 515 438 542.5 c 128,-1,32
 409 570 409 570 370 578.5 c 128,-1,33
 331 587 331 587 263 587 c 2,34,-1
 157 587 l 1,35,-1
 157 58 l 1,18,-1
EndSplineSet
EndChar

StartChar: E
Encoding: 69 69 40
Width: 507
GlyphClass: 2
Flags: W
LayerCount: 2
Fore
SplineSet
459 0 m 1,0,-1
 91 0 l 1,1,-1
 91 648 l 1,2,-1
 448 648 l 1,3,-1
 441 592 l 1,4,-1
 158 592 l 1,5,-1
 158 363 l 1,6,-1
 408 363 l 1,7,-1
 408 307 l 1,8,-1
 157 307 l 1,9,-1
 157 56 l 1,10,-1
 459 56 l 1,11,-1
 459 0 l 1,0,-1
EndSplineSet
EndChar

StartChar: F
Encoding: 70 70 41
Width: 452
GlyphClass: 2
Flags: W
LayerCount: 2
Fore
SplineSet
158 592 m 1,0,-1
 158 360 l 1,1,-1
 382 360 l 1,2,-1
 382 304 l 1,3,-1
 157 304 l 1,4,-1
 157 0 l 1,5,-1
 91 0 l 1,6,-1
 91 648 l 1,7,-1
 416 648 l 1,8,-1
 409 592 l 1,9,-1
 158 592 l 1,0,-1
EndSplineSet
EndChar

StartChar: G
Encoding: 71 71 42
Width: 603
GlyphClass: 2
Flags: W
LayerCount: 2
Fore
SplineSet
361 332 m 1,0,-1
 534 332 l 1,1,-1
 533 51 l 1,2,3
 449 -9 449 -9 345 -9 c 0,4,5
 291 -9 291 -9 252 -2.5 c 128,-1,6
 213 4 213 4 175 24.5 c 128,-1,7
 137 45 137 45 114 81 c 0,8,9
 62 160 62 160 62 324 c 0,10,11
 62 660 62 660 359 660 c 0,12,13
 398 660 398 660 451.5 650.5 c 128,-1,14
 505 641 505 641 537 628 c 1,15,-1
 519 576 l 1,16,17
 448 598 448 598 359 598 c 0,18,19
 230 598 230 598 181 537 c 128,-1,20
 132 476 132 476 132 325 c 0,21,22
 132 152 132 152 196 98 c 0,23,24
 228 71 228 71 261.5 62 c 128,-1,25
 295 53 295 53 344 53 c 0,26,27
 425 53 425 53 471 84 c 1,28,-1
 471 284 l 1,29,-1
 361 284 l 1,30,-1
 361 332 l 1,0,-1
EndSplineSet
EndChar

StartChar: H
Encoding: 72 72 43
Width: 624
GlyphClass: 2
Flags: W
LayerCount: 2
Fore
SplineSet
467 648 m 1,0,-1
 533 648 l 1,1,-1
 533 0 l 1,2,-1
 467 0 l 1,3,-1
 467 308 l 1,4,-1
 157 308 l 1,5,-1
 157 0 l 1,6,-1
 91 0 l 1,7,-1
 91 648 l 1,8,-1
 157 648 l 1,9,-1
 157 364 l 1,10,-1
 467 364 l 1,11,-1
 467 648 l 1,0,-1
EndSplineSet
EndChar

StartChar: I
Encoding: 73 73 44
Width: 248
GlyphClass: 2
Flags: W
LayerCount: 2
Fore
SplineSet
91 648 m 1,0,-1
 157 648 l 1,1,-1
 157 0 l 1,2,-1
 91 0 l 1,3,-1
 91 648 l 1,0,-1
EndSplineSet
EndChar

StartChar: J
Encoding: 74 74 45
Width: 263
GlyphClass: 2
Flags: W
LayerCount: 2
Fore
SplineSet
107 648 m 1,0,-1
 173 648 l 1,1,-1
 173 78 l 1,2,3
 172 -24 172 -24 121 -79 c 128,-1,4
 70 -134 70 -134 -16 -136 c 1,5,-1
 -29 -98 l 1,6,7
 104 -71 104 -71 107 78 c 1,8,-1
 107 648 l 1,0,-1
EndSplineSet
EndChar

StartChar: K
Encoding: 75 75 46
Width: 566
GlyphClass: 2
Flags: W
LayerCount: 2
Fore
SplineSet
157 0 m 1,0,-1
 91 0 l 1,1,-1
 91 648 l 1,2,-1
 158 648 l 1,3,-1
 158 316 l 1,4,-1
 229 399 l 2,5,6
 300 482 300 482 370 565 c 2,7,-1
 441 648 l 1,8,-1
 514 648 l 1,9,-1
 254 341 l 1,10,-1
 553 0 l 1,11,-1
 470 0 l 1,12,-1
 214 294 l 1,13,-1
 157 227 l 1,14,-1
 157 0 l 1,0,-1
EndSplineSet
EndChar

StartChar: L
Encoding: 76 76 47
Width: 467
GlyphClass: 2
Flags: W
LayerCount: 2
Fore
SplineSet
92 1 m 1,0,-1
 91 1 l 1,1,-1
 91 648 l 1,2,-1
 157 648 l 1,3,-1
 156 56 l 1,4,-1
 444 56 l 1,5,-1
 444 0 l 1,6,-1
 92 0 l 1,7,-1
 92 1 l 1,0,-1
EndSplineSet
EndChar

StartChar: M
Encoding: 77 77 48
Width: 762
GlyphClass: 2
Flags: W
LayerCount: 2
Fore
SplineSet
181 648 m 1,0,-1
 381 245 l 1,1,-1
 580 648 l 1,2,-1
 660 648 l 1,3,-1
 680 0 l 1,4,-1
 613 0 l 1,5,-1
 607 488 l 1,6,-1
 606 560 l 1,7,-1
 413 180 l 1,8,-1
 348 180 l 1,9,-1
 155 560 l 1,10,-1
 148 0 l 1,11,-1
 81 0 l 1,12,-1
 103 648 l 1,13,-1
 181 648 l 1,0,-1
EndSplineSet
EndChar

StartChar: N
Encoding: 78 78 49
Width: 659
GlyphClass: 2
Flags: W
LayerCount: 2
Fore
SplineSet
502 648 m 1,0,-1
 568 648 l 1,1,-1
 568 0 l 1,2,-1
 495 0 l 1,3,-1
 153 547 l 1,4,-1
 157 453 l 1,5,-1
 157 0 l 1,6,-1
 91 0 l 1,7,-1
 91 648 l 1,8,-1
 163 648 l 1,9,-1
 505 103 l 1,10,-1
 502 199 l 1,11,-1
 502 648 l 1,0,-1
EndSplineSet
EndChar

StartChar: O
Encoding: 79 79 50
Width: 661
GlyphClass: 2
Flags: W
LayerCount: 2
Fore
SplineSet
331 661 m 0,0,1
 482 661 482 661 540.5 591 c 128,-1,2
 599 521 599 521 599 329 c 0,3,4
 599 232 599 232 576 163 c 128,-1,5
 553 94 553 94 512 58 c 0,6,7
 437 -9 437 -9 331 -9 c 0,8,9
 186 -9 186 -9 136 44 c 0,10,11
 85 99 85 99 70 196 c 0,12,13
 62 252 62 252 62 335.5 c 128,-1,14
 62 419 62 419 87 487 c 128,-1,15
 112 555 112 555 153 591 c 0,16,17
 233 661 233 661 331 661 c 0,0,1
312 599 m 0,18,19
 221 599 221 599 176.5 535.5 c 128,-1,20
 132 472 132 472 132 328 c 0,21,22
 132 192 132 192 166 126 c 0,23,24
 194 71 194 71 268 58 c 0,25,26
 298 52 298 52 345 52 c 0,27,28
 439 52 439 52 484 117 c 128,-1,29
 529 182 529 182 529 329 c 0,30,31
 529 443 529 443 507 502 c 0,32,33
 494 537 494 537 470 557 c 0,34,35
 420 599 420 599 312 599 c 0,18,19
EndSplineSet
EndChar

StartChar: P
Encoding: 80 80 51
Width: 553
GlyphClass: 2
Flags: W
LayerCount: 2
Fore
SplineSet
264 253 m 2,0,-1
 204 254 l 1,1,-1
 158 254 l 1,2,-1
 158 0 l 1,3,-1
 91 0 l 1,4,-1
 91 648 l 1,5,-1
 281 648 l 2,6,7
 334 648 334 648 370.5 641.5 c 128,-1,8
 407 635 407 635 441 616 c 0,9,10
 509 576 509 576 509 453 c 0,11,12
 509 350 509 350 460 302 c 0,13,14
 439 282 439 282 404 270.5 c 128,-1,15
 369 259 369 259 339 256 c 128,-1,16
 309 253 309 253 264 253 c 2,0,-1
224 311 m 1,17,-1
 300 310 l 1,18,19
 381 310 381 310 410 335.5 c 128,-1,20
 439 361 439 361 439 449 c 128,-1,21
 439 537 439 537 402.5 562 c 128,-1,22
 366 587 366 587 269 587 c 2,23,-1
 158 587 l 1,24,-1
 158 311 l 1,25,-1
 224 311 l 1,17,-1
EndSplineSet
EndChar

StartChar: Q
Encoding: 81 81 52
Width: 660
GlyphClass: 2
Flags: W
LayerCount: 2
Fore
SplineSet
328 661 m 0,0,1
 479 661 479 661 538.5 590.5 c 128,-1,2
 598 520 598 520 598 329 c 0,3,4
 598 125 598 125 494 44 c 0,5,6
 437 -1 437 -1 358 -7 c 1,7,-1
 358 -34 l 2,8,9
 358 -37 358 -37 358 -40 c 0,10,11
 358 -94 358 -94 374.5 -109.5 c 128,-1,12
 391 -125 391 -125 466 -144 c 0,13,14
 484 -149 484 -149 495 -152 c 1,15,16
 495 -184 495 -184 498 -197 c 1,17,18
 384 -181 384 -181 337.5 -147.5 c 128,-1,19
 291 -114 291 -114 290 -33 c 1,20,-1
 290 -7 l 1,21,22
 245 -5 245 -5 213 3 c 128,-1,23
 181 11 181 11 150.5 32 c 128,-1,24
 120 53 120 53 102 89 c 0,25,26
 62 169 62 169 62 328 c 0,27,28
 62 419 62 419 86.5 487 c 128,-1,29
 111 555 111 555 152 591 c 0,30,31
 230 661 230 661 328 661 c 0,0,1
309 599 m 0,32,33
 219 599 219 599 176 536 c 128,-1,34
 133 473 133 473 133 328 c 0,35,36
 133 192 133 192 165 126 c 0,37,38
 193 70 193 70 264 58 c 0,39,40
 295 52 295 52 342 52 c 0,41,42
 436 52 436 52 481.5 117.5 c 128,-1,43
 527 183 527 183 527 329 c 0,44,45
 527 403 527 403 519 449 c 128,-1,46
 511 495 511 495 488.5 531.5 c 128,-1,47
 466 568 466 568 422.5 583.5 c 128,-1,48
 379 599 379 599 309 599 c 0,32,33
EndSplineSet
EndChar

StartChar: R
Encoding: 82 82 53
Width: 580
GlyphClass: 2
Flags: W
LayerCount: 2
Fore
SplineSet
264 253 m 1,0,-1
 204 254 l 1,1,-1
 158 254 l 1,2,-1
 158 0 l 1,3,-1
 91 0 l 1,4,-1
 91 648 l 1,5,-1
 281 648 l 2,6,7
 334 648 334 648 370.5 641.5 c 128,-1,8
 407 635 407 635 441 616 c 0,9,10
 509 576 509 576 509 453 c 0,11,12
 509 361 509 361 472.5 317 c 128,-1,13
 436 273 436 273 369 260 c 1,14,-1
 537 18 l 1,15,-1
 485 -17 l 1,16,-1
 295 253 l 1,17,-1
 264 253 l 1,0,-1
224 311 m 1,18,-1
 300 310 l 1,19,20
 381 310 381 310 410 335.5 c 128,-1,21
 439 361 439 361 439 449 c 128,-1,22
 439 537 439 537 402.5 562 c 128,-1,23
 366 587 366 587 269 587 c 2,24,-1
 158 587 l 1,25,-1
 158 311 l 1,26,-1
 224 311 l 1,18,-1
EndSplineSet
EndChar

StartChar: S
Encoding: 83 83 54
Width: 514
GlyphClass: 2
Flags: W
LayerCount: 2
Fore
SplineSet
65 75 m 1,0,1
 142 46 142 46 231 46 c 128,-1,2
 320 46 320 46 357 72.5 c 128,-1,3
 394 99 394 99 394 171 c 0,4,5
 394 209 394 209 370 234 c 1,6,7
 347 256 347 256 328 266 c 2,8,-1
 292 284 l 2,9,10
 275 292 275 292 250.5 303 c 128,-1,11
 226 314 226 314 208 322.5 c 128,-1,12
 190 331 190 331 159 347.5 c 128,-1,13
 128 364 128 364 115 375.5 c 128,-1,14
 102 387 102 387 86 404 c 0,15,16
 58 435 58 435 58 484 c 0,17,18
 58 567 58 567 115 613.5 c 128,-1,19
 172 660 172 660 262 660 c 128,-1,20
 352 660 352 660 429 635 c 1,21,-1
 416 585 l 1,22,23
 354 605 354 605 273.5 605 c 128,-1,24
 193 605 193 605 160 579.5 c 128,-1,25
 127 554 127 554 127 492 c 0,26,27
 127 446 127 446 174 416 c 0,28,29
 212 392 212 392 291 357.5 c 128,-1,30
 370 323 370 323 398 304 c 0,31,32
 469 256 469 256 470 174 c 1,33,34
 470 -9 470 -9 233 -9 c 0,35,36
 134 -9 134 -9 48 20 c 1,37,-1
 65 75 l 1,0,1
EndSplineSet
EndChar

StartChar: T
Encoding: 84 84 55
Width: 477
GlyphClass: 2
Flags: W
LayerCount: 2
Fore
SplineSet
24 592 m 1,0,-1
 24 648 l 1,1,-1
 453 648 l 1,2,-1
 453 592 l 1,3,-1
 271 592 l 1,4,-1
 271 0 l 1,5,-1
 205 0 l 1,6,-1
 205 592 l 1,7,-1
 24 592 l 1,0,-1
EndSplineSet
EndChar

StartChar: U
Encoding: 85 85 56
Width: 612
GlyphClass: 2
Flags: W
LayerCount: 2
Fore
SplineSet
310 -10 m 0,0,1
 308 -10 308 -10 296 -10 c 128,-1,2
 284 -10 284 -10 272 -9.5 c 128,-1,3
 260 -9 260 -9 235 -5.5 c 128,-1,4
 210 -2 210 -2 193 5.5 c 128,-1,5
 176 13 176 13 154.5 29 c 128,-1,6
 133 45 133 45 120 67 c 0,7,8
 87 120 87 120 87 204 c 2,9,-1
 87 648 l 1,10,-1
 154 648 l 1,11,-1
 154 204 l 1,12,13
 157 47 157 47 310 47 c 0,14,15
 375 47 375 47 418 85 c 128,-1,16
 461 123 461 123 461 200 c 2,17,-1
 461 648 l 1,18,-1
 526 648 l 1,19,-1
 525 202 l 2,20,21
 525 -10 525 -10 310 -10 c 0,0,1
EndSplineSet
EndChar

StartChar: V
Encoding: 86 86 57
Width: 578
GlyphClass: 2
Flags: W
LayerCount: 2
Fore
SplineSet
248 0 m 1,0,-1
 35 648 l 1,1,-1
 110 648 l 1,2,-1
 289 81 l 1,3,-1
 471 648 l 1,4,-1
 543 648 l 1,5,-1
 331 0 l 1,6,-1
 248 0 l 1,0,-1
EndSplineSet
EndChar

StartChar: W
Encoding: 87 87 58
Width: 799
GlyphClass: 2
Flags: W
LayerCount: 2
Fore
SplineSet
364 493 m 1,0,-1
 434 493 l 1,1,-1
 619 71 l 1,2,-1
 624 160 l 1,3,-1
 666 648 l 1,4,-1
 735 648 l 1,5,-1
 665 0 l 1,6,-1
 584 0 l 1,7,-1
 400 417 l 1,8,-1
 220 0 l 1,9,-1
 134 0 l 1,10,-1
 65 648 l 1,11,-1
 134 648 l 1,12,-1
 178 161 l 1,13,-1
 183 70 l 1,14,-1
 364 493 l 1,0,-1
EndSplineSet
EndChar

StartChar: X
Encoding: 88 88 59
Width: 572
GlyphClass: 2
Flags: W
LayerCount: 2
Fore
SplineSet
41 648 m 1,0,-1
 116 648 l 1,1,-1
 286 381 l 1,2,-1
 455 648 l 1,3,-1
 531 648 l 1,4,-1
 331 338 l 1,5,-1
 550 0 l 1,6,-1
 478 0 l 1,7,-1
 286 296 l 1,8,-1
 94 0 l 1,9,-1
 22 0 l 1,10,-1
 241 338 l 1,11,-1
 41 648 l 1,0,-1
EndSplineSet
EndChar

StartChar: Y
Encoding: 89 89 60
Width: 538
GlyphClass: 2
Flags: W
LayerCount: 2
Fore
SplineSet
236 0 m 1,0,-1
 236 265 l 1,1,-1
 30 648 l 1,2,-1
 104 648 l 1,3,-1
 269 324 l 1,4,-1
 437 648 l 1,5,-1
 508 648 l 1,6,-1
 303 265 l 1,7,-1
 302 0 l 1,8,-1
 236 0 l 1,0,-1
EndSplineSet
EndChar

StartChar: Z
Encoding: 90 90 61
Width: 522
GlyphClass: 2
Flags: W
LayerCount: 2
Fore
SplineSet
47 592 m 1,0,-1
 47 648 l 1,1,-1
 476 648 l 1,2,-1
 476 592 l 1,3,-1
 118 56 l 1,4,-1
 476 58 l 1,5,-1
 457 0 l 1,6,-1
 47 0 l 1,7,-1
 47 56 l 1,8,-1
 403 592 l 1,9,-1
 47 592 l 1,0,-1
EndSplineSet
EndChar

StartChar: bracketleft
Encoding: 91 91 62
Width: 251
GlyphClass: 2
Flags: W
LayerCount: 2
Fore
SplineSet
85 541 m 2,0,-1
 86 594 l 2,1,2
 86 604 86 604 89 612.5 c 128,-1,3
 92 621 92 621 92.5 627.5 c 128,-1,4
 93 634 93 634 99 641.5 c 128,-1,5
 105 649 105 649 106.5 652.5 c 128,-1,6
 108 656 108 656 117.5 664.5 c 128,-1,7
 127 673 127 673 130.5 676 c 128,-1,8
 134 679 134 679 148 690.5 c 128,-1,9
 162 702 162 702 168 707 c 1,10,-1
 194 684 l 1,11,12
 167 650 167 650 153 619 c 1,13,-1
 150 543 l 1,14,15
 152 407 152 407 152 271 c 128,-1,16
 152 135 152 135 150 -1 c 1,17,-1
 153 -77 l 1,18,19
 167 -106 167 -106 194 -143 c 1,20,-1
 168 -166 l 1,21,22
 161 -160 161 -160 147.5 -149 c 128,-1,23
 134 -138 134 -138 130.5 -134.5 c 128,-1,24
 127 -131 127 -131 117.5 -122.5 c 128,-1,25
 108 -114 108 -114 106.5 -110.5 c 128,-1,26
 105 -107 105 -107 99 -99.5 c 128,-1,27
 93 -92 93 -92 92.5 -86 c 128,-1,28
 92 -80 92 -80 89 -71 c 128,-1,29
 86 -62 86 -62 86 -52 c 2,30,-1
 85 0 l 1,31,-1
 84 409 l 2,32,33
 84 523 84 523 85 541 c 2,0,-1
EndSplineSet
EndChar

StartChar: backslash
Encoding: 92 92 63
Width: 378
GlyphClass: 2
Flags: W
LayerCount: 2
Fore
SplineSet
77 751 m 1,0,-1
 354 -31 l 1,1,-1
 299 -50 l 1,2,-1
 23 732 l 1,3,-1
 77 751 l 1,0,-1
EndSplineSet
EndChar

StartChar: bracketright
Encoding: 93 93 64
Width: 251
GlyphClass: 2
Flags: W
LayerCount: 2
Fore
SplineSet
167 0 m 1,0,-1
 166 -52 l 2,1,2
 166 -62 166 -62 163 -71 c 128,-1,3
 160 -80 160 -80 159.5 -86 c 128,-1,4
 159 -92 159 -92 153 -99.5 c 128,-1,5
 147 -107 147 -107 145.5 -110.5 c 128,-1,6
 144 -114 144 -114 134.5 -122.5 c 128,-1,7
 125 -131 125 -131 121.5 -134.5 c 128,-1,8
 118 -138 118 -138 104.5 -149 c 128,-1,9
 91 -160 91 -160 84 -166 c 1,10,-1
 58 -143 l 1,11,12
 85 -106 85 -106 99 -77 c 1,13,-1
 102 -1 l 1,14,15
 100 135 100 135 100 271 c 128,-1,16
 100 407 100 407 102 543 c 1,17,-1
 99 619 l 1,18,19
 85 650 85 650 58 684 c 1,20,-1
 84 707 l 1,21,22
 90 702 90 702 104 690.5 c 128,-1,23
 118 679 118 679 121.5 676 c 128,-1,24
 125 673 125 673 134.5 664.5 c 128,-1,25
 144 656 144 656 145.5 652.5 c 128,-1,26
 147 649 147 649 153 641.5 c 128,-1,27
 159 634 159 634 159.5 627.5 c 128,-1,28
 160 621 160 621 163 612.5 c 128,-1,29
 166 604 166 604 166 594 c 2,30,-1
 167 541 l 1,31,-1
 167 0 l 1,0,-1
EndSplineSet
EndChar

StartChar: asciicircum
Encoding: 94 94 65
Width: 493
GlyphClass: 2
Flags: W
LayerCount: 2
Fore
SplineSet
243 572 m 2,0,1
 242 572 242 572 240 570 c 256,2,3
 238 568 238 568 236.5 564.5 c 128,-1,4
 235 561 235 561 234 559 c 2,5,-1
 111 305 l 1,6,-1
 48 305 l 1,7,-1
 216 644 l 1,8,-1
 276 644 l 1,9,-1
 445 305 l 1,10,-1
 382 305 l 1,11,12
 270 526 270 526 257 559 c 1,13,14
 249 571 249 571 246 572 c 1,15,-1
 243 572 l 2,0,1
EndSplineSet
EndChar

StartChar: underscore
Encoding: 95 95 66
Width: 567
GlyphClass: 2
Flags: W
LayerCount: 2
Fore
SplineSet
69 0 m 1,0,-1
 69 59 l 1,1,-1
 498 59 l 1,2,-1
 498 0 l 1,3,-1
 69 0 l 1,0,-1
EndSplineSet
EndChar

StartChar: grave
Encoding: 96 96 67
Width: 352
GlyphClass: 2
Flags: W
LayerCount: 2
Fore
SplineSet
88 671 m 1,0,-1
 136 716 l 1,1,2
 174 674 174 674 199 655 c 0,3,4
 234 628 234 628 260 611 c 2,5,-1
 280 597 l 1,6,7
 275 590 275 590 266 582 c 128,-1,8
 257 574 257 574 252 568 c 1,9,-1
 184 596 l 1,10,11
 130 633 130 633 88 671 c 1,0,-1
EndSplineSet
EndChar

StartChar: a
Encoding: 97 97 68
Width: 486
GlyphClass: 2
Flags: W
LayerCount: 2
Fore
SplineSet
408 299 m 1,0,-1
 407 180 l 2,1,2
 407 152 407 152 408 128 c 1,3,-1
 430 6 l 1,4,-1
 431 1 l 1,5,-1
 387 1 l 1,6,-1
 383 4 l 1,7,-1
 359 62 l 1,8,9
 266 -2 266 -2 176 -5 c 1,10,11
 113 -5 113 -5 79.5 28.5 c 128,-1,12
 46 62 46 62 46 123 c 0,13,14
 46 207 46 207 93 237 c 128,-1,15
 140 267 140 267 222 267 c 0,16,17
 232 267 232 267 343 261 c 1,18,-1
 343 326 l 2,19,20
 343 392 343 392 318.5 417.5 c 128,-1,21
 294 443 294 443 250 443 c 128,-1,22
 206 443 206 443 80 416 c 1,23,-1
 71 464 l 1,24,25
 195 501 195 501 249 501 c 0,26,27
 331 501 331 501 379 450 c 0,28,29
 408 419 408 419 408 299 c 1,0,-1
343 211 m 1,30,-1
 238 215 l 1,31,32
 158 215 158 215 134 199 c 128,-1,33
 110 183 110 183 110 135.5 c 128,-1,34
 110 88 110 88 126 70.5 c 128,-1,35
 142 53 142 53 181.5 53 c 128,-1,36
 221 53 221 53 274.5 69 c 128,-1,37
 328 85 328 85 343 106 c 1,38,-1
 343 211 l 1,30,-1
EndSplineSet
EndChar

StartChar: b
Encoding: 98 98 69
Width: 509
GlyphClass: 2
Flags: W
LayerCount: 2
Fore
SplineSet
75 736 m 1,0,-1
 137 736 l 1,1,-1
 137 447 l 1,2,3
 197 500 197 500 260.5 500 c 128,-1,4
 324 500 324 500 362.5 481.5 c 128,-1,5
 401 463 401 463 420 426 c 0,6,7
 454 361 454 361 454 252 c 0,8,9
 454 183 454 183 437 131 c 128,-1,10
 420 79 420 79 396.5 53 c 128,-1,11
 373 27 373 27 343 11 c 0,12,13
 300 -12 300 -12 258 -12 c 0,14,15
 232 -12 232 -12 215 -8.5 c 128,-1,16
 198 -5 198 -5 189 -3.5 c 128,-1,17
 180 -2 180 -2 167.5 2.5 c 128,-1,18
 155 7 155 7 148.5 9 c 128,-1,19
 142 11 142 11 128.5 17 c 128,-1,20
 115 23 115 23 111 25 c 0,21,22
 81 40 81 40 75 42 c 1,23,-1
 75 736 l 1,0,-1
137 67 m 1,24,25
 193 47 193 47 243 47 c 128,-1,26
 293 47 293 47 319 59.5 c 128,-1,27
 345 72 345 72 358 88 c 128,-1,28
 371 104 371 104 378 134 c 0,29,30
 386 174 386 174 386 238 c 0,31,32
 386 357 386 357 366 399 c 128,-1,33
 346 441 346 441 266 441 c 128,-1,34
 186 441 186 441 137 385 c 1,35,-1
 137 67 l 1,24,25
EndSplineSet
EndChar

StartChar: c
Encoding: 99 99 70
Width: 451
GlyphClass: 2
Flags: W
LayerCount: 2
Fore
SplineSet
211 490 m 128,-1,1
 247 501 247 501 292.5 501 c 128,-1,2
 338 501 338 501 393 482 c 1,3,-1
 385 438 l 1,4,5
 330 449 330 449 297 449 c 0,6,7
 211 449 211 449 166 404.5 c 128,-1,8
 121 360 121 360 121 245 c 0,9,10
 121 43 121 43 285 43 c 0,11,12
 336 43 336 43 394 79 c 1,13,-1
 421 37 l 1,14,15
 356 -10 356 -10 269 -10 c 0,16,17
 224 -10 224 -10 190.5 -1 c 128,-1,18
 157 8 157 8 124 33 c 0,19,20
 54 85 54 85 54 245 c 0,21,22
 54 320 54 320 77 373.5 c 128,-1,23
 100 427 100 427 137.5 453 c 128,-1,0
 175 479 175 479 211 490 c 128,-1,1
EndSplineSet
EndChar

StartChar: d
Encoding: 100 100 71
Width: 516
GlyphClass: 2
Flags: W
LayerCount: 2
Fore
SplineSet
324 11.5 m 128,-1,1
 285 -10 285 -10 235 -10 c 128,-1,2
 185 -10 185 -10 146.5 8.5 c 128,-1,3
 108 27 108 27 89 64 c 0,4,5
 55 129 55 129 55 238 c 0,6,7
 55 307 55 307 72 358.5 c 128,-1,8
 89 410 89 410 112.5 436.5 c 128,-1,9
 136 463 136 463 166 479 c 0,10,11
 209 502 209 502 251 502 c 128,-1,12
 293 502 293 502 372 466 c 1,13,-1
 372 736 l 1,14,-1
 434 736 l 1,15,-1
 434 127 l 1,16,-1
 458 0 l 1,17,-1
 417 0 l 1,18,-1
 413 3 l 1,19,-1
 389 61 l 1,20,0
 363 33 363 33 324 11.5 c 128,-1,1
123 241 m 128,-1,22
 123 133 123 133 143 91 c 128,-1,23
 163 49 163 49 242.5 49 c 128,-1,24
 322 49 322 49 372 105 c 1,25,-1
 372 423 l 1,26,27
 322 443 322 443 248 443 c 128,-1,28
 174 443 174 443 148.5 396 c 128,-1,21
 123 349 123 349 123 241 c 128,-1,22
EndSplineSet
EndChar

StartChar: e
Encoding: 101 101 72
Width: 492
GlyphClass: 2
Flags: W
LayerCount: 2
Fore
SplineSet
440 321 m 0,0,1
 440 285 440 285 434 246 c 1,2,-1
 120 246 l 1,3,4
 124 136 124 136 157 94.5 c 128,-1,5
 190 53 190 53 274 53 c 0,6,7
 337 53 337 53 421 80 c 1,8,-1
 427 30 l 1,9,10
 404 21 404 21 391.5 17.5 c 128,-1,11
 379 14 379 14 365 9.5 c 128,-1,12
 351 5 351 5 344 3 c 128,-1,13
 337 1 337 1 324 -2 c 128,-1,14
 311 -5 311 -5 302 -6 c 0,15,16
 275 -9 275 -9 256 -9 c 0,17,18
 162 -9 162 -9 108 57 c 128,-1,19
 54 123 54 123 54 241 c 0,20,21
 54 306 54 306 70 355.5 c 128,-1,22
 86 405 86 405 108 431.5 c 128,-1,23
 130 458 130 458 161 474 c 0,24,25
 207 499 207 499 261 501 c 1,26,27
 440 500 440 500 440 321 c 0,0,1
377 337 m 0,28,29
 377 397 377 397 347 421 c 128,-1,30
 317 445 317 445 258 445 c 128,-1,31
 199 445 199 445 161 413.5 c 128,-1,32
 123 382 123 382 122 297 c 1,33,-1
 374 297 l 1,34,35
 377 320 377 320 377 337 c 0,28,29
EndSplineSet
EndChar

StartChar: f
Encoding: 102 102 73
Width: 297
GlyphClass: 2
Flags: W
LayerCount: 2
Fore
SplineSet
153 500 m 2,0,1
 153 492 153 492 195.5 492 c 128,-1,2
 238 492 238 492 256 492.5 c 128,-1,3
 274 493 274 493 279 493 c 1,4,-1
 270 444 l 1,5,-1
 161 444 l 2,6,7
 153 444 153 444 153 440 c 2,8,-1
 153 -74 l 1,9,-1
 118 -198 l 1,10,-1
 115 -201 l 1,11,-1
 69 -201 l 1,12,-1
 91 -74 l 1,13,-1
 91 438 l 2,14,15
 91 443 91 443 78 443 c 2,16,-1
 44 443 l 1,17,-1
 45 472 l 1,18,19
 86 491 86 491 91 493 c 1,20,-1
 91 494 l 1,21,-1
 90 572 l 2,22,23
 90 624 90 624 111 659.5 c 128,-1,24
 132 695 132 695 162 710 c 1,25,26
 219 736 219 736 269 736 c 0,27,28
 272 736 272 736 275 736 c 2,29,-1
 296 735 l 1,30,-1
 285 686 l 2,31,32
 284 684 284 684 275.5 685.5 c 128,-1,33
 267 687 267 687 259.5 687 c 128,-1,34
 252 687 252 687 235 681.5 c 128,-1,35
 218 676 218 676 199 667 c 128,-1,36
 180 658 180 658 166.5 633 c 128,-1,37
 153 608 153 608 153 572 c 2,38,-1
 153 500 l 2,0,1
EndSplineSet
EndChar

StartChar: g
Encoding: 103 103 74
Width: 501
GlyphClass: 2
Flags: W
LayerCount: 2
Fore
SplineSet
407 342 m 0,0,1
 407 264 407 264 361.5 218.5 c 128,-1,2
 316 173 316 173 238 173 c 0,3,4
 214 173 214 173 175 180 c 1,5,-1
 119 102 l 1,6,-1
 370 103 l 2,7,8
 420 103 420 103 447 65.5 c 128,-1,9
 474 28 474 28 474 -31 c 0,10,11
 474 -114 474 -114 408.5 -158 c 128,-1,12
 343 -202 343 -202 243 -202 c 128,-1,13
 143 -202 143 -202 95.5 -167.5 c 128,-1,14
 48 -133 48 -133 48 -58 c 1,15,-1
 143 40 l 1,16,17
 88 40 88 40 70.5 55 c 128,-1,18
 53 70 53 70 53 102 c 1,19,20
 94 148 94 148 131 197 c 1,21,22
 94 225 94 225 82 258.5 c 128,-1,23
 70 292 70 292 70 344 c 0,24,25
 70 421 70 421 118 465 c 128,-1,26
 166 509 166 509 244 509 c 0,27,28
 296 509 296 509 338 487 c 1,29,-1
 449 486 l 1,30,-1
 436 434 l 1,31,-1
 379 433 l 1,32,33
 407 387 407 387 407 342 c 0,0,1
303 -149.5 m 128,-1,35
 322 -148 322 -148 343.5 -141.5 c 128,-1,36
 365 -135 365 -135 378 -124 c 0,37,38
 409 -99 409 -99 408.5 -42.5 c 128,-1,39
 408 14 408 14 395.5 27.5 c 128,-1,40
 383 41 383 41 331 41 c 2,41,-1
 196 41 l 1,42,-1
 114 -68 l 1,43,44
 114 -123 114 -123 157 -139 c 0,45,46
 190 -151 190 -151 237 -151 c 128,-1,34
 284 -151 284 -151 303 -149.5 c 128,-1,35
238 223 m 0,47,48
 348 223 348 223 348 339 c 0,49,50
 348 405 348 405 321.5 431.5 c 128,-1,51
 295 458 295 458 240 458 c 128,-1,52
 185 458 185 458 158 430.5 c 128,-1,53
 131 403 131 403 130 338 c 1,54,55
 130 223 130 223 238 223 c 0,47,48
EndSplineSet
EndChar

StartChar: h
Encoding: 104 104 75
Width: 520
GlyphClass: 2
Flags: W
LayerCount: 2
Fore
SplineSet
142 0 m 1,0,-1
 78 0 l 1,1,-1
 78 736 l 1,2,-1
 142 736 l 1,3,-1
 142 445 l 1,4,5
 187 475 187 475 221.5 489 c 128,-1,6
 256 503 256 503 300 503 c 0,7,8
 445 503 445 503 445 352 c 2,9,-1
 445 0 l 1,10,-1
 380 0 l 1,11,-1
 380 352 l 1,12,13
 379 443 379 443 276 443 c 0,14,15
 232 443 232 443 190 423.5 c 128,-1,16
 148 404 148 404 142 387 c 1,17,-1
 142 0 l 1,0,-1
EndSplineSet
EndChar

StartChar: i
Encoding: 105 105 76
Width: 218
GlyphClass: 2
Flags: W
LayerCount: 2
Fore
SplineSet
78 492 m 1,0,-1
 140 492 l 1,1,-1
 140 0 l 1,2,-1
 78 0 l 1,3,-1
 78 492 l 1,0,-1
74 657 m 1,4,-1
 144 657 l 1,5,-1
 144 585 l 1,6,-1
 74 585 l 1,7,-1
 74 657 l 1,4,-1
EndSplineSet
Substitution2: "'ss01' Style Set 1 lookup 1 subtable" i.alt
Substitution2: "'aalt' Access All Alternates lookup 0 subtable" i.alt
EndChar

StartChar: j
Encoding: 106 106 77
Width: 217
GlyphClass: 2
Flags: W
LayerCount: 2
Fore
SplineSet
74 657 m 1,0,-1
 144 657 l 1,1,-1
 144 585 l 1,2,-1
 74 585 l 1,3,-1
 74 657 l 1,0,-1
78 492 m 1,4,-1
 139 492 l 1,5,-1
 139 -39 l 2,6,7
 139 -123 139 -123 86.5 -158 c 128,-1,8
 34 -193 34 -193 -64 -202 c 1,9,-1
 -56 -156 l 1,10,11
 36 -136 36 -136 60 -106 c 0,12,13
 72 -90 72 -90 75 -76.5 c 128,-1,14
 78 -63 78 -63 78 -39 c 2,15,-1
 78 492 l 1,4,-1
EndSplineSet
EndChar

StartChar: k
Encoding: 107 107 78
Width: 485
GlyphClass: 2
Flags: W
LayerCount: 2
Fore
SplineSet
140 0 m 1,0,-1
 78 0 l 1,1,-1
 78 736 l 1,2,-1
 140 736 l 1,3,-1
 140 292 l 1,4,-1
 314 492 l 1,5,-1
 389 492 l 1,6,-1
 218 296 l 1,7,-1
 477 0 l 1,8,-1
 397 0 l 1,9,-1
 178 251 l 1,10,-1
 140 207 l 1,11,-1
 140 0 l 1,0,-1
EndSplineSet
EndChar

StartChar: l
Encoding: 108 108 79
Width: 218
GlyphClass: 2
Flags: W
LayerCount: 2
Fore
SplineSet
74 736 m 1,0,-1
 136 736 l 1,1,-1
 136 119 l 1,2,-1
 161 -9 l 1,3,-1
 115 -9 l 1,4,-1
 111 -5 l 1,5,-1
 74 119 l 1,6,-1
 74 736 l 1,0,-1
EndSplineSet
EndChar

StartChar: m
Encoding: 109 109 80
Width: 789
GlyphClass: 2
Flags: W
LayerCount: 2
Fore
SplineSet
429 0 m 1,0,-1
 364 0 l 1,1,-1
 364 352 l 1,2,3
 362 404 362 404 344.5 423.5 c 128,-1,4
 327 443 327 443 280 443 c 128,-1,5
 233 443 233 443 192.5 423.5 c 128,-1,6
 152 404 152 404 145 387 c 1,7,-1
 145 0 l 1,8,-1
 81 0 l 1,9,-1
 81 365 l 1,10,-1
 64 487 l 1,11,-1
 111 487 l 1,12,-1
 114 484 l 1,13,-1
 129 434 l 1,14,15
 167 459 167 459 185.5 470 c 128,-1,16
 204 481 204 481 237 492 c 128,-1,17
 270 503 270 503 304 503 c 0,18,19
 388 503 388 503 416 436 c 1,20,21
 452 460 452 460 472 471 c 0,22,23
 528 503 528 503 588 503 c 128,-1,24
 648 503 648 503 680.5 469 c 128,-1,25
 713 435 713 435 714 352 c 1,26,-1
 714 0 l 1,27,-1
 649 0 l 1,28,-1
 649 352 l 1,29,30
 647 404 647 404 629.5 423.5 c 128,-1,31
 612 443 612 443 564.5 443 c 128,-1,32
 517 443 517 443 477 423.5 c 128,-1,33
 437 404 437 404 429 387 c 1,34,-1
 429 0 l 1,0,-1
EndSplineSet
EndChar

StartChar: n
Encoding: 110 110 81
Width: 524
GlyphClass: 2
Flags: W
LayerCount: 2
Fore
SplineSet
449 0 m 1,0,-1
 384 0 l 1,1,-1
 384 352 l 1,2,3
 383 401 383 401 356.5 422 c 128,-1,4
 330 443 330 443 281.5 443 c 128,-1,5
 233 443 233 443 192.5 424 c 128,-1,6
 152 405 152 405 145 388 c 1,7,-1
 145 0 l 1,8,-1
 81 0 l 1,9,-1
 81 365 l 1,10,-1
 64 487 l 1,11,-1
 107 487 l 1,12,-1
 110 485 l 1,13,-1
 129 434 l 1,14,15
 164 458 164 458 186 470 c 1,16,17
 241 503 241 503 306 503 c 0,18,19
 446 503 446 503 449 352 c 1,20,-1
 449 0 l 1,0,-1
EndSplineSet
EndChar

StartChar: o
Encoding: 111 111 82
Width: 526
GlyphClass: 2
Flags: W
LayerCount: 2
Fore
SplineSet
312.5 439 m 128,-1,1
 291 444 291 444 253 444 c 128,-1,2
 215 444 215 444 186.5 431.5 c 128,-1,3
 158 419 158 419 144.5 389.5 c 128,-1,4
 131 360 131 360 127 329.5 c 128,-1,5
 123 299 123 299 123 246 c 0,6,7
 123 133 123 133 148.5 90 c 128,-1,8
 174 47 174 47 261 47 c 0,9,10
 308 47 308 47 337 59 c 128,-1,11
 366 71 366 71 380 99.5 c 128,-1,12
 394 128 394 128 398 159.5 c 128,-1,13
 402 191 402 191 402 234.5 c 128,-1,14
 402 278 402 278 401.5 296.5 c 128,-1,15
 401 315 401 315 398 339.5 c 128,-1,16
 395 364 395 364 389.5 377 c 128,-1,17
 384 390 384 390 374 405 c 128,-1,18
 364 420 364 420 349 427 c 128,-1,0
 334 434 334 434 312.5 439 c 128,-1,1
385 479.5 m 128,-1,20
 428 459 428 459 449 404 c 128,-1,21
 470 349 470 349 470 262 c 128,-1,22
 470 175 470 175 451.5 123 c 128,-1,23
 433 71 433 71 402 43 c 0,24,25
 342 -11 342 -11 262 -11 c 0,26,27
 145 -11 145 -11 100 44 c 128,-1,28
 55 99 55 99 55 245 c 0,29,30
 55 315 55 315 74 367 c 128,-1,31
 93 419 93 419 125 446 c 0,32,33
 187 500 187 500 264.5 500 c 128,-1,19
 342 500 342 500 385 479.5 c 128,-1,20
EndSplineSet
EndChar

StartChar: p
Encoding: 112 112 83
Width: 513
GlyphClass: 2
Flags: W
LayerCount: 2
Fore
SplineSet
270 501 m 0,0,1
 386 501 386 501 425 428 c 0,2,3
 444 392 444 392 451 351.5 c 128,-1,4
 458 311 458 311 458 247.5 c 128,-1,5
 458 184 458 184 441 132.5 c 128,-1,6
 424 81 424 81 401 55 c 128,-1,7
 378 29 378 29 348 13 c 0,8,9
 305 -10 305 -10 265.5 -10 c 128,-1,10
 226 -10 226 -10 143 25 c 1,11,-1
 143 -201 l 1,12,-1
 81 -201 l 1,13,-1
 81 365 l 1,14,-1
 64 486 l 1,15,-1
 105 486 l 1,16,-1
 108 483 l 1,17,-1
 126 432 l 1,18,19
 191 501 191 501 270 501 c 0,0,1
143 68 m 1,20,21
 197 49 197 49 248.5 49 c 128,-1,22
 300 49 300 49 325.5 61.5 c 128,-1,23
 351 74 351 74 363.5 89.5 c 128,-1,24
 376 105 376 105 382.5 136 c 128,-1,25
 389 167 389 167 389.5 185 c 128,-1,26
 390 203 390 203 390 246.5 c 128,-1,27
 390 290 390 290 388.5 316.5 c 128,-1,28
 387 343 387 343 381.5 371.5 c 128,-1,29
 376 400 376 400 364 412 c 0,30,31
 334 442 334 442 275 442 c 0,32,33
 191 442 191 442 143 387 c 1,34,-1
 143 68 l 1,20,21
EndSplineSet
EndChar

StartChar: q
Encoding: 113 113 84
Width: 508
GlyphClass: 2
Flags: W
LayerCount: 2
Fore
SplineSet
432 -201 m 1,0,-1
 370 -201 l 1,1,-1
 370 42 l 1,2,3
 311 -10 311 -10 247 -10 c 128,-1,4
 183 -10 183 -10 145 8.5 c 128,-1,5
 107 27 107 27 88 64 c 0,6,7
 55 127 55 127 55 238 c 0,8,9
 55 307 55 307 72 358.5 c 128,-1,10
 89 410 89 410 112 436.5 c 128,-1,11
 135 463 135 463 165 478 c 0,12,13
 209 501 209 501 249 501 c 0,14,15
 330 501 330 501 432 448 c 1,16,-1
 432 -201 l 1,0,-1
370 423 m 1,17,18
 311 442 311 442 265.5 442 c 128,-1,19
 220 442 220 442 196.5 434.5 c 128,-1,20
 173 427 173 427 159 411 c 128,-1,21
 145 395 145 395 136.5 380 c 128,-1,22
 128 365 128 365 125 339 c 0,23,24
 120 296 120 296 120 249.5 c 128,-1,25
 120 203 120 203 121.5 175 c 128,-1,26
 123 147 123 147 129.5 119.5 c 128,-1,27
 136 92 136 92 149 78 c 0,28,29
 177 49 177 49 238 49 c 0,30,31
 321 49 321 49 370 105 c 1,32,-1
 370 423 l 1,17,18
EndSplineSet
EndChar

StartChar: r
Encoding: 114 114 85
Width: 341
GlyphClass: 2
Flags: W
LayerCount: 2
Fore
SplineSet
283 500 m 0,0,1
 303 500 303 500 327 494 c 1,2,-1
 303 435 l 1,3,4
 287 438 287 438 271 438 c 0,5,6
 208 438 208 438 143 368 c 1,7,-1
 143 0 l 1,8,-1
 81 0 l 1,9,-1
 81 364 l 1,10,-1
 64 486 l 1,11,-1
 102 486 l 1,12,-1
 105 484 l 1,13,-1
 124 413 l 1,14,15
 168 456 168 456 204 478 c 128,-1,16
 240 500 240 500 283 500 c 0,0,1
EndSplineSet
EndChar

StartChar: s
Encoding: 115 115 86
Width: 418
GlyphClass: 2
Flags: W
LayerCount: 2
Fore
SplineSet
59 68 m 1,0,1
 121 44 121 44 175 44 c 128,-1,2
 229 44 229 44 267.5 66.5 c 128,-1,3
 306 89 306 89 306 126 c 128,-1,4
 306 163 306 163 280 185.5 c 128,-1,5
 254 208 254 208 217 222 c 128,-1,6
 180 236 180 236 143.5 251.5 c 128,-1,7
 107 267 107 267 81 295.5 c 128,-1,8
 55 324 55 324 55 366 c 0,9,10
 55 432 55 432 101 467.5 c 128,-1,11
 147 503 147 503 216.5 503 c 128,-1,12
 286 503 286 503 350 480 c 1,13,-1
 337 434 l 1,14,15
 287 451 287 451 224 451 c 0,16,17
 120 451 120 451 120 370 c 0,18,19
 120 318 120 318 210 284 c 0,20,21
 248 270 248 270 285.5 253.5 c 128,-1,22
 323 237 323 237 349.5 206 c 128,-1,23
 376 175 376 175 376 131 c 0,24,25
 376 64 376 64 318 28 c 128,-1,26
 260 -8 260 -8 184 -8 c 128,-1,27
 108 -8 108 -8 44 19 c 1,28,-1
 59 68 l 1,0,1
EndSplineSet
EndChar

StartChar: t
Encoding: 116 116 87
Width: 275
GlyphClass: 2
Flags: W
LayerCount: 2
Fore
SplineSet
88 440 m 2,0,1
 88 445 88 445 83 445 c 2,2,-1
 43 445 l 1,3,-1
 43 474 l 1,4,-1
 89 493 l 1,5,-1
 100 581 l 1,6,-1
 151 581 l 1,7,-1
 151 501 l 1,8,9
 154 494 154 494 192 494 c 2,10,-1
 251 494 l 1,11,-1
 243 447 l 1,12,-1
 159 446 l 2,13,14
 150 446 150 446 150 442 c 2,15,-1
 150 126 l 1,16,-1
 176 -4 l 1,17,-1
 132 -4 l 1,18,-1
 128 -1 l 1,19,-1
 88 126 l 1,20,-1
 88 440 l 2,0,1
EndSplineSet
EndChar

StartChar: u
Encoding: 117 117 88
Width: 524
GlyphClass: 2
Flags: W
LayerCount: 2
Fore
SplineSet
75 492 m 1,0,-1
 140 492 l 1,1,-1
 140 141 l 1,2,3
 141 91 141 91 167.5 71 c 128,-1,4
 194 51 194 51 244.5 51 c 128,-1,5
 295 51 295 51 333.5 70 c 128,-1,6
 372 89 372 89 379 106 c 1,7,-1
 379 492 l 1,8,-1
 443 492 l 1,9,-1
 443 129 l 1,10,-1
 461 0 l 1,11,-1
 419 0 l 1,12,-1
 416 3 l 1,13,-1
 395 59 l 1,14,15
 356 33 356 33 339 22.5 c 128,-1,16
 322 12 322 12 289.5 1.5 c 128,-1,17
 257 -9 257 -9 221 -9 c 0,18,19
 78 -9 78 -9 75 142 c 1,20,-1
 75 492 l 1,0,-1
EndSplineSet
EndChar

StartChar: v
Encoding: 118 118 89
Width: 497
GlyphClass: 2
Flags: W
LayerCount: 2
Fore
SplineSet
27 492 m 1,0,-1
 96 492 l 1,1,-1
 230 114 l 1,2,-1
 247 61 l 1,3,-1
 250 61 l 1,4,-1
 265 114 l 1,5,-1
 400 492 l 1,6,-1
 469 492 l 1,7,-1
 287 5 l 1,8,-1
 283 0 l 1,9,-1
 214 0 l 1,10,-1
 210 5 l 1,11,-1
 27 492 l 1,0,-1
EndSplineSet
EndChar

StartChar: w
Encoding: 119 119 90
Width: 753
GlyphClass: 2
Flags: W
LayerCount: 2
Fore
SplineSet
341 492 m 1,0,-1
 412 492 l 1,1,-1
 523 104 l 1,2,-1
 530 65 l 1,3,-1
 532 65 l 1,4,-1
 539 104 l 1,5,-1
 652 492 l 1,6,-1
 722 492 l 1,7,-1
 566 0 l 1,8,-1
 497 0 l 1,9,-1
 387 374 l 1,10,-1
 378 422 l 1,11,-1
 375 422 l 1,12,-1
 366 374 l 1,13,-1
 255 0 l 1,14,-1
 186 0 l 1,15,-1
 32 492 l 1,16,-1
 102 492 l 1,17,-1
 213 104 l 1,18,-1
 219 65 l 1,19,-1
 222 65 l 1,20,-1
 228 104 l 1,21,-1
 341 492 l 1,0,-1
EndSplineSet
EndChar

StartChar: x
Encoding: 120 120 91
Width: 461
GlyphClass: 2
Flags: W
LayerCount: 2
Fore
SplineSet
38 492 m 1,0,-1
 112 492 l 1,1,-1
 230 304 l 1,2,-1
 348 492 l 1,3,-1
 422 492 l 1,4,-1
 264 257 l 1,5,-1
 437 0 l 1,6,-1
 365 0 l 1,7,-1
 230 211 l 1,8,-1
 95 0 l 1,9,-1
 24 0 l 1,10,-1
 196 257 l 1,11,-1
 38 492 l 1,0,-1
EndSplineSet
EndChar

StartChar: y
Encoding: 121 121 92
Width: 497
GlyphClass: 2
Flags: W
LayerCount: 2
Fore
SplineSet
19 -144 m 1,0,1
 55 -154 55 -154 80 -154 c 0,2,3
 159 -152 159 -152 186 -81 c 2,4,-1
 216 -1 l 1,5,-1
 25 492 l 1,6,-1
 97 492 l 1,7,-1
 249 70 l 1,8,-1
 398 492 l 1,9,-1
 468 492 l 1,10,-1
 248 -101 l 1,11,12
 207 -202 207 -202 98 -202 c 0,13,14
 52 -202 52 -202 -4 -184 c 1,15,-1
 19 -144 l 1,0,1
EndSplineSet
EndChar

StartChar: z
Encoding: 122 122 93
Width: 461
GlyphClass: 2
Flags: W
LayerCount: 2
Fore
SplineSet
407 492 m 1,0,-1
 407 438 l 1,1,-1
 125 71 l 1,2,-1
 110 56 l 1,3,-1
 424 56 l 1,4,-1
 405 0 l 1,5,-1
 37 0 l 1,6,-1
 37 55 l 1,7,-1
 322 422 l 1,8,-1
 337 437 l 1,9,-1
 58 437 l 1,10,-1
 58 492 l 1,11,-1
 407 492 l 1,0,-1
EndSplineSet
EndChar

StartChar: braceleft
Encoding: 123 123 94
Width: 266
GlyphClass: 2
Flags: W
LayerCount: 2
Fore
SplineSet
170 563 m 1,0,-1
 171 371 l 2,1,2
 171 348 171 348 162 335 c 128,-1,3
 153 322 153 322 147.5 315 c 128,-1,4
 142 308 142 308 134 302 c 128,-1,5
 126 296 126 296 121 292 c 0,6,7
 106 280 106 280 103 280 c 1,8,9
 100 278 100 278 100 271 c 128,-1,10
 100 264 100 264 103 262 c 0,11,12
 142 238 142 238 152 223 c 0,13,14
 171 196 171 196 171 171 c 0,15,16
 171 43 171 43 170 -21 c 1,17,-1
 173 -97 l 1,18,19
 187 -126 187 -126 214 -163 c 1,20,-1
 188 -186 l 1,21,22
 181 -180 181 -180 167.5 -169 c 128,-1,23
 154 -158 154 -158 150.5 -154.5 c 128,-1,24
 147 -151 147 -151 137.5 -142.5 c 128,-1,25
 128 -134 128 -134 126.5 -130.5 c 128,-1,26
 125 -127 125 -127 119 -119.5 c 128,-1,27
 113 -112 113 -112 112.5 -106 c 128,-1,28
 112 -100 112 -100 109 -91 c 128,-1,29
 106 -82 106 -82 106 -72 c 2,30,-1
 105 -20 l 1,31,-1
 105 184 l 2,32,33
 105 188 105 188 82.5 213.5 c 128,-1,34
 60 239 60 239 44 254 c 1,35,36
 42 261 42 261 42 273 c 128,-1,37
 42 285 42 285 43 288 c 1,38,39
 105 350 105 350 105 358 c 2,40,-1
 105 561 l 1,41,-1
 106 614 l 2,42,43
 106 624 106 624 109 632.5 c 128,-1,44
 112 641 112 641 112.5 647.5 c 128,-1,45
 113 654 113 654 119 661.5 c 128,-1,46
 125 669 125 669 126.5 672.5 c 128,-1,47
 128 676 128 676 137.5 684.5 c 128,-1,48
 147 693 147 693 150.5 696 c 128,-1,49
 154 699 154 699 168 710.5 c 128,-1,50
 182 722 182 722 188 727 c 1,51,-1
 214 704 l 1,52,53
 187 670 187 670 173 639 c 1,54,-1
 170 563 l 1,0,-1
EndSplineSet
EndChar

StartChar: bar
Encoding: 124 124 95
Width: 246
GlyphClass: 2
Flags: W
LayerCount: 2
Fore
SplineSet
91 682 m 1,0,-1
 155 682 l 1,1,-1
 154 -44 l 1,2,-1
 91 -44 l 1,3,-1
 91 682 l 1,0,-1
EndSplineSet
EndChar

StartChar: braceright
Encoding: 125 125 96
Width: 266
GlyphClass: 2
Flags: W
LayerCount: 2
Fore
SplineSet
161 -20 m 1,0,-1
 160 -72 l 2,1,2
 160 -82 160 -82 157 -91 c 128,-1,3
 154 -100 154 -100 153.5 -106 c 128,-1,4
 153 -112 153 -112 147 -119.5 c 128,-1,5
 141 -127 141 -127 139.5 -130.5 c 128,-1,6
 138 -134 138 -134 128.5 -142.5 c 128,-1,7
 119 -151 119 -151 115.5 -154.5 c 128,-1,8
 112 -158 112 -158 98.5 -169 c 128,-1,9
 85 -180 85 -180 78 -186 c 1,10,-1
 52 -163 l 1,11,12
 79 -126 79 -126 93 -97 c 1,13,-1
 96 -21 l 1,14,15
 95 43 95 43 95 171 c 0,16,17
 95 220 95 220 155 257 c 2,18,-1
 163 262 l 2,19,20
 166 264 166 264 166 271 c 128,-1,21
 166 278 166 278 163 280 c 1,22,23
 160 280 160 280 150 288 c 128,-1,24
 140 296 140 296 132 302 c 128,-1,25
 124 308 124 308 118.5 315 c 128,-1,26
 113 322 113 322 107 330 c 0,27,28
 95 348 95 348 95 371 c 2,29,-1
 96 563 l 1,30,-1
 93 639 l 1,31,32
 79 670 79 670 52 704 c 1,33,-1
 78 727 l 1,34,35
 84 722 84 722 98 710.5 c 128,-1,36
 112 699 112 699 115.5 696 c 128,-1,37
 119 693 119 693 128.5 684.5 c 128,-1,38
 138 676 138 676 139.5 672.5 c 128,-1,39
 141 669 141 669 147 661.5 c 128,-1,40
 153 654 153 654 153.5 647.5 c 128,-1,41
 154 641 154 641 157 632.5 c 128,-1,42
 160 624 160 624 160 614 c 2,43,-1
 161 561 l 1,44,-1
 161 358 l 2,45,46
 161 350 161 350 223 288 c 1,47,48
 224 285 224 285 224 280 c 0,49,50
 224 261 224 261 222 254 c 1,51,52
 206 239 206 239 183.5 213.5 c 128,-1,53
 161 188 161 188 161 184 c 2,54,-1
 161 -20 l 1,0,-1
EndSplineSet
EndChar

StartChar: asciitilde
Encoding: 126 126 97
Width: 500
GlyphClass: 2
Flags: W
LayerCount: 2
Fore
SplineSet
382 246 m 2,0,1
 363 231 363 231 353.5 229 c 128,-1,2
 344 227 344 227 335 227 c 128,-1,3
 326 227 326 227 310 230 c 2,4,-1
 165 253 l 1,5,-1
 90 221 l 1,6,-1
 72 249 l 1,7,-1
 114 290 l 1,8,9
 135 307 135 307 143.5 310 c 128,-1,10
 152 313 152 313 161 313 c 128,-1,11
 170 313 170 313 182 311 c 2,12,-1
 337 285 l 1,13,-1
 411 320 l 1,14,-1
 429 285 l 1,15,-1
 382 246 l 2,0,1
EndSplineSet
EndChar

StartChar: exclamdown
Encoding: 161 161 99
Width: 237
GlyphClass: 2
Flags: W
LayerCount: 2
Fore
SplineSet
96 355 m 1,0,-1
 141 355 l 1,1,-1
 151 121 l 1,2,-1
 156 -170 l 1,3,-1
 81 -170 l 1,4,-1
 86 121 l 1,5,-1
 96 355 l 1,0,-1
82 500 m 1,6,-1
 154 500 l 1,7,-1
 154 426 l 1,8,-1
 82 426 l 1,9,-1
 82 500 l 1,6,-1
EndSplineSet
EndChar

StartChar: cent
Encoding: 162 162 100
Width: 466
GlyphClass: 2
Flags: W
LayerCount: 2
Fore
SplineSet
238 -15 m 1,0,-1
 238 80 l 1,1,2
 162 86 162 86 112 134 c 0,3,4
 56 188 56 188 56 334 c 0,5,6
 56 461 56 461 116 521 c 0,7,8
 169 574 169 574 238 586 c 1,9,-1
 238 684 l 1,10,-1
 292 684 l 1,11,-1
 292 590 l 1,12,13
 340 589 340 589 393 571 c 1,14,-1
 385 527 l 1,15,16
 330 538 330 538 297 538 c 0,17,18
 211 538 211 538 166 493.5 c 128,-1,19
 121 449 121 449 121 334 c 0,20,21
 121 132 121 132 285 132 c 0,22,23
 336 132 336 132 394 168 c 1,24,-1
 421 126 l 1,25,26
 363 84 363 84 292 79 c 1,27,-1
 292 -15 l 1,28,-1
 238 -15 l 1,0,-1
EndSplineSet
EndChar

StartChar: sterling
Encoding: 163 163 101
Width: 514
GlyphClass: 2
Flags: W
LayerCount: 2
Fore
SplineSet
52 274 m 1,0,-1
 52 324 l 1,1,-1
 128 324 l 1,2,3
 125 337 125 337 119 361.5 c 128,-1,4
 113 386 113 386 110 400 c 0,5,6
 101 440 101 440 101 459 c 0,7,8
 101 555 101 555 151.5 602 c 128,-1,9
 202 649 202 649 283.5 649 c 128,-1,10
 365 649 365 649 442 618 c 1,11,-1
 423 567 l 1,12,13
 363 594 363 594 291 594 c 128,-1,14
 219 594 219 594 194 567 c 128,-1,15
 169 540 169 540 169 465 c 0,16,17
 169 430 169 430 174 407 c 2,18,-1
 186 359 l 2,19,20
 192 334 192 334 194 324 c 1,21,-1
 320 324 l 1,22,-1
 320 274 l 1,23,-1
 204 274 l 1,24,25
 207 251 207 251 207 229 c 0,26,27
 207 138 207 138 154 56 c 1,28,-1
 465 56 l 1,29,-1
 465 0 l 1,30,-1
 77 0 l 1,31,-1
 77 55 l 1,32,33
 142 112 142 112 142 217 c 0,34,35
 142 244 142 244 138 274 c 1,36,-1
 52 274 l 1,0,-1
EndSplineSet
EndChar

StartChar: currency
Encoding: 164 164 102
Width: 684
GlyphClass: 2
Flags: W
LayerCount: 2
Fore
SplineSet
141 124 m 1,0,1
 76 192 76 192 76 317 c 128,-1,2
 76 442 76 442 138 504 c 1,3,-1
 64 593 l 1,4,-1
 112 633 l 1,5,-1
 189 541 l 1,6,7
 249 570 249 570 339.5 570 c 128,-1,8
 430 570 430 570 490 539 c 1,9,-1
 570 633 l 1,10,-1
 618 593 l 1,11,-1
 542 502 l 1,12,13
 610 434 610 434 610 306.5 c 128,-1,14
 610 179 610 179 547 117 c 1,15,-1
 618 33 l 1,16,-1
 569 -8 l 1,17,-1
 494 80 l 1,18,19
 435 52 435 52 344.5 52 c 128,-1,20
 254 52 254 52 191 85 c 1,21,-1
 113 -8 l 1,22,-1
 64 33 l 1,23,-1
 141 124 l 1,0,1
341 108 m 0,24,25
 470 108 470 108 512 172 c 0,26,27
 532 204 532 204 539.5 236 c 128,-1,28
 547 268 547 268 547 309 c 128,-1,29
 547 350 547 350 538 383 c 128,-1,30
 529 416 529 416 508 447 c 0,31,32
 463 514 463 514 347.5 514 c 128,-1,33
 232 514 232 514 185 464 c 128,-1,34
 138 414 138 414 138 310.5 c 128,-1,35
 138 207 138 207 191.5 157.5 c 128,-1,36
 245 108 245 108 341 108 c 0,24,25
EndSplineSet
EndChar

StartChar: yen
Encoding: 165 165 103
Width: 546
GlyphClass: 2
Flags: W
LayerCount: 2
Fore
SplineSet
93 265 m 1,0,-1
 93 315 l 1,1,-1
 213 315 l 1,2,-1
 34 648 l 1,3,-1
 108 648 l 1,4,-1
 273 324 l 1,5,-1
 441 648 l 1,6,-1
 512 648 l 1,7,-1
 334 315 l 1,8,-1
 454 315 l 1,9,-1
 454 265 l 1,10,-1
 307 265 l 1,11,-1
 306 183 l 1,12,-1
 454 183 l 1,13,-1
 454 133 l 1,14,-1
 306 133 l 1,15,-1
 306 0 l 1,16,-1
 240 0 l 1,17,-1
 240 133 l 1,18,-1
 93 133 l 1,19,-1
 93 183 l 1,20,-1
 240 183 l 1,21,-1
 240 265 l 1,22,-1
 93 265 l 1,0,-1
EndSplineSet
EndChar

StartChar: brokenbar
Encoding: 166 166 104
Width: 245
GlyphClass: 2
Flags: W
LayerCount: 2
Fore
SplineSet
92 -44 m 1,0,-1
 92 242 l 1,1,-1
 153 242 l 1,2,-1
 153 -44 l 1,3,-1
 92 -44 l 1,0,-1
92 394 m 1,4,-1
 92 684 l 1,5,-1
 153 684 l 1,6,-1
 153 394 l 1,7,-1
 92 394 l 1,4,-1
EndSplineSet
EndChar

StartChar: section
Encoding: 167 167 105
Width: 495
GlyphClass: 2
Flags: W
LayerCount: 2
Fore
SplineSet
52 307 m 0,0,1
 52 394 52 394 139 463 c 1,2,3
 105 484 105 484 89.5 510 c 128,-1,4
 74 536 74 536 74 577 c 0,5,6
 74 647 74 647 124 691 c 128,-1,7
 174 735 174 735 257 735 c 0,8,9
 303 735 303 735 362 719 c 2,10,-1
 381 714 l 1,11,-1
 369 668 l 1,12,13
 322 684 322 684 276 684 c 0,14,15
 198 684 198 684 172 657.5 c 128,-1,16
 146 631 146 631 146 585 c 0,17,18
 146 563 146 563 152.5 547.5 c 128,-1,19
 159 532 159 532 178 519 c 0,20,21
 201 503 201 503 231 490 c 128,-1,22
 261 477 261 477 262.5 476 c 128,-1,23
 264 475 264 475 267 474 c 128,-1,24
 270 473 270 473 272 472 c 0,25,26
 365 433 365 433 395 409 c 0,27,28
 449 364 449 364 448 290 c 1,29,30
 445 205 445 205 361 138 c 1,31,32
 396 118 396 118 412 92 c 128,-1,33
 428 66 428 66 428 25 c 0,34,35
 428 -45 428 -45 378 -89 c 128,-1,36
 328 -133 328 -133 245 -133 c 0,37,38
 214 -133 214 -133 171 -123 c 128,-1,39
 128 -113 128 -113 100 -103 c 2,40,-1
 73 -93 l 1,41,-1
 87 -47 l 1,42,43
 180 -82 180 -82 223.5 -82 c 128,-1,44
 267 -82 267 -82 293.5 -74 c 128,-1,45
 320 -66 320 -66 332 -50 c 0,46,47
 351 -26 351 -26 351 7 c 128,-1,48
 351 40 351 40 344.5 56 c 128,-1,49
 338 72 338 72 316 86 c 0,50,51
 286 106 286 106 210.5 137.5 c 128,-1,52
 135 169 135 169 105 193 c 0,53,54
 52 236 52 236 52 307 c 0,0,1
128 315 m 0,55,56
 128 266 128 266 160 240 c 1,57,58
 186 221 186 221 214 207.5 c 128,-1,59
 242 194 242 194 315 162 c 1,60,61
 372 206 372 206 372 287 c 0,62,63
 372 336 372 336 340 362 c 1,64,65
 314 381 314 381 265 405 c 1,66,67
 202 432 202 432 184 440 c 1,68,69
 128 397 128 397 128 315 c 0,55,56
EndSplineSet
EndChar

StartChar: dieresis
Encoding: 168 168 106
Width: 550
GlyphClass: 2
Flags: W
LayerCount: 2
Fore
SplineSet
166 658 m 1,0,-1
 238 658 l 1,1,-1
 238 584 l 1,2,-1
 166 584 l 1,3,-1
 166 658 l 1,0,-1
312 658 m 1,4,-1
 384 658 l 1,5,-1
 384 584 l 1,6,-1
 312 584 l 1,7,-1
 312 658 l 1,4,-1
EndSplineSet
EndChar

StartChar: copyright
Encoding: 169 169 107
Width: 756
GlyphClass: 2
Flags: W
LayerCount: 2
Fore
SplineSet
389 494 m 0,0,1
 422 494 422 494 480 478 c 1,2,-1
 468 438 l 1,3,-1
 449 440 l 1,4,5
 411 448 411 448 391 448 c 0,6,7
 328 448 328 448 298.5 421.5 c 128,-1,8
 269 395 269 395 269 309 c 128,-1,9
 269 223 269 223 296 192.5 c 128,-1,10
 323 162 323 162 371 162 c 128,-1,11
 419 162 419 162 462 188 c 1,12,-1
 480 148 l 1,13,14
 434 116 434 116 368 116 c 0,15,16
 336 116 336 116 313 122 c 128,-1,17
 290 128 290 128 266 146 c 0,18,19
 218 183 218 183 218 305 c 0,20,21
 218 421 218 421 278 462 c 0,22,23
 326 494 326 494 389 494 c 0,0,1
602.5 528.5 m 128,-1,25
 696 435 696 435 696 303 c 128,-1,26
 696 171 696 171 605.5 78.5 c 128,-1,27
 515 -14 515 -14 381 -14 c 128,-1,28
 247 -14 247 -14 153.5 79.5 c 128,-1,29
 60 173 60 173 60 305 c 128,-1,30
 60 437 60 437 150.5 529.5 c 128,-1,31
 241 622 241 622 375 622 c 128,-1,24
 509 622 509 622 602.5 528.5 c 128,-1,25
569.5 109.5 m 128,-1,33
 639 184 639 184 639 299.5 c 128,-1,34
 639 415 639 415 563 492.5 c 128,-1,35
 487 570 487 570 371 570 c 128,-1,36
 255 570 255 570 185.5 496.5 c 128,-1,37
 116 423 116 423 116 307 c 128,-1,38
 116 191 116 191 192 113 c 128,-1,39
 268 35 268 35 384 35 c 128,-1,32
 500 35 500 35 569.5 109.5 c 128,-1,33
EndSplineSet
EndChar

StartChar: ordfeminine
Encoding: 170 170 108
Width: 351
GlyphClass: 2
Flags: W
LayerCount: 2
Fore
SplineSet
163 588 m 1,0,-1
 201 587 l 1,1,-1
 227 587 l 1,2,-1
 227 615 l 2,3,4
 227 647 227 647 215 659 c 128,-1,5
 203 671 203 671 181.5 671 c 128,-1,6
 160 671 160 671 114 663 c 1,7,-1
 74 657 l 1,8,-1
 68 699 l 1,9,-1
 94 705 l 1,10,11
 148 720 148 720 179 720 c 0,12,13
 230 720 230 720 259 688 c 1,14,-1
 259 689 l 1,15,16
 279 672 279 672 279 600 c 2,17,-1
 279 505 l 1,18,-1
 292 438 l 1,19,-1
 292 425 l 1,20,-1
 250 426 l 1,21,-1
 240 453 l 1,22,23
 185 423 185 423 141 422 c 128,-1,24
 97 421 97 421 75.5 442 c 128,-1,25
 54 463 54 463 54 507.5 c 128,-1,26
 54 552 54 552 82.5 570 c 128,-1,27
 111 588 111 588 163 588 c 1,0,-1
174 544 m 128,-1,29
 132 544 132 544 119.5 536.5 c 128,-1,30
 107 529 107 529 107 507 c 128,-1,31
 107 485 107 485 114.5 478 c 128,-1,32
 122 471 122 471 142.5 471 c 128,-1,33
 163 471 163 471 190.5 477.5 c 128,-1,34
 218 484 218 484 227 494 c 1,35,-1
 227 543 l 1,36,28
 216 544 216 544 174 544 c 128,-1,29
EndSplineSet
EndChar

StartChar: guillemotleft
Encoding: 171 171 109
Width: 490
GlyphClass: 2
Flags: W
LayerCount: 2
Fore
SplineSet
115 279.5 m 128,-1,1
 115 266 115 266 138 243 c 2,2,-1
 249 126 l 1,3,-1
 208 88 l 1,4,-1
 46 261 l 1,5,-1
 46 299 l 1,6,-1
 207 471 l 1,7,-1
 249 435 l 1,8,-1
 138 316 l 1,9,0
 115 293 115 293 115 279.5 c 128,-1,1
301 279.5 m 128,-1,11
 301 266 301 266 324 243 c 2,12,-1
 435 126 l 1,13,-1
 394 88 l 1,14,-1
 232 261 l 1,15,-1
 232 299 l 1,16,-1
 393 471 l 1,17,-1
 435 435 l 1,18,-1
 324 316 l 1,19,10
 301 293 301 293 301 279.5 c 128,-1,11
EndSplineSet
EndChar

StartChar: logicalnot
Encoding: 172 172 110
Width: 525
GlyphClass: 2
Flags: W
LayerCount: 2
Fore
SplineSet
66 384 m 1,0,-1
 66 443 l 1,1,-1
 447 443 l 1,2,-1
 447 236 l 1,3,-1
 388 236 l 1,4,-1
 388 384 l 1,5,-1
 66 384 l 1,0,-1
EndSplineSet
EndChar

StartChar: registered
Encoding: 174 174 111
Width: 756
GlyphClass: 2
Flags: W
LayerCount: 2
Fore
SplineSet
364 264 m 1,0,-1
 346 265 l 1,1,-1
 312 265 l 1,2,-1
 312 126 l 1,3,-1
 264 126 l 1,4,-1
 264 492 l 1,5,-1
 374 492 l 2,6,7
 437 492 437 492 470.5 469.5 c 128,-1,8
 504 447 504 447 504 379 c 0,9,10
 504 287 504 287 431 270 c 1,11,-1
 521 140 l 1,12,-1
 484 114 l 1,13,-1
 378 264 l 1,14,-1
 364 264 l 1,0,-1
343 308 m 1,15,-1
 364 307 l 1,16,-1
 384 307 l 2,17,18
 425 307 425 307 439.5 320 c 128,-1,19
 454 333 454 333 454 377 c 128,-1,20
 454 421 454 421 435.5 434 c 128,-1,21
 417 447 417 447 367 447 c 2,22,-1
 312 447 l 1,23,-1
 312 308 l 1,24,-1
 343 308 l 1,15,-1
602.5 528.5 m 128,-1,26
 696 435 696 435 696 303 c 128,-1,27
 696 171 696 171 605.5 78.5 c 128,-1,28
 515 -14 515 -14 381 -14 c 128,-1,29
 247 -14 247 -14 153.5 79.5 c 128,-1,30
 60 173 60 173 60 305 c 128,-1,31
 60 437 60 437 150.5 529.5 c 128,-1,32
 241 622 241 622 375 622 c 128,-1,25
 509 622 509 622 602.5 528.5 c 128,-1,26
569.5 109.5 m 128,-1,34
 639 184 639 184 639 299.5 c 128,-1,35
 639 415 639 415 563 492.5 c 128,-1,36
 487 570 487 570 371 570 c 128,-1,37
 255 570 255 570 185.5 496.5 c 128,-1,38
 116 423 116 423 116 307 c 128,-1,39
 116 191 116 191 192 113 c 128,-1,40
 268 35 268 35 384 35 c 128,-1,33
 500 35 500 35 569.5 109.5 c 128,-1,34
EndSplineSet
EndChar

StartChar: macron
Encoding: 175 175 112
Width: 541
GlyphClass: 2
Flags: W
LayerCount: 2
Fore
SplineSet
70 657 m 1,0,-1
 70 716 l 1,1,-1
 471 716 l 1,2,-1
 471 657 l 1,3,-1
 70 657 l 1,0,-1
EndSplineSet
EndChar

StartChar: degree
Encoding: 176 176 113
Width: 340
GlyphClass: 2
Flags: W
LayerCount: 2
Fore
SplineSet
258 653 m 128,-1,1
 288 620 288 620 288 570.5 c 128,-1,2
 288 521 288 521 257.5 486 c 128,-1,3
 227 451 227 451 169 451 c 128,-1,4
 111 451 111 451 81.5 485 c 128,-1,5
 52 519 52 519 52 568.5 c 128,-1,6
 52 618 52 618 82.5 652 c 128,-1,7
 113 686 113 686 170.5 686 c 128,-1,0
 228 686 228 686 258 653 c 128,-1,1
238 570 m 128,-1,9
 238 600 238 600 221.5 621 c 128,-1,10
 205 642 205 642 170 642 c 128,-1,11
 135 642 135 642 118.5 620.5 c 128,-1,12
 102 599 102 599 102 568.5 c 128,-1,13
 102 538 102 538 118 516.5 c 128,-1,14
 134 495 134 495 169 495 c 128,-1,15
 204 495 204 495 221 517.5 c 128,-1,8
 238 540 238 540 238 570 c 128,-1,9
EndSplineSet
EndChar

StartChar: plusminus
Encoding: 177 177 114
Width: 521
GlyphClass: 2
Flags: W
LayerCount: 2
Fore
SplineSet
69 0 m 1,0,-1
 69 59 l 1,1,-1
 451 59 l 1,2,-1
 451 0 l 1,3,-1
 69 0 l 1,0,-1
230 551 m 1,4,-1
 289 551 l 1,5,-1
 289 385 l 1,6,-1
 451 385 l 1,7,-1
 451 326 l 1,8,-1
 289 326 l 1,9,-1
 289 166 l 1,10,-1
 230 166 l 1,11,-1
 230 326 l 1,12,-1
 70 326 l 1,13,-1
 70 385 l 1,14,-1
 230 385 l 1,15,-1
 230 551 l 1,4,-1
EndSplineSet
EndChar

StartChar: twosuperior
Encoding: 178 178 115
Width: 305
GlyphClass: 2
Flags: W
LayerCount: 2
Fore
SplineSet
243 452 m 1,0,-1
 243 406 l 1,1,-1
 61 406 l 1,2,-1
 61 426 l 2,3,4
 61 494 61 494 131 552 c 1,5,-1
 130 552 l 1,6,7
 161 577 161 577 170 590 c 128,-1,8
 179 603 179 603 179 622.5 c 128,-1,9
 179 642 179 642 170.5 649.5 c 128,-1,10
 162 657 162 657 138 657 c 128,-1,11
 114 657 114 657 77 640 c 1,12,-1
 62 685 l 1,13,14
 117 705 117 705 152 705 c 128,-1,15
 187 705 187 705 210 683.5 c 128,-1,16
 233 662 233 662 233 629.5 c 128,-1,17
 233 597 233 597 222.5 579 c 128,-1,18
 212 561 212 561 186 537 c 2,19,-1
 164 517 l 2,20,21
 158 511 158 511 153 507 c 128,-1,22
 148 503 148 503 146 501 c 0,23,24
 141 496 141 496 137.5 492.5 c 128,-1,25
 134 489 134 489 131 485.5 c 128,-1,26
 128 482 128 482 126.5 480 c 128,-1,27
 125 478 125 478 123 474.5 c 128,-1,28
 121 471 121 471 120 468 c 0,29,30
 116 458 116 458 114 452 c 1,31,-1
 243 452 l 1,0,-1
EndSplineSet
EndChar

StartChar: threesuperior
Encoding: 179 179 116
Width: 293
GlyphClass: 2
Flags: W
LayerCount: 2
Fore
SplineSet
79 645 m 1,0,-1
 65 686 l 1,1,2
 110 705 110 705 139 705 c 0,3,4
 223 705 223 705 225 623 c 0,5,6
 225 585 225 585 208 562 c 1,7,8
 238 528 238 528 238 486.5 c 128,-1,9
 238 445 238 445 210.5 419 c 128,-1,10
 183 393 183 393 141 393 c 128,-1,11
 99 393 99 393 52 420 c 1,12,-1
 75 464 l 1,13,14
 112 443 112 443 141 443 c 128,-1,15
 170 443 170 443 180 455 c 1,16,17
 186 466 186 466 186 488 c 0,18,19
 186 528 186 528 161 535 c 1,20,21
 152 536 152 536 129 536 c 2,22,-1
 105 536 l 1,23,-1
 105 578 l 1,24,-1
 132 578 l 1,25,26
 162 582 162 582 168 592 c 1,27,28
 174 610 174 610 174 620 c 0,29,30
 174 660 174 660 134 660 c 0,31,32
 113 660 113 660 79 645 c 1,0,-1
EndSplineSet
EndChar

StartChar: acute
Encoding: 180 180 117
Width: 351
GlyphClass: 2
Flags: W
LayerCount: 2
Fore
SplineSet
220 719 m 1,0,-1
 268 674 l 1,1,2
 226 636 226 636 172 599 c 1,3,-1
 104 571 l 1,4,5
 99 577 99 577 90 585 c 128,-1,6
 81 593 81 593 76 600 c 1,7,-1
 96 614 l 1,8,9
 157 655 157 655 179.5 677 c 128,-1,10
 202 699 202 699 220 719 c 1,0,-1
EndSplineSet
EndChar

StartChar: mu
Encoding: 181 181 118
AltUni2: 0003bc.ffffffff.0
Width: 552
GlyphClass: 2
Flags: W
LayerCount: 2
Fore
SplineSet
89 -195 m 1,0,-1
 89 492 l 1,1,-1
 154 492 l 1,2,-1
 154 141 l 1,3,4
 155 91 155 91 181.5 71 c 128,-1,5
 208 51 208 51 258.5 51 c 128,-1,6
 309 51 309 51 347.5 70 c 128,-1,7
 386 89 386 89 393 106 c 1,8,-1
 393 492 l 1,9,-1
 457 492 l 1,10,-1
 457 129 l 1,11,-1
 475 0 l 1,12,-1
 433 0 l 1,13,-1
 430 3 l 1,14,-1
 409 59 l 1,15,16
 370 33 370 33 353 22.5 c 128,-1,17
 336 12 336 12 303.5 1.5 c 128,-1,18
 271 -9 271 -9 240 -9 c 0,19,20
 183 -9 183 -9 162 11 c 1,21,-1
 154 18 l 1,22,-1
 154 -195 l 1,23,-1
 89 -195 l 1,0,-1
EndSplineSet
EndChar

StartChar: paragraph
Encoding: 182 182 119
Width: 512
GlyphClass: 2
Flags: W
LayerCount: 2
Fore
SplineSet
416 648 m 1,0,-1
 416 -82 l 1,1,-1
 350 -82 l 1,2,-1
 350 592 l 1,3,-1
 266 592 l 1,4,-1
 266 -82 l 1,5,-1
 198 -82 l 1,6,-1
 198 331 l 1,7,8
 128 331 128 331 83.5 374.5 c 128,-1,9
 39 418 39 418 39 490.5 c 128,-1,10
 39 563 39 563 81.5 605.5 c 128,-1,11
 124 648 124 648 198 648 c 2,12,-1
 416 648 l 1,0,-1
EndSplineSet
EndChar

StartChar: periodcentered
Encoding: 183 183 120
Width: 241
GlyphClass: 2
Flags: W
LayerCount: 2
Fore
SplineSet
82.5 310 m 128,-1,1
 99 324 99 324 124.5 324 c 128,-1,2
 150 324 150 324 162.5 311 c 128,-1,3
 175 298 175 298 175 266 c 0,4,5
 175 208 175 208 120.5 208 c 128,-1,6
 66 208 66 208 66 266 c 0,7,0
 66 296 66 296 82.5 310 c 128,-1,1
EndSplineSet
EndChar

StartChar: cedilla
Encoding: 184 184 121
Width: 339
GlyphClass: 2
Flags: W
LayerCount: 2
Fore
SplineSet
169 -5 m 1,0,-1
 229 -5 l 1,1,-1
 229 -64 l 1,2,-1
 187 -174 l 1,3,-1
 184 -178 l 1,4,-1
 140 -178 l 1,5,-1
 169 -64 l 1,6,-1
 169 -5 l 1,0,-1
EndSplineSet
EndChar

StartChar: onesuperior
Encoding: 185 185 122
Width: 236
GlyphClass: 2
Flags: W
LayerCount: 2
Fore
SplineSet
109 707 m 1,0,-1
 164 707 l 1,1,-1
 164 408 l 1,2,-1
 109 408 l 1,3,-1
 109 645 l 1,4,-1
 61 616 l 1,5,-1
 36 659 l 1,6,-1
 109 706 l 1,7,-1
 109 707 l 1,0,-1
EndSplineSet
EndChar

StartChar: ordmasculine
Encoding: 186 186 123
Width: 367
GlyphClass: 2
Flags: W
LayerCount: 2
Fore
SplineSet
183 668 m 0,0,1
 136 668 136 668 123 643.5 c 128,-1,2
 110 619 110 619 110 559.5 c 128,-1,3
 110 500 110 500 123.5 476.5 c 128,-1,4
 137 453 137 453 183.5 453 c 128,-1,5
 230 453 230 453 243 477.5 c 128,-1,6
 256 502 256 502 256 547.5 c 128,-1,7
 256 593 256 593 254.5 607.5 c 128,-1,8
 253 622 253 622 246.5 639 c 128,-1,9
 240 656 240 656 224.5 662 c 128,-1,10
 209 668 209 668 183 668 c 0,0,1
183 717 m 0,11,12
 256 717 256 717 284 685 c 128,-1,13
 312 653 312 653 312 566 c 128,-1,14
 312 479 312 479 274 441.5 c 128,-1,15
 236 404 236 404 183 404 c 0,16,17
 111 404 111 404 83 438 c 128,-1,18
 55 472 55 472 55 557 c 128,-1,19
 55 642 55 642 94 679.5 c 128,-1,20
 133 717 133 717 183 717 c 0,11,12
EndSplineSet
EndChar

StartChar: guillemotright
Encoding: 187 187 124
Width: 490
GlyphClass: 2
Flags: W
LayerCount: 2
Fore
SplineSet
375 279.5 m 128,-1,1
 375 293 375 293 352 316 c 1,2,-1
 241 435 l 1,3,-1
 283 471 l 1,4,-1
 444 299 l 1,5,-1
 444 261 l 1,6,-1
 282 88 l 1,7,-1
 241 126 l 1,8,-1
 352 243 l 2,9,0
 375 266 375 266 375 279.5 c 128,-1,1
189 279.5 m 128,-1,11
 189 293 189 293 166 316 c 1,12,-1
 55 435 l 1,13,-1
 97 471 l 1,14,-1
 258 299 l 1,15,-1
 258 261 l 1,16,-1
 96 88 l 1,17,-1
 55 126 l 1,18,-1
 166 243 l 2,19,10
 189 266 189 266 189 279.5 c 128,-1,11
EndSplineSet
EndChar

StartChar: onequarter
Encoding: 188 188 125
Width: 714
GlyphClass: 2
Flags: W
LayerCount: 2
Fore
SplineSet
147 6 m 1,0,-1
 474 741 l 1,1,-1
 527 718 l 1,2,-1
 201 -17 l 1,3,-1
 147 6 l 1,0,-1
645 175 m 1,4,-1
 676 175 l 1,5,-1
 676 125 l 1,6,-1
 645 125 l 1,7,-1
 645 50 l 1,8,-1
 590 50 l 1,9,-1
 590 125 l 1,10,-1
 480 125 l 1,11,-1
 480 168 l 2,12,13
 480 197 480 197 494 218 c 2,14,-1
 584 356 l 1,15,-1
 626 329 l 1,16,-1
 545 200 l 2,17,18
 534 184 534 184 534 175 c 1,19,-1
 590 175 l 1,20,-1
 590 216 l 1,21,-1
 645 216 l 1,22,-1
 645 175 l 1,4,-1
102 698 m 1,23,-1
 157 698 l 1,24,-1
 157 399 l 1,25,-1
 102 399 l 1,26,-1
 102 636 l 1,27,-1
 54 607 l 1,28,-1
 29 650 l 1,29,-1
 102 697 l 1,30,-1
 102 698 l 1,23,-1
EndSplineSet
EndChar

StartChar: onehalf
Encoding: 189 189 126
Width: 725
GlyphClass: 2
Flags: W
LayerCount: 2
Fore
SplineSet
147 6 m 1,0,-1
 474 741 l 1,1,-1
 527 718 l 1,2,-1
 201 -17 l 1,3,-1
 147 6 l 1,0,-1
677 51 m 1,4,-1
 495 51 l 1,5,-1
 495 71 l 2,6,7
 495 139 495 139 565 197 c 1,8,-1
 564 197 l 1,9,10
 595 222 595 222 604 235 c 128,-1,11
 613 248 613 248 613 267.5 c 128,-1,12
 613 287 613 287 604.5 294.5 c 128,-1,13
 596 302 596 302 572 302 c 128,-1,14
 548 302 548 302 511 285 c 1,15,-1
 496 330 l 1,16,17
 551 350 551 350 586 350 c 128,-1,18
 621 350 621 350 644 328.5 c 128,-1,19
 667 307 667 307 667 274.5 c 128,-1,20
 667 242 667 242 656.5 224 c 128,-1,21
 646 206 646 206 620 182 c 2,22,-1
 565 132 l 2,23,24
 555 122 555 122 548 97 c 1,25,-1
 677 97 l 1,26,-1
 677 51 l 1,4,-1
102 698 m 1,27,-1
 157 698 l 1,28,-1
 157 399 l 1,29,-1
 102 399 l 1,30,-1
 102 636 l 1,31,-1
 54 607 l 1,32,-1
 29 650 l 1,33,-1
 102 697 l 1,34,-1
 102 698 l 1,27,-1
EndSplineSet
EndChar

StartChar: threequarters
Encoding: 190 190 127
Width: 772
GlyphClass: 2
Flags: W
LayerCount: 2
Fore
SplineSet
205 6 m 1,0,-1
 532 741 l 1,1,-1
 585 718 l 1,2,-1
 259 -17 l 1,3,-1
 205 6 l 1,0,-1
155 592 m 1,4,5
 161 610 161 610 161 620 c 0,6,7
 161 660 161 660 121 660 c 0,8,9
 100 660 100 660 66 645 c 1,10,-1
 52 686 l 1,11,12
 97 705 97 705 126 705 c 0,13,14
 210 705 210 705 212 623 c 0,15,16
 212 585 212 585 195 562 c 1,17,18
 225 528 225 528 225 486.5 c 128,-1,19
 225 445 225 445 197.5 419 c 128,-1,20
 170 393 170 393 128 393 c 128,-1,21
 86 393 86 393 39 420 c 1,22,-1
 62 464 l 1,23,24
 99 443 99 443 128 443 c 128,-1,25
 157 443 157 443 167 455 c 1,26,27
 173 466 173 466 173 488 c 0,28,29
 173 528 173 528 148 535 c 1,30,31
 139 536 139 536 116 536 c 2,32,-1
 92 536 l 1,33,-1
 92 578 l 1,34,-1
 119 578 l 1,35,36
 149 582 149 582 155 592 c 1,4,5
703 175 m 1,37,-1
 734 175 l 1,38,-1
 734 125 l 1,39,-1
 703 125 l 1,40,-1
 703 50 l 1,41,-1
 648 50 l 1,42,-1
 648 125 l 1,43,-1
 538 125 l 1,44,-1
 538 168 l 2,45,46
 538 197 538 197 552 218 c 2,47,-1
 642 356 l 1,48,-1
 684 329 l 1,49,-1
 603 200 l 2,50,51
 592 184 592 184 592 175 c 1,52,-1
 648 175 l 1,53,-1
 648 216 l 1,54,-1
 703 216 l 1,55,-1
 703 175 l 1,37,-1
EndSplineSet
EndChar

StartChar: questiondown
Encoding: 191 191 128
Width: 401
GlyphClass: 2
Flags: W
LayerCount: 2
Fore
SplineSet
352 -116 m 1,0,-1
 366 -170 l 1,1,2
 298 -177 298 -177 240 -177 c 0,3,4
 207 -177 207 -177 185 -172.5 c 128,-1,5
 163 -168 163 -168 138 -159.5 c 128,-1,6
 113 -151 113 -151 97.5 -136 c 128,-1,7
 82 -121 82 -121 68 -100 c 1,8,9
 43 -59 43 -59 43 23 c 0,10,11
 43 95 43 95 76 132 c 0,12,13
 93 151 93 151 104.5 160 c 128,-1,14
 116 169 116 169 132.5 179.5 c 128,-1,15
 149 190 149 190 170 202 c 128,-1,16
 191 214 191 214 206 228 c 0,17,18
 227 247 227 247 227 292 c 1,19,-1
 229 356 l 1,20,-1
 285 356 l 1,21,22
 287 324 287 324 287 275 c 0,23,24
 287 204 287 204 224 165 c 0,25,26
 198 149 198 149 172 133 c 128,-1,27
 146 117 146 117 127.5 90.5 c 128,-1,28
 109 64 109 64 109 13.5 c 128,-1,29
 109 -37 109 -37 130 -66 c 0,30,31
 141 -81 141 -81 152.5 -92.5 c 128,-1,32
 164 -104 164 -104 182.5 -109.5 c 128,-1,33
 201 -115 201 -115 214.5 -118.5 c 128,-1,34
 228 -122 228 -122 269 -122 c 128,-1,35
 310 -122 310 -122 352 -116 c 1,0,-1
222 504 m 1,36,-1
 294 504 l 1,37,-1
 294 430 l 1,38,-1
 222 430 l 1,39,-1
 222 504 l 1,36,-1
EndSplineSet
EndChar

StartChar: Agrave
Encoding: 192 192 129
Width: 596
GlyphClass: 2
Flags: W
LayerCount: 2
Fore
SplineSet
253 648 m 1,0,-1
 343 648 l 1,1,-1
 562 0 l 1,2,-1
 491 0 l 1,3,-1
 424 201 l 1,4,-1
 172 201 l 1,5,-1
 105 0 l 1,6,-1
 34 0 l 1,7,-1
 253 648 l 1,0,-1
190 257 m 1,8,-1
 407 257 l 1,9,-1
 301 593 l 1,10,-1
 298 593 l 1,11,-1
 190 257 l 1,8,-1
202 827 m 1,12,-1
 250 872 l 1,13,14
 288 830 288 830 313 811 c 0,15,16
 348 784 348 784 374 767 c 2,17,-1
 394 753 l 1,18,19
 389 746 389 746 380 738 c 128,-1,20
 371 730 371 730 366 724 c 1,21,-1
 298 752 l 1,22,23
 244 789 244 789 202 827 c 1,12,-1
EndSplineSet
EndChar

StartChar: Aacute
Encoding: 193 193 130
Width: 596
GlyphClass: 2
Flags: W
LayerCount: 2
Fore
SplineSet
253 648 m 1,0,-1
 343 648 l 1,1,-1
 562 0 l 1,2,-1
 491 0 l 1,3,-1
 424 201 l 1,4,-1
 172 201 l 1,5,-1
 105 0 l 1,6,-1
 34 0 l 1,7,-1
 253 648 l 1,0,-1
190 257 m 1,8,-1
 407 257 l 1,9,-1
 301 593 l 1,10,-1
 298 593 l 1,11,-1
 190 257 l 1,8,-1
346 875 m 1,12,-1
 394 830 l 1,13,14
 352 792 352 792 298 755 c 1,15,-1
 230 727 l 1,16,17
 225 733 225 733 216 741 c 128,-1,18
 207 749 207 749 202 756 c 1,19,-1
 222 770 l 1,20,21
 283 811 283 811 305.5 833 c 128,-1,22
 328 855 328 855 346 875 c 1,12,-1
EndSplineSet
EndChar

StartChar: Acircumflex
Encoding: 194 194 131
Width: 596
GlyphClass: 2
Flags: W
LayerCount: 2
Fore
SplineSet
253 648 m 1,0,-1
 343 648 l 1,1,-1
 562 0 l 1,2,-1
 491 0 l 1,3,-1
 424 201 l 1,4,-1
 172 201 l 1,5,-1
 105 0 l 1,6,-1
 34 0 l 1,7,-1
 253 648 l 1,0,-1
190 257 m 1,8,-1
 407 257 l 1,9,-1
 301 593 l 1,10,-1
 298 593 l 1,11,-1
 190 257 l 1,8,-1
298 830 m 1,12,-1
 192 743 l 1,13,-1
 164 773 l 1,14,-1
 268 879 l 1,15,-1
 328 879 l 1,16,-1
 432 773 l 1,17,-1
 403 743 l 1,18,-1
 298 830 l 1,12,-1
EndSplineSet
EndChar

StartChar: Atilde
Encoding: 195 195 132
Width: 596
GlyphClass: 2
Flags: W
LayerCount: 2
Fore
SplineSet
253 648 m 1,0,-1
 343 648 l 1,1,-1
 562 0 l 1,2,-1
 491 0 l 1,3,-1
 424 201 l 1,4,-1
 172 201 l 1,5,-1
 105 0 l 1,6,-1
 34 0 l 1,7,-1
 253 648 l 1,0,-1
190 257 m 1,8,-1
 407 257 l 1,9,-1
 301 593 l 1,10,-1
 298 593 l 1,11,-1
 190 257 l 1,8,-1
399 752 m 2,12,13
 380 737 380 737 371 735.5 c 128,-1,14
 362 734 362 734 353.5 734 c 128,-1,15
 345 734 345 734 327 739 c 2,16,-1
 242 759 l 1,17,-1
 167 727 l 1,18,-1
 149 755 l 1,19,-1
 191 790 l 2,20,21
 212 808 212 808 219.5 809.5 c 128,-1,22
 227 811 227 811 234.5 811 c 128,-1,23
 242 811 242 811 259 807 c 2,24,-1
 354 785 l 1,25,-1
 428 820 l 1,26,-1
 446 791 l 1,27,-1
 399 752 l 2,12,13
EndSplineSet
EndChar

StartChar: Adieresis
Encoding: 196 196 133
Width: 596
GlyphClass: 2
Flags: W
LayerCount: 2
Fore
SplineSet
253 648 m 1,0,-1
 343 648 l 1,1,-1
 562 0 l 1,2,-1
 491 0 l 1,3,-1
 424 201 l 1,4,-1
 172 201 l 1,5,-1
 105 0 l 1,6,-1
 34 0 l 1,7,-1
 253 648 l 1,0,-1
190 257 m 1,8,-1
 407 257 l 1,9,-1
 301 593 l 1,10,-1
 298 593 l 1,11,-1
 190 257 l 1,8,-1
189 814 m 1,12,-1
 261 814 l 1,13,-1
 261 740 l 1,14,-1
 189 740 l 1,15,-1
 189 814 l 1,12,-1
335 814 m 1,16,-1
 407 814 l 1,17,-1
 407 740 l 1,18,-1
 335 740 l 1,19,-1
 335 814 l 1,16,-1
EndSplineSet
EndChar

StartChar: Aring
Encoding: 197 197 134
Width: 596
GlyphClass: 2
Flags: W
LayerCount: 2
Fore
SplineSet
253 648 m 1,0,-1
 343 648 l 1,1,-1
 562 0 l 1,2,-1
 491 0 l 1,3,-1
 424 201 l 1,4,-1
 172 201 l 1,5,-1
 105 0 l 1,6,-1
 34 0 l 1,7,-1
 253 648 l 1,0,-1
190 257 m 1,8,-1
 407 257 l 1,9,-1
 301 593 l 1,10,-1
 298 593 l 1,11,-1
 190 257 l 1,8,-1
395 826 m 128,-1,13
 395 786 395 786 369.5 757 c 128,-1,14
 344 728 344 728 297 728 c 128,-1,15
 250 728 250 728 225.5 756 c 128,-1,16
 201 784 201 784 201 824.5 c 128,-1,17
 201 865 201 865 226 893 c 128,-1,18
 251 921 251 921 298.5 921 c 128,-1,19
 346 921 346 921 370.5 893.5 c 128,-1,12
 395 866 395 866 395 826 c 128,-1,13
341 781.5 m 128,-1,21
 356 801 356 801 356 825.5 c 128,-1,22
 356 850 356 850 341.5 868.5 c 128,-1,23
 327 887 327 887 298.5 887 c 128,-1,24
 270 887 270 887 255 868.5 c 128,-1,25
 240 850 240 850 240 825 c 128,-1,26
 240 800 240 800 254 781 c 128,-1,27
 268 762 268 762 297 762 c 128,-1,20
 326 762 326 762 341 781.5 c 128,-1,21
EndSplineSet
EndChar

StartChar: AE
Encoding: 198 198 135
Width: 798
GlyphClass: 2
Flags: W
LayerCount: 2
Fore
SplineSet
382 0 m 1,0,-1
 382 201 l 1,1,-1
 183 201 l 1,2,-1
 80 0 l 1,3,-1
 9 0 l 1,4,-1
 338 648 l 1,5,-1
 426 648 l 1,6,-1
 427 0 l 1,7,-1
 382 0 l 1,0,-1
382 257 m 1,8,-1
 382 595 l 1,9,-1
 210 257 l 1,10,-1
 382 257 l 1,8,-1
750 0 m 1,11,-1
 382 0 l 1,12,-1
 382 648 l 1,13,-1
 739 648 l 1,14,-1
 732 592 l 1,15,-1
 449 592 l 1,16,-1
 449 363 l 1,17,-1
 699 363 l 1,18,-1
 699 307 l 1,19,-1
 448 307 l 1,20,-1
 448 56 l 1,21,-1
 750 56 l 1,22,-1
 750 0 l 1,11,-1
EndSplineSet
EndChar

StartChar: Ccedilla
Encoding: 199 199 136
Width: 553
GlyphClass: 2
Flags: W
LayerCount: 2
Fore
SplineSet
281 653.5 m 128,-1,1
 245 647 245 647 203 625.5 c 128,-1,2
 161 604 161 604 131.5 569 c 128,-1,3
 102 534 102 534 82 471 c 128,-1,4
 62 408 62 408 62 322.5 c 128,-1,5
 62 237 62 237 78 174 c 128,-1,6
 94 111 94 111 117.5 76 c 128,-1,7
 141 41 141 41 178 21.5 c 128,-1,8
 215 2 215 2 248 -3.5 c 128,-1,9
 281 -9 281 -9 326 -9 c 0,10,11
 442 -9 442 -9 514 40 c 1,12,-1
 491 94 l 1,13,14
 434 60 434 60 376 56 c 0,15,16
 358 54 358 54 320.5 54 c 128,-1,17
 283 54 283 54 252 64.5 c 128,-1,18
 221 75 221 75 192 102 c 0,19,20
 132 159 132 159 132 326 c 0,21,22
 132 462 132 462 175 528 c 0,23,24
 194 557 194 557 226.5 573 c 128,-1,25
 259 589 259 589 290 593.5 c 128,-1,26
 321 598 321 598 364.5 598 c 128,-1,27
 408 598 408 598 498 580 c 1,28,-1
 514 633 l 1,29,30
 431 660 431 660 374 660 c 128,-1,0
 317 660 317 660 281 653.5 c 128,-1,1
282 -5 m 1,31,-1
 342 -5 l 1,32,-1
 342 -64 l 1,33,-1
 300 -174 l 1,34,-1
 297 -178 l 1,35,-1
 253 -178 l 1,36,-1
 282 -64 l 1,37,-1
 282 -5 l 1,31,-1
EndSplineSet
EndChar

StartChar: Egrave
Encoding: 200 200 137
Width: 507
GlyphClass: 2
Flags: W
LayerCount: 2
Fore
SplineSet
459 0 m 1,0,-1
 91 0 l 1,1,-1
 91 648 l 1,2,-1
 448 648 l 1,3,-1
 441 592 l 1,4,-1
 158 592 l 1,5,-1
 158 363 l 1,6,-1
 408 363 l 1,7,-1
 408 307 l 1,8,-1
 157 307 l 1,9,-1
 157 56 l 1,10,-1
 459 56 l 1,11,-1
 459 0 l 1,0,-1
152 827 m 1,12,-1
 200 872 l 1,13,14
 238 830 238 830 263 811 c 0,15,16
 298 784 298 784 324 767 c 2,17,-1
 344 753 l 1,18,19
 339 746 339 746 330 738 c 128,-1,20
 321 730 321 730 316 724 c 1,21,-1
 248 752 l 1,22,23
 194 789 194 789 152 827 c 1,12,-1
EndSplineSet
EndChar

StartChar: Eacute
Encoding: 201 201 138
Width: 507
GlyphClass: 2
Flags: W
LayerCount: 2
Fore
SplineSet
459 0 m 1,0,-1
 91 0 l 1,1,-1
 91 648 l 1,2,-1
 448 648 l 1,3,-1
 441 592 l 1,4,-1
 158 592 l 1,5,-1
 158 363 l 1,6,-1
 408 363 l 1,7,-1
 408 307 l 1,8,-1
 157 307 l 1,9,-1
 157 56 l 1,10,-1
 459 56 l 1,11,-1
 459 0 l 1,0,-1
296 875 m 1,12,-1
 344 830 l 1,13,14
 302 792 302 792 248 755 c 1,15,-1
 180 727 l 1,16,17
 175 733 175 733 166 741 c 128,-1,18
 157 749 157 749 152 756 c 1,19,-1
 172 770 l 1,20,21
 233 811 233 811 255.5 833 c 128,-1,22
 278 855 278 855 296 875 c 1,12,-1
EndSplineSet
EndChar

StartChar: Ecircumflex
Encoding: 202 202 139
Width: 507
GlyphClass: 2
Flags: W
LayerCount: 2
Fore
SplineSet
459 0 m 1,0,-1
 91 0 l 1,1,-1
 91 648 l 1,2,-1
 448 648 l 1,3,-1
 441 592 l 1,4,-1
 158 592 l 1,5,-1
 158 363 l 1,6,-1
 408 363 l 1,7,-1
 408 307 l 1,8,-1
 157 307 l 1,9,-1
 157 56 l 1,10,-1
 459 56 l 1,11,-1
 459 0 l 1,0,-1
248 830 m 1,12,-1
 142 743 l 1,13,-1
 114 773 l 1,14,-1
 218 879 l 1,15,-1
 278 879 l 1,16,-1
 382 773 l 1,17,-1
 353 743 l 1,18,-1
 248 830 l 1,12,-1
EndSplineSet
EndChar

StartChar: Edieresis
Encoding: 203 203 140
Width: 507
GlyphClass: 2
Flags: W
LayerCount: 2
Fore
SplineSet
459 0 m 1,0,-1
 91 0 l 1,1,-1
 91 648 l 1,2,-1
 448 648 l 1,3,-1
 441 592 l 1,4,-1
 158 592 l 1,5,-1
 158 363 l 1,6,-1
 408 363 l 1,7,-1
 408 307 l 1,8,-1
 157 307 l 1,9,-1
 157 56 l 1,10,-1
 459 56 l 1,11,-1
 459 0 l 1,0,-1
159 814 m 1,12,-1
 231 814 l 1,13,-1
 231 740 l 1,14,-1
 159 740 l 1,15,-1
 159 814 l 1,12,-1
305 814 m 1,16,-1
 377 814 l 1,17,-1
 377 740 l 1,18,-1
 305 740 l 1,19,-1
 305 814 l 1,16,-1
EndSplineSet
EndChar

StartChar: Igrave
Encoding: 204 204 141
Width: 248
GlyphClass: 2
Flags: W
LayerCount: 2
Fore
SplineSet
91 648 m 1,0,-1
 157 648 l 1,1,-1
 157 0 l 1,2,-1
 91 0 l 1,3,-1
 91 648 l 1,0,-1
23 827 m 1,4,-1
 71 872 l 1,5,6
 109 830 109 830 134 811 c 0,7,8
 169 784 169 784 194 767 c 2,9,-1
 215 753 l 1,10,11
 210 746 210 746 201 738 c 128,-1,12
 192 730 192 730 187 724 c 1,13,-1
 119 752 l 1,14,15
 65 789 65 789 23 827 c 1,4,-1
EndSplineSet
EndChar

StartChar: Iacute
Encoding: 205 205 142
Width: 248
GlyphClass: 2
Flags: W
LayerCount: 2
Fore
SplineSet
91 648 m 1,0,-1
 157 648 l 1,1,-1
 157 0 l 1,2,-1
 91 0 l 1,3,-1
 91 648 l 1,0,-1
184 875 m 1,4,-1
 232 830 l 1,5,6
 190 792 190 792 136 755 c 1,7,-1
 68 727 l 1,8,9
 63 733 63 733 54 741 c 128,-1,10
 45 749 45 749 40 756 c 1,11,-1
 60 770 l 1,12,13
 121 811 121 811 143.5 833 c 128,-1,14
 166 855 166 855 184 875 c 1,4,-1
EndSplineSet
EndChar

StartChar: Icircumflex
Encoding: 206 206 143
Width: 248
GlyphClass: 2
Flags: W
LayerCount: 2
Fore
SplineSet
91 648 m 1,0,-1
 157 648 l 1,1,-1
 157 0 l 1,2,-1
 91 0 l 1,3,-1
 91 648 l 1,0,-1
124 830 m 1,4,-1
 18 743 l 1,5,-1
 -10 773 l 1,6,-1
 94 879 l 1,7,-1
 154 879 l 1,8,-1
 258 773 l 1,9,-1
 229 743 l 1,10,-1
 124 830 l 1,4,-1
EndSplineSet
EndChar

StartChar: Idieresis
Encoding: 207 207 144
Width: 248
GlyphClass: 2
Flags: W
LayerCount: 2
Fore
SplineSet
91 648 m 1,0,-1
 157 648 l 1,1,-1
 157 0 l 1,2,-1
 91 0 l 1,3,-1
 91 648 l 1,0,-1
15 814 m 1,4,-1
 87 814 l 1,5,-1
 87 740 l 1,6,-1
 15 740 l 1,7,-1
 15 814 l 1,4,-1
161 814 m 1,8,-1
 233 814 l 1,9,-1
 233 740 l 1,10,-1
 161 740 l 1,11,-1
 161 814 l 1,8,-1
EndSplineSet
EndChar

StartChar: Eth
Encoding: 208 208 145
Width: 644
GlyphClass: 2
Flags: W
LayerCount: 2
Fore
SplineSet
33 301 m 1,0,-1
 33 360 l 1,1,-1
 113 360 l 1,2,-1
 113 648 l 1,3,-1
 284 648 l 2,4,5
 345 648 345 648 386 642 c 128,-1,6
 427 636 427 636 467 616.5 c 128,-1,7
 507 597 507 597 530 563 c 0,8,9
 581 488 581 488 581 329 c 0,10,11
 581 231 581 231 555 155 c 0,12,13
 537 103 537 103 486 57 c 0,14,15
 458 31 458 31 394 12 c 0,16,17
 358 2 358 2 317.5 1 c 128,-1,18
 277 0 277 0 246 0 c 2,19,-1
 113 0 l 1,20,-1
 113 301 l 1,21,-1
 33 301 l 1,0,-1
179 58 m 1,22,-1
 246 58 l 2,23,24
 251 58 251 58 272 58 c 128,-1,25
 293 58 293 58 309.5 58.5 c 128,-1,26
 326 59 326 59 353 61 c 128,-1,27
 380 63 380 63 392.5 68 c 128,-1,28
 405 73 405 73 425 82 c 128,-1,29
 445 91 445 91 454 104.5 c 128,-1,30
 463 118 463 118 475.5 138 c 128,-1,31
 488 158 488 158 494 185 c 0,32,33
 508 258 508 258 509 336 c 128,-1,34
 510 414 510 414 499.5 464.5 c 128,-1,35
 489 515 489 515 460 542.5 c 128,-1,36
 431 570 431 570 392 578.5 c 128,-1,37
 353 587 353 587 285 587 c 2,38,-1
 179 587 l 1,39,-1
 179 360 l 1,40,-1
 400 360 l 1,41,-1
 400 301 l 1,42,-1
 179 301 l 1,43,-1
 179 58 l 1,22,-1
EndSplineSet
EndChar

StartChar: Ntilde
Encoding: 209 209 146
Width: 659
GlyphClass: 2
Flags: W
LayerCount: 2
Fore
SplineSet
502 648 m 1,0,-1
 568 648 l 1,1,-1
 568 0 l 1,2,-1
 495 0 l 1,3,-1
 153 547 l 1,4,-1
 157 453 l 1,5,-1
 157 0 l 1,6,-1
 91 0 l 1,7,-1
 91 648 l 1,8,-1
 163 648 l 1,9,-1
 505 103 l 1,10,-1
 502 199 l 1,11,-1
 502 648 l 1,0,-1
447 752 m 2,12,13
 428 737 428 737 419 735.5 c 128,-1,14
 410 734 410 734 401.5 734 c 128,-1,15
 393 734 393 734 375 739 c 2,16,-1
 290 759 l 1,17,-1
 215 727 l 1,18,-1
 197 755 l 1,19,-1
 239 790 l 2,20,21
 260 808 260 808 267.5 809.5 c 128,-1,22
 275 811 275 811 282.5 811 c 128,-1,23
 290 811 290 811 307 807 c 2,24,-1
 402 785 l 1,25,-1
 476 820 l 1,26,-1
 494 791 l 1,27,-1
 447 752 l 2,12,13
EndSplineSet
EndChar

StartChar: Ograve
Encoding: 210 210 147
Width: 661
GlyphClass: 2
Flags: W
LayerCount: 2
Fore
SplineSet
331 661 m 0,0,1
 482 661 482 661 540.5 591 c 128,-1,2
 599 521 599 521 599 329 c 0,3,4
 599 232 599 232 576 163 c 128,-1,5
 553 94 553 94 512 58 c 0,6,7
 437 -9 437 -9 331 -9 c 0,8,9
 186 -9 186 -9 136 44 c 0,10,11
 85 99 85 99 70 196 c 0,12,13
 62 252 62 252 62 335.5 c 128,-1,14
 62 419 62 419 87 487 c 128,-1,15
 112 555 112 555 153 591 c 0,16,17
 233 661 233 661 331 661 c 0,0,1
312 599 m 0,18,19
 221 599 221 599 176.5 535.5 c 128,-1,20
 132 472 132 472 132 328 c 0,21,22
 132 192 132 192 166 126 c 0,23,24
 194 71 194 71 268 58 c 0,25,26
 298 52 298 52 345 52 c 0,27,28
 439 52 439 52 484 117 c 128,-1,29
 529 182 529 182 529 329 c 0,30,31
 529 443 529 443 507 502 c 0,32,33
 494 537 494 537 470 557 c 0,34,35
 420 599 420 599 312 599 c 0,18,19
235 827 m 1,36,-1
 283 872 l 1,37,38
 321 830 321 830 346 811 c 0,39,40
 381 784 381 784 406 767 c 2,41,-1
 427 753 l 1,42,43
 422 746 422 746 413 738 c 128,-1,44
 404 730 404 730 399 724 c 1,45,-1
 331 752 l 1,46,47
 277 789 277 789 235 827 c 1,36,-1
EndSplineSet
EndChar

StartChar: Oacute
Encoding: 211 211 148
Width: 661
GlyphClass: 2
Flags: W
LayerCount: 2
Fore
SplineSet
331 661 m 0,0,1
 482 661 482 661 540.5 591 c 128,-1,2
 599 521 599 521 599 329 c 0,3,4
 599 232 599 232 576 163 c 128,-1,5
 553 94 553 94 512 58 c 0,6,7
 437 -9 437 -9 331 -9 c 0,8,9
 186 -9 186 -9 136 44 c 0,10,11
 85 99 85 99 70 196 c 0,12,13
 62 252 62 252 62 335.5 c 128,-1,14
 62 419 62 419 87 487 c 128,-1,15
 112 555 112 555 153 591 c 0,16,17
 233 661 233 661 331 661 c 0,0,1
312 599 m 0,18,19
 221 599 221 599 176.5 535.5 c 128,-1,20
 132 472 132 472 132 328 c 0,21,22
 132 192 132 192 166 126 c 0,23,24
 194 71 194 71 268 58 c 0,25,26
 298 52 298 52 345 52 c 0,27,28
 439 52 439 52 484 117 c 128,-1,29
 529 182 529 182 529 329 c 0,30,31
 529 443 529 443 507 502 c 0,32,33
 494 537 494 537 470 557 c 0,34,35
 420 599 420 599 312 599 c 0,18,19
391 875 m 1,36,-1
 439 830 l 1,37,38
 397 792 397 792 343 755 c 1,39,-1
 275 727 l 1,40,41
 270 733 270 733 261 741 c 128,-1,42
 252 749 252 749 247 756 c 1,43,-1
 268 770 l 2,44,45
 328 811 328 811 350.5 833 c 128,-1,46
 373 855 373 855 391 875 c 1,36,-1
EndSplineSet
EndChar

StartChar: Ocircumflex
Encoding: 212 212 149
Width: 661
GlyphClass: 2
Flags: W
LayerCount: 2
Fore
SplineSet
331 661 m 0,0,1
 482 661 482 661 540.5 591 c 128,-1,2
 599 521 599 521 599 329 c 0,3,4
 599 232 599 232 576 163 c 128,-1,5
 553 94 553 94 512 58 c 0,6,7
 437 -9 437 -9 331 -9 c 0,8,9
 186 -9 186 -9 136 44 c 0,10,11
 85 99 85 99 70 196 c 0,12,13
 62 252 62 252 62 335.5 c 128,-1,14
 62 419 62 419 87 487 c 128,-1,15
 112 555 112 555 153 591 c 0,16,17
 233 661 233 661 331 661 c 0,0,1
312 599 m 0,18,19
 221 599 221 599 176.5 535.5 c 128,-1,20
 132 472 132 472 132 328 c 0,21,22
 132 192 132 192 166 126 c 0,23,24
 194 71 194 71 268 58 c 0,25,26
 298 52 298 52 345 52 c 0,27,28
 439 52 439 52 484 117 c 128,-1,29
 529 182 529 182 529 329 c 0,30,31
 529 443 529 443 507 502 c 0,32,33
 494 537 494 537 470 557 c 0,34,35
 420 599 420 599 312 599 c 0,18,19
331 830 m 1,36,-1
 225 743 l 1,37,-1
 197 773 l 1,38,-1
 301 879 l 1,39,-1
 361 879 l 1,40,-1
 465 773 l 1,41,-1
 436 743 l 1,42,-1
 331 830 l 1,36,-1
EndSplineSet
EndChar

StartChar: Otilde
Encoding: 213 213 150
Width: 661
GlyphClass: 2
Flags: W
LayerCount: 2
Fore
SplineSet
331 661 m 0,0,1
 482 661 482 661 540.5 591 c 128,-1,2
 599 521 599 521 599 329 c 0,3,4
 599 232 599 232 576 163 c 128,-1,5
 553 94 553 94 512 58 c 0,6,7
 437 -9 437 -9 331 -9 c 0,8,9
 186 -9 186 -9 136 44 c 0,10,11
 85 99 85 99 70 196 c 0,12,13
 62 252 62 252 62 335.5 c 128,-1,14
 62 419 62 419 87 487 c 128,-1,15
 112 555 112 555 153 591 c 0,16,17
 233 661 233 661 331 661 c 0,0,1
312 599 m 0,18,19
 221 599 221 599 176.5 535.5 c 128,-1,20
 132 472 132 472 132 328 c 0,21,22
 132 192 132 192 166 126 c 0,23,24
 194 71 194 71 268 58 c 0,25,26
 298 52 298 52 345 52 c 0,27,28
 439 52 439 52 484 117 c 128,-1,29
 529 182 529 182 529 329 c 0,30,31
 529 443 529 443 507 502 c 0,32,33
 494 537 494 537 470 557 c 0,34,35
 420 599 420 599 312 599 c 0,18,19
432 752 m 2,36,37
 413 737 413 737 404 735.5 c 128,-1,38
 395 734 395 734 386.5 734 c 128,-1,39
 378 734 378 734 360 739 c 2,40,-1
 275 759 l 1,41,-1
 200 727 l 1,42,-1
 182 755 l 1,43,-1
 224 790 l 2,44,45
 245 808 245 808 252.5 809.5 c 128,-1,46
 260 811 260 811 267.5 811 c 128,-1,47
 275 811 275 811 292 807 c 2,48,-1
 387 785 l 1,49,-1
 461 820 l 1,50,-1
 479 791 l 1,51,-1
 432 752 l 2,36,37
EndSplineSet
EndChar

StartChar: Odieresis
Encoding: 214 214 151
Width: 661
GlyphClass: 2
Flags: W
LayerCount: 2
Fore
SplineSet
331 661 m 0,0,1
 482 661 482 661 540.5 591 c 128,-1,2
 599 521 599 521 599 329 c 0,3,4
 599 232 599 232 576 163 c 128,-1,5
 553 94 553 94 512 58 c 0,6,7
 437 -9 437 -9 331 -9 c 0,8,9
 186 -9 186 -9 136 44 c 0,10,11
 85 99 85 99 70 196 c 0,12,13
 62 252 62 252 62 335.5 c 128,-1,14
 62 419 62 419 87 487 c 128,-1,15
 112 555 112 555 153 591 c 0,16,17
 233 661 233 661 331 661 c 0,0,1
312 599 m 0,18,19
 221 599 221 599 176.5 535.5 c 128,-1,20
 132 472 132 472 132 328 c 0,21,22
 132 192 132 192 166 126 c 0,23,24
 194 71 194 71 268 58 c 0,25,26
 298 52 298 52 345 52 c 0,27,28
 439 52 439 52 484 117 c 128,-1,29
 529 182 529 182 529 329 c 0,30,31
 529 443 529 443 507 502 c 0,32,33
 494 537 494 537 470 557 c 0,34,35
 420 599 420 599 312 599 c 0,18,19
222 814 m 1,36,-1
 294 814 l 1,37,-1
 294 740 l 1,38,-1
 222 740 l 1,39,-1
 222 814 l 1,36,-1
368 814 m 1,40,-1
 440 814 l 1,41,-1
 440 740 l 1,42,-1
 368 740 l 1,43,-1
 368 814 l 1,40,-1
EndSplineSet
EndChar

StartChar: multiply
Encoding: 215 215 152
Width: 514
GlyphClass: 2
Flags: W
LayerCount: 2
Fore
SplineSet
453 150 m 1,0,-1
 412 109 l 1,1,-1
 257 264 l 1,2,-1
 101 107 l 1,3,-1
 60 148 l 1,4,-1
 214 303 l 1,5,-1
 61 457 l 1,6,-1
 102 498 l 1,7,-1
 255 345 l 1,8,-1
 409 499 l 1,9,-1
 452 460 l 1,10,-1
 298 305 l 1,11,-1
 453 150 l 1,0,-1
EndSplineSet
EndChar

StartChar: Oslash
Encoding: 216 216 153
Width: 661
GlyphClass: 2
Flags: W
LayerCount: 2
Fore
SplineSet
116 -76 m 1,0,-1
 480 743 l 1,1,-1
 533 720 l 1,2,-1
 170 -99 l 1,3,-1
 116 -76 l 1,0,-1
331 661 m 0,4,5
 482 661 482 661 540.5 591 c 128,-1,6
 599 521 599 521 599 329 c 0,7,8
 599 232 599 232 576 163 c 128,-1,9
 553 94 553 94 512 58 c 0,10,11
 437 -9 437 -9 331 -9 c 0,12,13
 186 -9 186 -9 136 44 c 0,14,15
 85 99 85 99 70 196 c 0,16,17
 62 252 62 252 62 335.5 c 128,-1,18
 62 419 62 419 87 487 c 128,-1,19
 112 555 112 555 153 591 c 0,20,21
 233 661 233 661 331 661 c 0,4,5
312 599 m 0,22,23
 221 599 221 599 176.5 535.5 c 128,-1,24
 132 472 132 472 132 328 c 0,25,26
 132 192 132 192 166 126 c 0,27,28
 194 71 194 71 268 58 c 0,29,30
 298 52 298 52 345 52 c 0,31,32
 439 52 439 52 484 117 c 128,-1,33
 529 182 529 182 529 329 c 0,34,35
 529 443 529 443 507 502 c 0,36,37
 494 537 494 537 470 557 c 0,38,39
 420 599 420 599 312 599 c 0,22,23
EndSplineSet
EndChar

StartChar: Ugrave
Encoding: 217 217 154
Width: 612
GlyphClass: 2
Flags: W
LayerCount: 2
Fore
SplineSet
310 -10 m 0,0,1
 308 -10 308 -10 296 -10 c 128,-1,2
 284 -10 284 -10 272 -9.5 c 128,-1,3
 260 -9 260 -9 235 -5.5 c 128,-1,4
 210 -2 210 -2 193 5.5 c 128,-1,5
 176 13 176 13 154.5 29 c 128,-1,6
 133 45 133 45 120 67 c 0,7,8
 87 120 87 120 87 204 c 2,9,-1
 87 648 l 1,10,-1
 154 648 l 1,11,-1
 154 204 l 1,12,13
 157 47 157 47 310 47 c 0,14,15
 375 47 375 47 418 85 c 128,-1,16
 461 123 461 123 461 200 c 2,17,-1
 461 648 l 1,18,-1
 526 648 l 1,19,-1
 525 202 l 2,20,21
 525 -10 525 -10 310 -10 c 0,0,1
210 827 m 1,22,-1
 258 872 l 1,23,24
 296 830 296 830 321 811 c 0,25,26
 356 784 356 784 382 767 c 2,27,-1
 402 753 l 1,28,29
 397 746 397 746 388 738 c 128,-1,30
 379 730 379 730 374 724 c 1,31,-1
 306 752 l 1,32,33
 252 789 252 789 210 827 c 1,22,-1
EndSplineSet
EndChar

StartChar: Uacute
Encoding: 218 218 155
Width: 612
GlyphClass: 2
Flags: W
LayerCount: 2
Fore
SplineSet
310 -10 m 0,0,1
 308 -10 308 -10 296 -10 c 128,-1,2
 284 -10 284 -10 272 -9.5 c 128,-1,3
 260 -9 260 -9 235 -5.5 c 128,-1,4
 210 -2 210 -2 193 5.5 c 128,-1,5
 176 13 176 13 154.5 29 c 128,-1,6
 133 45 133 45 120 67 c 0,7,8
 87 120 87 120 87 204 c 2,9,-1
 87 648 l 1,10,-1
 154 648 l 1,11,-1
 154 204 l 1,12,13
 157 47 157 47 310 47 c 0,14,15
 375 47 375 47 418 85 c 128,-1,16
 461 123 461 123 461 200 c 2,17,-1
 461 648 l 1,18,-1
 526 648 l 1,19,-1
 525 202 l 2,20,21
 525 -10 525 -10 310 -10 c 0,0,1
383 875 m 1,22,-1
 431 830 l 1,23,24
 389 792 389 792 335 755 c 1,25,-1
 267 727 l 1,26,27
 262 733 262 733 253 741 c 128,-1,28
 244 749 244 749 239 756 c 1,29,-1
 260 770 l 2,30,31
 320 811 320 811 342.5 833 c 128,-1,32
 365 855 365 855 383 875 c 1,22,-1
EndSplineSet
EndChar

StartChar: Ucircumflex
Encoding: 219 219 156
Width: 612
GlyphClass: 2
Flags: W
LayerCount: 2
Fore
SplineSet
310 -10 m 0,0,1
 308 -10 308 -10 296 -10 c 128,-1,2
 284 -10 284 -10 272 -9.5 c 128,-1,3
 260 -9 260 -9 235 -5.5 c 128,-1,4
 210 -2 210 -2 193 5.5 c 128,-1,5
 176 13 176 13 154.5 29 c 128,-1,6
 133 45 133 45 120 67 c 0,7,8
 87 120 87 120 87 204 c 2,9,-1
 87 648 l 1,10,-1
 154 648 l 1,11,-1
 154 204 l 1,12,13
 157 47 157 47 310 47 c 0,14,15
 375 47 375 47 418 85 c 128,-1,16
 461 123 461 123 461 200 c 2,17,-1
 461 648 l 1,18,-1
 526 648 l 1,19,-1
 525 202 l 2,20,21
 525 -10 525 -10 310 -10 c 0,0,1
306 830 m 1,22,-1
 200 743 l 1,23,-1
 172 773 l 1,24,-1
 276 879 l 1,25,-1
 336 879 l 1,26,-1
 440 773 l 1,27,-1
 411 743 l 1,28,-1
 306 830 l 1,22,-1
EndSplineSet
EndChar

StartChar: Udieresis
Encoding: 220 220 157
Width: 612
GlyphClass: 2
Flags: W
LayerCount: 2
Fore
SplineSet
310 -10 m 0,0,1
 308 -10 308 -10 296 -10 c 128,-1,2
 284 -10 284 -10 272 -9.5 c 128,-1,3
 260 -9 260 -9 235 -5.5 c 128,-1,4
 210 -2 210 -2 193 5.5 c 128,-1,5
 176 13 176 13 154.5 29 c 128,-1,6
 133 45 133 45 120 67 c 0,7,8
 87 120 87 120 87 204 c 2,9,-1
 87 648 l 1,10,-1
 154 648 l 1,11,-1
 154 204 l 1,12,13
 157 47 157 47 310 47 c 0,14,15
 375 47 375 47 418 85 c 128,-1,16
 461 123 461 123 461 200 c 2,17,-1
 461 648 l 1,18,-1
 526 648 l 1,19,-1
 525 202 l 2,20,21
 525 -10 525 -10 310 -10 c 0,0,1
197 814 m 1,22,-1
 269 814 l 1,23,-1
 269 740 l 1,24,-1
 197 740 l 1,25,-1
 197 814 l 1,22,-1
343 814 m 1,26,-1
 415 814 l 1,27,-1
 415 740 l 1,28,-1
 343 740 l 1,29,-1
 343 814 l 1,26,-1
EndSplineSet
EndChar

StartChar: Yacute
Encoding: 221 221 158
Width: 538
GlyphClass: 2
Flags: W
LayerCount: 2
Fore
SplineSet
236 0 m 1,0,-1
 236 265 l 1,1,-1
 30 648 l 1,2,-1
 104 648 l 1,3,-1
 269 324 l 1,4,-1
 437 648 l 1,5,-1
 508 648 l 1,6,-1
 303 265 l 1,7,-1
 302 0 l 1,8,-1
 236 0 l 1,0,-1
345 875 m 1,9,-1
 393 830 l 1,10,11
 351 792 351 792 297 755 c 1,12,-1
 229 727 l 1,13,14
 224 733 224 733 215 741 c 128,-1,15
 206 749 206 749 201 756 c 1,16,-1
 222 770 l 2,17,18
 282 811 282 811 304.5 833 c 128,-1,19
 327 855 327 855 345 875 c 1,9,-1
EndSplineSet
EndChar

StartChar: Thorn
Encoding: 222 222 159
Width: 561
GlyphClass: 2
Flags: W
LayerCount: 2
Fore
SplineSet
264 52 m 2,0,-1
 204 53 l 1,1,-1
 158 53 l 1,2,-1
 158 -201 l 1,3,-1
 91 -201 l 1,4,-1
 91 660 l 1,5,-1
 158 660 l 1,6,-1
 158 447 l 1,7,-1
 281 447 l 2,8,9
 334 447 334 447 370.5 440.5 c 128,-1,10
 407 434 407 434 441 414 c 0,11,12
 509 376 509 376 509 252 c 0,13,14
 509 149 509 149 460 102 c 0,15,16
 439 81 439 81 404 69.5 c 128,-1,17
 369 58 369 58 339 55 c 128,-1,18
 309 52 309 52 264 52 c 2,0,-1
224 110 m 1,19,-1
 300 109 l 1,20,21
 381 109 381 109 410 134.5 c 128,-1,22
 439 160 439 160 439 248 c 128,-1,23
 439 336 439 336 402.5 361 c 128,-1,24
 366 386 366 386 269 386 c 2,25,-1
 158 386 l 1,26,-1
 158 110 l 1,27,-1
 224 110 l 1,19,-1
EndSplineSet
EndChar

StartChar: germandbls
Encoding: 223 223 160
Width: 611
GlyphClass: 2
Flags: W
LayerCount: 2
Fore
SplineSet
91 494 m 1,0,-1
 90 572 l 1,1,2
 90 657 90 657 140.5 697.5 c 128,-1,3
 191 738 191 738 274.5 738 c 128,-1,4
 358 738 358 738 412 699 c 128,-1,5
 466 660 466 660 466 594 c 0,6,7
 466 515 466 515 414 478 c 0,8,9
 392 463 392 463 370 450 c 0,10,11
 318 418 318 418 318 370 c 0,12,13
 318 346 318 346 344.5 330.5 c 128,-1,14
 371 315 371 315 408.5 303.5 c 128,-1,15
 446 292 446 292 483.5 275.5 c 128,-1,16
 521 259 521 259 547.5 223 c 128,-1,17
 574 187 574 187 574 136 c 128,-1,18
 574 85 574 85 544 52 c 0,19,20
 488 -8 488 -8 386 -8 c 0,21,22
 306 -8 306 -8 242 19 c 1,23,-1
 257 68 l 1,24,25
 319 44 319 44 373 44 c 128,-1,26
 427 44 427 44 465.5 66.5 c 128,-1,27
 504 89 504 89 504 132 c 128,-1,28
 504 175 504 175 478 201 c 128,-1,29
 452 227 452 227 415 239.5 c 128,-1,30
 378 252 378 252 341.5 264 c 128,-1,31
 305 276 305 276 279 301 c 128,-1,32
 253 326 253 326 253 365.5 c 128,-1,33
 253 405 253 405 268 432.5 c 128,-1,34
 283 460 283 460 304.5 475.5 c 128,-1,35
 326 491 326 491 347 504 c 0,36,37
 398 537 398 537 398 583 c 128,-1,38
 398 629 398 629 362.5 658.5 c 128,-1,39
 327 688 327 688 272.5 688 c 128,-1,40
 218 688 218 688 185.5 660 c 128,-1,41
 153 632 153 632 153 572 c 2,42,-1
 153 -74 l 1,43,-1
 118 -198 l 1,44,-1
 115 -201 l 1,45,-1
 69 -201 l 1,46,-1
 91 -74 l 1,47,-1
 91 438 l 2,48,49
 91 443 91 443 78 443 c 2,50,-1
 44 443 l 1,51,-1
 45 472 l 1,52,53
 86 491 86 491 91 493 c 1,54,-1
 91 494 l 1,0,-1
EndSplineSet
EndChar

StartChar: agrave
Encoding: 224 224 161
Width: 486
GlyphClass: 2
Flags: W
LayerCount: 2
Fore
SplineSet
408 299 m 1,0,-1
 407 180 l 2,1,2
 407 152 407 152 408 128 c 1,3,-1
 430 6 l 1,4,-1
 431 1 l 1,5,-1
 387 1 l 1,6,-1
 383 4 l 1,7,-1
 359 62 l 1,8,9
 266 -2 266 -2 176 -5 c 1,10,11
 113 -5 113 -5 79.5 28.5 c 128,-1,12
 46 62 46 62 46 123 c 0,13,14
 46 207 46 207 93 237 c 128,-1,15
 140 267 140 267 222 267 c 0,16,17
 232 267 232 267 343 261 c 1,18,-1
 343 326 l 2,19,20
 343 392 343 392 318.5 417.5 c 128,-1,21
 294 443 294 443 250 443 c 128,-1,22
 206 443 206 443 80 416 c 1,23,-1
 71 464 l 1,24,25
 195 501 195 501 249 501 c 0,26,27
 331 501 331 501 379 450 c 0,28,29
 408 419 408 419 408 299 c 1,0,-1
343 211 m 1,30,-1
 238 215 l 1,31,32
 158 215 158 215 134 199 c 128,-1,33
 110 183 110 183 110 135.5 c 128,-1,34
 110 88 110 88 126 70.5 c 128,-1,35
 142 53 142 53 181.5 53 c 128,-1,36
 221 53 221 53 274.5 69 c 128,-1,37
 328 85 328 85 343 106 c 1,38,-1
 343 211 l 1,30,-1
143 671 m 1,39,-1
 191 716 l 1,40,41
 229 674 229 674 254 655 c 0,42,43
 289 628 289 628 314 611 c 2,44,-1
 335 597 l 1,45,46
 330 590 330 590 321 582 c 128,-1,47
 312 574 312 574 307 568 c 1,48,-1
 239 596 l 1,49,50
 185 633 185 633 143 671 c 1,39,-1
EndSplineSet
EndChar

StartChar: aacute
Encoding: 225 225 162
Width: 486
GlyphClass: 2
Flags: W
LayerCount: 2
Fore
SplineSet
408 299 m 1,0,-1
 407 180 l 2,1,2
 407 152 407 152 408 128 c 1,3,-1
 430 6 l 1,4,-1
 431 1 l 1,5,-1
 387 1 l 1,6,-1
 383 4 l 1,7,-1
 359 62 l 1,8,9
 266 -2 266 -2 176 -5 c 1,10,11
 113 -5 113 -5 79.5 28.5 c 128,-1,12
 46 62 46 62 46 123 c 0,13,14
 46 207 46 207 93 237 c 128,-1,15
 140 267 140 267 222 267 c 0,16,17
 232 267 232 267 343 261 c 1,18,-1
 343 326 l 2,19,20
 343 392 343 392 318.5 417.5 c 128,-1,21
 294 443 294 443 250 443 c 128,-1,22
 206 443 206 443 80 416 c 1,23,-1
 71 464 l 1,24,25
 195 501 195 501 249 501 c 0,26,27
 331 501 331 501 379 450 c 0,28,29
 408 419 408 419 408 299 c 1,0,-1
343 211 m 1,30,-1
 238 215 l 1,31,32
 158 215 158 215 134 199 c 128,-1,33
 110 183 110 183 110 135.5 c 128,-1,34
 110 88 110 88 126 70.5 c 128,-1,35
 142 53 142 53 181.5 53 c 128,-1,36
 221 53 221 53 274.5 69 c 128,-1,37
 328 85 328 85 343 106 c 1,38,-1
 343 211 l 1,30,-1
287 719 m 1,39,-1
 335 674 l 1,40,41
 293 636 293 636 239 599 c 1,42,-1
 171 571 l 1,43,44
 166 577 166 577 157 585 c 128,-1,45
 148 593 148 593 143 600 c 1,46,-1
 164 614 l 2,47,48
 224 655 224 655 246.5 677 c 128,-1,49
 269 699 269 699 287 719 c 1,39,-1
EndSplineSet
EndChar

StartChar: acircumflex
Encoding: 226 226 163
Width: 486
GlyphClass: 2
Flags: W
LayerCount: 2
Fore
SplineSet
408 299 m 1,0,-1
 407 180 l 2,1,2
 407 152 407 152 408 128 c 1,3,-1
 430 6 l 1,4,-1
 431 1 l 1,5,-1
 387 1 l 1,6,-1
 383 4 l 1,7,-1
 359 62 l 1,8,9
 266 -2 266 -2 176 -5 c 1,10,11
 113 -5 113 -5 79.5 28.5 c 128,-1,12
 46 62 46 62 46 123 c 0,13,14
 46 207 46 207 93 237 c 128,-1,15
 140 267 140 267 222 267 c 0,16,17
 232 267 232 267 343 261 c 1,18,-1
 343 326 l 2,19,20
 343 392 343 392 318.5 417.5 c 128,-1,21
 294 443 294 443 250 443 c 128,-1,22
 206 443 206 443 80 416 c 1,23,-1
 71 464 l 1,24,25
 195 501 195 501 249 501 c 0,26,27
 331 501 331 501 379 450 c 0,28,29
 408 419 408 419 408 299 c 1,0,-1
343 211 m 1,30,-1
 238 215 l 1,31,32
 158 215 158 215 134 199 c 128,-1,33
 110 183 110 183 110 135.5 c 128,-1,34
 110 88 110 88 126 70.5 c 128,-1,35
 142 53 142 53 181.5 53 c 128,-1,36
 221 53 221 53 274.5 69 c 128,-1,37
 328 85 328 85 343 106 c 1,38,-1
 343 211 l 1,30,-1
239 674 m 1,39,-1
 133 587 l 1,40,-1
 105 617 l 1,41,-1
 209 723 l 1,42,-1
 269 723 l 1,43,-1
 373 617 l 1,44,-1
 344 587 l 1,45,-1
 239 674 l 1,39,-1
EndSplineSet
EndChar

StartChar: atilde
Encoding: 227 227 164
Width: 486
GlyphClass: 2
Flags: W
LayerCount: 2
Fore
SplineSet
408 299 m 1,0,-1
 407 180 l 2,1,2
 407 152 407 152 408 128 c 1,3,-1
 430 6 l 1,4,-1
 431 1 l 1,5,-1
 387 1 l 1,6,-1
 383 4 l 1,7,-1
 359 62 l 1,8,9
 266 -2 266 -2 176 -5 c 1,10,11
 113 -5 113 -5 79.5 28.5 c 128,-1,12
 46 62 46 62 46 123 c 0,13,14
 46 207 46 207 93 237 c 128,-1,15
 140 267 140 267 222 267 c 0,16,17
 232 267 232 267 343 261 c 1,18,-1
 343 326 l 2,19,20
 343 392 343 392 318.5 417.5 c 128,-1,21
 294 443 294 443 250 443 c 128,-1,22
 206 443 206 443 80 416 c 1,23,-1
 71 464 l 1,24,25
 195 501 195 501 249 501 c 0,26,27
 331 501 331 501 379 450 c 0,28,29
 408 419 408 419 408 299 c 1,0,-1
343 211 m 1,30,-1
 238 215 l 1,31,32
 158 215 158 215 134 199 c 128,-1,33
 110 183 110 183 110 135.5 c 128,-1,34
 110 88 110 88 126 70.5 c 128,-1,35
 142 53 142 53 181.5 53 c 128,-1,36
 221 53 221 53 274.5 69 c 128,-1,37
 328 85 328 85 343 106 c 1,38,-1
 343 211 l 1,30,-1
340 596 m 2,39,40
 321 581 321 581 312 579.5 c 128,-1,41
 303 578 303 578 294.5 578 c 128,-1,42
 286 578 286 578 268 583 c 2,43,-1
 183 603 l 1,44,-1
 108 571 l 1,45,-1
 90 599 l 1,46,-1
 132 634 l 2,47,48
 153 652 153 652 160.5 653.5 c 128,-1,49
 168 655 168 655 175.5 655 c 128,-1,50
 183 655 183 655 200 651 c 2,51,-1
 295 629 l 1,52,-1
 369 664 l 1,53,-1
 387 635 l 1,54,-1
 340 596 l 2,39,40
EndSplineSet
EndChar

StartChar: adieresis
Encoding: 228 228 165
Width: 486
GlyphClass: 2
Flags: W
LayerCount: 2
Fore
SplineSet
408 299 m 1,0,-1
 407 180 l 2,1,2
 407 152 407 152 408 128 c 1,3,-1
 430 6 l 1,4,-1
 431 1 l 1,5,-1
 387 1 l 1,6,-1
 383 4 l 1,7,-1
 359 62 l 1,8,9
 266 -2 266 -2 176 -5 c 1,10,11
 113 -5 113 -5 79.5 28.5 c 128,-1,12
 46 62 46 62 46 123 c 0,13,14
 46 207 46 207 93 237 c 128,-1,15
 140 267 140 267 222 267 c 0,16,17
 232 267 232 267 343 261 c 1,18,-1
 343 326 l 2,19,20
 343 392 343 392 318.5 417.5 c 128,-1,21
 294 443 294 443 250 443 c 128,-1,22
 206 443 206 443 80 416 c 1,23,-1
 71 464 l 1,24,25
 195 501 195 501 249 501 c 0,26,27
 331 501 331 501 379 450 c 0,28,29
 408 419 408 419 408 299 c 1,0,-1
343 211 m 1,30,-1
 238 215 l 1,31,32
 158 215 158 215 134 199 c 128,-1,33
 110 183 110 183 110 135.5 c 128,-1,34
 110 88 110 88 126 70.5 c 128,-1,35
 142 53 142 53 181.5 53 c 128,-1,36
 221 53 221 53 274.5 69 c 128,-1,37
 328 85 328 85 343 106 c 1,38,-1
 343 211 l 1,30,-1
132 658 m 1,39,-1
 204 658 l 1,40,-1
 204 584 l 1,41,-1
 132 584 l 1,42,-1
 132 658 l 1,39,-1
278 658 m 1,43,-1
 350 658 l 1,44,-1
 350 584 l 1,45,-1
 278 584 l 1,46,-1
 278 658 l 1,43,-1
EndSplineSet
EndChar

StartChar: aring
Encoding: 229 229 166
Width: 486
GlyphClass: 2
Flags: W
LayerCount: 2
Fore
SplineSet
408 299 m 1,0,-1
 407 180 l 2,1,2
 407 152 407 152 408 128 c 1,3,-1
 430 6 l 1,4,-1
 431 1 l 1,5,-1
 387 1 l 1,6,-1
 383 4 l 1,7,-1
 359 62 l 1,8,9
 266 -2 266 -2 176 -5 c 1,10,11
 113 -5 113 -5 79.5 28.5 c 128,-1,12
 46 62 46 62 46 123 c 0,13,14
 46 207 46 207 93 237 c 128,-1,15
 140 267 140 267 222 267 c 0,16,17
 232 267 232 267 343 261 c 1,18,-1
 343 326 l 2,19,20
 343 392 343 392 318.5 417.5 c 128,-1,21
 294 443 294 443 250 443 c 128,-1,22
 206 443 206 443 80 416 c 1,23,-1
 71 464 l 1,24,25
 195 501 195 501 249 501 c 0,26,27
 331 501 331 501 379 450 c 0,28,29
 408 419 408 419 408 299 c 1,0,-1
343 211 m 1,30,-1
 238 215 l 1,31,32
 158 215 158 215 134 199 c 128,-1,33
 110 183 110 183 110 135.5 c 128,-1,34
 110 88 110 88 126 70.5 c 128,-1,35
 142 53 142 53 181.5 53 c 128,-1,36
 221 53 221 53 274.5 69 c 128,-1,37
 328 85 328 85 343 106 c 1,38,-1
 343 211 l 1,30,-1
336 670 m 128,-1,40
 336 630 336 630 310.5 601 c 128,-1,41
 285 572 285 572 238 572 c 128,-1,42
 191 572 191 572 166.5 600 c 128,-1,43
 142 628 142 628 142 668.5 c 128,-1,44
 142 709 142 709 167 737 c 128,-1,45
 192 765 192 765 239.5 765 c 128,-1,46
 287 765 287 765 311.5 737.5 c 128,-1,39
 336 710 336 710 336 670 c 128,-1,40
282 625.5 m 128,-1,48
 297 645 297 645 297 669.5 c 128,-1,49
 297 694 297 694 282.5 712.5 c 128,-1,50
 268 731 268 731 239.5 731 c 128,-1,51
 211 731 211 731 196 712.5 c 128,-1,52
 181 694 181 694 181 669 c 128,-1,53
 181 644 181 644 195 625 c 128,-1,54
 209 606 209 606 238 606 c 128,-1,47
 267 606 267 606 282 625.5 c 128,-1,48
EndSplineSet
EndChar

StartChar: ae
Encoding: 230 230 167
Width: 781
GlyphClass: 2
Flags: W
LayerCount: 2
Fore
SplineSet
408 299 m 1,0,-1
 407 180 l 2,1,2
 407 152 407 152 408 128 c 2,3,-1
 409 100 l 1,4,5
 396 87 396 87 367.5 66.5 c 128,-1,6
 339 46 339 46 314 32 c 1,7,8
 246 -3 246 -3 179.5 -4 c 128,-1,9
 113 -5 113 -5 79.5 28.5 c 128,-1,10
 46 62 46 62 46 123 c 0,11,12
 46 207 46 207 93 237 c 128,-1,13
 140 267 140 267 222 267 c 0,14,15
 232 267 232 267 343 261 c 1,16,-1
 343 326 l 2,17,18
 343 392 343 392 318.5 417.5 c 128,-1,19
 294 443 294 443 250 443 c 128,-1,20
 206 443 206 443 80 416 c 1,21,-1
 71 464 l 1,22,23
 195 501 195 501 249 501 c 0,24,25
 331 501 331 501 379 450 c 0,26,27
 408 419 408 419 408 299 c 1,0,-1
343 211 m 1,28,-1
 238 215 l 1,29,30
 158 215 158 215 134 199 c 128,-1,31
 110 183 110 183 110 135.5 c 128,-1,32
 110 88 110 88 126 70.5 c 128,-1,33
 142 53 142 53 189 53 c 128,-1,34
 236 53 236 53 283.5 71.5 c 128,-1,35
 331 90 331 90 350 108 c 2,36,-1
 369 127 l 1,37,-1
 343 211 l 1,28,-1
729 321 m 0,38,39
 729 285 729 285 723 246 c 1,40,-1
 409 246 l 1,41,42
 413 136 413 136 446 94.5 c 128,-1,43
 479 53 479 53 563 53 c 0,44,45
 626 53 626 53 710 80 c 1,46,-1
 716 30 l 1,47,48
 693 21 693 21 680.5 17.5 c 128,-1,49
 668 14 668 14 654 9.5 c 128,-1,50
 640 5 640 5 633 3 c 128,-1,51
 626 1 626 1 613 -2 c 128,-1,52
 600 -5 600 -5 591 -6 c 0,53,54
 564 -9 564 -9 545 -9 c 0,55,56
 451 -9 451 -9 397 57 c 128,-1,57
 343 123 343 123 343 241 c 0,58,59
 343 306 343 306 359 355.5 c 128,-1,60
 375 405 375 405 397 431.5 c 128,-1,61
 419 458 419 458 450 474 c 0,62,63
 496 499 496 499 550 501 c 1,64,65
 729 500 729 500 729 321 c 0,38,39
666 337 m 0,66,67
 666 397 666 397 636 421 c 128,-1,68
 606 445 606 445 547 445 c 128,-1,69
 488 445 488 445 450 413.5 c 128,-1,70
 412 382 412 382 411 297 c 1,71,-1
 663 297 l 1,72,73
 666 320 666 320 666 337 c 0,66,67
EndSplineSet
EndChar

StartChar: ccedilla
Encoding: 231 231 168
Width: 451
GlyphClass: 2
Flags: W
LayerCount: 2
Fore
SplineSet
211 490 m 128,-1,1
 175 479 175 479 137.5 453 c 128,-1,2
 100 427 100 427 77 373.5 c 128,-1,3
 54 320 54 320 54 245 c 0,4,5
 54 85 54 85 124 33 c 0,6,7
 157 8 157 8 190.5 -1 c 128,-1,8
 224 -10 224 -10 269 -10 c 0,9,10
 356 -10 356 -10 421 37 c 1,11,-1
 394 79 l 1,12,13
 336 43 336 43 285 43 c 0,14,15
 121 43 121 43 121 245 c 0,16,17
 121 360 121 360 166 404.5 c 128,-1,18
 211 449 211 449 297 449 c 0,19,20
 330 449 330 449 385 438 c 1,21,-1
 393 482 l 1,22,23
 338 501 338 501 292.5 501 c 128,-1,0
 247 501 247 501 211 490 c 128,-1,1
218 -5 m 1,24,-1
 278 -5 l 1,25,-1
 278 -64 l 1,26,-1
 236 -174 l 1,27,-1
 233 -178 l 1,28,-1
 189 -178 l 1,29,-1
 218 -64 l 1,30,-1
 218 -5 l 1,24,-1
EndSplineSet
EndChar

StartChar: egrave
Encoding: 232 232 169
Width: 492
GlyphClass: 2
Flags: W
LayerCount: 2
Fore
SplineSet
440 321 m 0,0,1
 440 285 440 285 434 246 c 1,2,-1
 120 246 l 1,3,4
 124 136 124 136 157 94.5 c 128,-1,5
 190 53 190 53 274 53 c 0,6,7
 337 53 337 53 421 80 c 1,8,-1
 427 30 l 1,9,10
 404 21 404 21 391.5 17.5 c 128,-1,11
 379 14 379 14 365 9.5 c 128,-1,12
 351 5 351 5 344 3 c 128,-1,13
 337 1 337 1 324 -2 c 128,-1,14
 311 -5 311 -5 302 -6 c 0,15,16
 275 -9 275 -9 256 -9 c 0,17,18
 162 -9 162 -9 108 57 c 128,-1,19
 54 123 54 123 54 241 c 0,20,21
 54 306 54 306 70 355.5 c 128,-1,22
 86 405 86 405 108 431.5 c 128,-1,23
 130 458 130 458 161 474 c 0,24,25
 207 499 207 499 261 501 c 1,26,27
 440 500 440 500 440 321 c 0,0,1
377 337 m 0,28,29
 377 397 377 397 347 421 c 128,-1,30
 317 445 317 445 258 445 c 128,-1,31
 199 445 199 445 161 413.5 c 128,-1,32
 123 382 123 382 122 297 c 1,33,-1
 374 297 l 1,34,35
 377 320 377 320 377 337 c 0,28,29
158 671 m 1,36,-1
 206 716 l 1,37,38
 244 674 244 674 269 655 c 0,39,40
 304 628 304 628 330 611 c 2,41,-1
 350 597 l 1,42,43
 345 590 345 590 336 582 c 128,-1,44
 327 574 327 574 322 568 c 1,45,-1
 254 596 l 1,46,47
 200 633 200 633 158 671 c 1,36,-1
EndSplineSet
EndChar

StartChar: eacute
Encoding: 233 233 170
Width: 492
GlyphClass: 2
Flags: W
LayerCount: 2
Fore
SplineSet
440 321 m 0,0,1
 440 285 440 285 434 246 c 1,2,-1
 120 246 l 1,3,4
 124 136 124 136 157 94.5 c 128,-1,5
 190 53 190 53 274 53 c 0,6,7
 337 53 337 53 421 80 c 1,8,-1
 427 30 l 1,9,10
 404 21 404 21 391.5 17.5 c 128,-1,11
 379 14 379 14 365 9.5 c 128,-1,12
 351 5 351 5 344 3 c 128,-1,13
 337 1 337 1 324 -2 c 128,-1,14
 311 -5 311 -5 302 -6 c 0,15,16
 275 -9 275 -9 256 -9 c 0,17,18
 162 -9 162 -9 108 57 c 128,-1,19
 54 123 54 123 54 241 c 0,20,21
 54 306 54 306 70 355.5 c 128,-1,22
 86 405 86 405 108 431.5 c 128,-1,23
 130 458 130 458 161 474 c 0,24,25
 207 499 207 499 261 501 c 1,26,27
 440 500 440 500 440 321 c 0,0,1
377 337 m 0,28,29
 377 397 377 397 347 421 c 128,-1,30
 317 445 317 445 258 445 c 128,-1,31
 199 445 199 445 161 413.5 c 128,-1,32
 123 382 123 382 122 297 c 1,33,-1
 374 297 l 1,34,35
 377 320 377 320 377 337 c 0,28,29
325 719 m 1,36,-1
 373 674 l 1,37,38
 331 636 331 636 277 599 c 1,39,-1
 209 571 l 1,40,41
 204 577 204 577 195 585 c 128,-1,42
 186 593 186 593 181 600 c 1,43,-1
 202 614 l 2,44,45
 262 655 262 655 284.5 677 c 128,-1,46
 307 699 307 699 325 719 c 1,36,-1
EndSplineSet
EndChar

StartChar: ecircumflex
Encoding: 234 234 171
Width: 492
GlyphClass: 2
Flags: W
LayerCount: 2
Fore
SplineSet
440 321 m 0,0,1
 440 285 440 285 434 246 c 1,2,-1
 120 246 l 1,3,4
 124 136 124 136 157 94.5 c 128,-1,5
 190 53 190 53 274 53 c 0,6,7
 337 53 337 53 421 80 c 1,8,-1
 427 30 l 1,9,10
 404 21 404 21 391.5 17.5 c 128,-1,11
 379 14 379 14 365 9.5 c 128,-1,12
 351 5 351 5 344 3 c 128,-1,13
 337 1 337 1 324 -2 c 128,-1,14
 311 -5 311 -5 302 -6 c 0,15,16
 275 -9 275 -9 256 -9 c 0,17,18
 162 -9 162 -9 108 57 c 128,-1,19
 54 123 54 123 54 241 c 0,20,21
 54 306 54 306 70 355.5 c 128,-1,22
 86 405 86 405 108 431.5 c 128,-1,23
 130 458 130 458 161 474 c 0,24,25
 207 499 207 499 261 501 c 1,26,27
 440 500 440 500 440 321 c 0,0,1
377 337 m 0,28,29
 377 397 377 397 347 421 c 128,-1,30
 317 445 317 445 258 445 c 128,-1,31
 199 445 199 445 161 413.5 c 128,-1,32
 123 382 123 382 122 297 c 1,33,-1
 374 297 l 1,34,35
 377 320 377 320 377 337 c 0,28,29
254 674 m 1,36,-1
 148 587 l 1,37,-1
 120 617 l 1,38,-1
 224 723 l 1,39,-1
 284 723 l 1,40,-1
 388 617 l 1,41,-1
 359 587 l 1,42,-1
 254 674 l 1,36,-1
EndSplineSet
EndChar

StartChar: edieresis
Encoding: 235 235 172
Width: 492
GlyphClass: 2
Flags: W
LayerCount: 2
Fore
SplineSet
440 321 m 0,0,1
 440 285 440 285 434 246 c 1,2,-1
 120 246 l 1,3,4
 124 136 124 136 157 94.5 c 128,-1,5
 190 53 190 53 274 53 c 0,6,7
 337 53 337 53 421 80 c 1,8,-1
 427 30 l 1,9,10
 404 21 404 21 391.5 17.5 c 128,-1,11
 379 14 379 14 365 9.5 c 128,-1,12
 351 5 351 5 344 3 c 128,-1,13
 337 1 337 1 324 -2 c 128,-1,14
 311 -5 311 -5 302 -6 c 0,15,16
 275 -9 275 -9 256 -9 c 0,17,18
 162 -9 162 -9 108 57 c 128,-1,19
 54 123 54 123 54 241 c 0,20,21
 54 306 54 306 70 355.5 c 128,-1,22
 86 405 86 405 108 431.5 c 128,-1,23
 130 458 130 458 161 474 c 0,24,25
 207 499 207 499 261 501 c 1,26,27
 440 500 440 500 440 321 c 0,0,1
377 337 m 0,28,29
 377 397 377 397 347 421 c 128,-1,30
 317 445 317 445 258 445 c 128,-1,31
 199 445 199 445 161 413.5 c 128,-1,32
 123 382 123 382 122 297 c 1,33,-1
 374 297 l 1,34,35
 377 320 377 320 377 337 c 0,28,29
146 658 m 1,36,-1
 218 658 l 1,37,-1
 218 584 l 1,38,-1
 146 584 l 1,39,-1
 146 658 l 1,36,-1
292 658 m 1,40,-1
 364 658 l 1,41,-1
 364 584 l 1,42,-1
 292 584 l 1,43,-1
 292 658 l 1,40,-1
EndSplineSet
EndChar

StartChar: igrave
Encoding: 236 236 173
Width: 218
GlyphClass: 2
Flags: W
LayerCount: 2
Fore
SplineSet
78 492 m 1,0,-1
 140 492 l 1,1,-1
 140 0 l 1,2,-1
 78 0 l 1,3,-1
 78 492 l 1,0,-1
11 671 m 1,4,-1
 59 716 l 1,5,6
 97 674 97 674 122 655 c 0,7,8
 157 628 157 628 182 611 c 2,9,-1
 203 597 l 1,10,11
 198 590 198 590 189 582 c 128,-1,12
 180 574 180 574 175 568 c 1,13,-1
 107 596 l 1,14,15
 53 633 53 633 11 671 c 1,4,-1
EndSplineSet
EndChar

StartChar: iacute
Encoding: 237 237 174
Width: 221
GlyphClass: 2
Flags: W
LayerCount: 2
Fore
SplineSet
78 493 m 1,0,-1
 143 493 l 1,1,-1
 143 1 l 1,2,-1
 78 1 l 1,3,-1
 78 493 l 1,0,-1
197 710 m 1,4,-1
 246 664 l 1,5,6
 204 627 204 627 149 590 c 1,7,-1
 81 562 l 1,8,9
 76 569 76 569 67 577 c 128,-1,10
 58 585 58 585 53 591 c 1,11,12
 54 592 54 592 68 601 c 128,-1,13
 82 610 82 610 86 613 c 128,-1,14
 90 616 90 616 103.5 625 c 128,-1,15
 117 634 117 634 125 641 c 128,-1,16
 133 648 133 648 146 659 c 0,17,18
 163 673 163 673 197 710 c 1,4,-1
EndSplineSet
EndChar

StartChar: icircumflex
Encoding: 238 238 175
Width: 221
GlyphClass: 2
Flags: W
LayerCount: 2
Fore
SplineSet
78 493 m 1,0,-1
 143 493 l 1,1,-1
 143 1 l 1,2,-1
 78 1 l 1,3,-1
 78 493 l 1,0,-1
111 674 m 1,4,-1
 5 587 l 1,5,-1
 -23 617 l 1,6,-1
 81 723 l 1,7,-1
 141 723 l 1,8,-1
 245 617 l 1,9,-1
 216 587 l 1,10,-1
 111 674 l 1,4,-1
EndSplineSet
EndChar

StartChar: idieresis
Encoding: 239 239 176
Width: 221
GlyphClass: 2
Flags: W
LayerCount: 2
Fore
SplineSet
78 493 m 1,0,-1
 143 493 l 1,1,-1
 143 1 l 1,2,-1
 78 1 l 1,3,-1
 78 493 l 1,0,-1
9 658 m 1,4,-1
 81 658 l 1,5,-1
 81 584 l 1,6,-1
 9 584 l 1,7,-1
 9 658 l 1,4,-1
155 658 m 1,8,-1
 227 658 l 1,9,-1
 227 584 l 1,10,-1
 155 584 l 1,11,-1
 155 658 l 1,8,-1
EndSplineSet
EndChar

StartChar: eth
Encoding: 240 240 177
Width: 518
GlyphClass: 2
Flags: W
LayerCount: 2
Fore
SplineSet
434 123.5 m 128,-1,1
 419 66 419 66 398 42 c 1,2,3
 351 -8 351 -8 251.5 -8 c 128,-1,4
 152 -8 152 -8 104 55.5 c 128,-1,5
 56 119 56 119 56 222 c 128,-1,6
 56 325 56 325 99 383 c 128,-1,7
 142 441 142 441 207.5 441 c 128,-1,8
 273 441 273 441 375 412 c 1,9,10
 369 495 369 495 349 538.5 c 128,-1,11
 329 582 329 582 286 612 c 1,12,-1
 216 538 l 1,13,-1
 177 575 l 1,14,-1
 237 640 l 1,15,-1
 115 695 l 1,16,-1
 135 741 l 1,17,-1
 266 695 l 2,18,19
 269 693 269 693 282 688 c 1,20,-1
 339 748 l 1,21,-1
 378 711 l 1,22,-1
 331 661 l 1,23,24
 393 618 393 618 421 539.5 c 128,-1,25
 449 461 449 461 449 321 c 128,-1,0
 449 181 449 181 434 123.5 c 128,-1,1
379 216 m 2,26,-1
 378 322 l 1,27,-1
 378 355 l 1,28,29
 276 381 276 381 225 381 c 0,30,31
 120 381 120 381 120 216 c 0,32,33
 120 132 120 132 147 92 c 128,-1,34
 174 52 174 52 235 52 c 0,35,36
 327 52 327 52 354 99 c 0,37,38
 365 117 365 117 370 130 c 0,39,40
 379 155 379 155 379 216 c 2,26,-1
EndSplineSet
EndChar

StartChar: ntilde
Encoding: 241 241 178
Width: 525
GlyphClass: 2
Flags: W
LayerCount: 2
Fore
SplineSet
450 1 m 1,0,-1
 384 1 l 1,1,-1
 384 352 l 1,2,3
 383 401 383 401 357 422 c 128,-1,4
 331 443 331 443 282.5 443 c 128,-1,5
 234 443 234 443 193.5 424 c 128,-1,6
 153 405 153 405 146 388 c 1,7,-1
 146 1 l 1,8,-1
 80 1 l 1,9,-1
 80 365 l 1,10,-1
 63 487 l 1,11,-1
 108 487 l 1,12,-1
 111 485 l 1,13,-1
 130 434 l 1,14,15
 165 458 165 458 186 470 c 0,16,17
 242 503 242 503 307 503 c 0,18,19
 447 503 447 503 450 352 c 1,20,-1
 450 1 l 1,0,-1
361 597 m 2,21,22
 342 582 342 582 333 580.5 c 128,-1,23
 324 579 324 579 315.5 579 c 128,-1,24
 307 579 307 579 289 584 c 2,25,-1
 204 604 l 1,26,-1
 129 572 l 1,27,-1
 111 600 l 1,28,-1
 153 635 l 2,29,30
 174 653 174 653 181.5 654.5 c 128,-1,31
 189 656 189 656 196.5 656 c 128,-1,32
 204 656 204 656 221 652 c 2,33,-1
 316 630 l 1,34,-1
 390 665 l 1,35,-1
 408 636 l 1,36,-1
 361 597 l 2,21,22
EndSplineSet
EndChar

StartChar: ograve
Encoding: 242 242 179
Width: 526
GlyphClass: 2
Flags: W
LayerCount: 2
Fore
SplineSet
312.5 439 m 128,-1,1
 291 444 291 444 253 444 c 128,-1,2
 215 444 215 444 186.5 431.5 c 128,-1,3
 158 419 158 419 144.5 389.5 c 128,-1,4
 131 360 131 360 127 329.5 c 128,-1,5
 123 299 123 299 123 246 c 0,6,7
 123 133 123 133 148.5 90 c 128,-1,8
 174 47 174 47 261 47 c 0,9,10
 308 47 308 47 337 59 c 128,-1,11
 366 71 366 71 380 99.5 c 128,-1,12
 394 128 394 128 398 159.5 c 128,-1,13
 402 191 402 191 402 234.5 c 128,-1,14
 402 278 402 278 401.5 296.5 c 128,-1,15
 401 315 401 315 398 339.5 c 128,-1,16
 395 364 395 364 389.5 377 c 128,-1,17
 384 390 384 390 374 405 c 128,-1,18
 364 420 364 420 349 427 c 128,-1,0
 334 434 334 434 312.5 439 c 128,-1,1
385 479.5 m 128,-1,20
 428 459 428 459 449 404 c 128,-1,21
 470 349 470 349 470 262 c 128,-1,22
 470 175 470 175 451.5 123 c 128,-1,23
 433 71 433 71 402 43 c 0,24,25
 342 -11 342 -11 262 -11 c 0,26,27
 145 -11 145 -11 100 44 c 128,-1,28
 55 99 55 99 55 245 c 0,29,30
 55 315 55 315 74 367 c 128,-1,31
 93 419 93 419 125 446 c 0,32,33
 187 500 187 500 264.5 500 c 128,-1,19
 342 500 342 500 385 479.5 c 128,-1,20
158 671 m 1,34,-1
 206 716 l 1,35,36
 244 674 244 674 269 655 c 0,37,38
 304 628 304 628 330 611 c 2,39,-1
 350 597 l 1,40,41
 345 590 345 590 336 582 c 128,-1,42
 327 574 327 574 322 568 c 1,43,-1
 254 596 l 1,44,45
 200 633 200 633 158 671 c 1,34,-1
EndSplineSet
EndChar

StartChar: oacute
Encoding: 243 243 180
Width: 526
GlyphClass: 2
Flags: W
LayerCount: 2
Fore
SplineSet
312.5 439 m 128,-1,1
 291 444 291 444 253 444 c 128,-1,2
 215 444 215 444 186.5 431.5 c 128,-1,3
 158 419 158 419 144.5 389.5 c 128,-1,4
 131 360 131 360 127 329.5 c 128,-1,5
 123 299 123 299 123 246 c 0,6,7
 123 133 123 133 148.5 90 c 128,-1,8
 174 47 174 47 261 47 c 0,9,10
 308 47 308 47 337 59 c 128,-1,11
 366 71 366 71 380 99.5 c 128,-1,12
 394 128 394 128 398 159.5 c 128,-1,13
 402 191 402 191 402 234.5 c 128,-1,14
 402 278 402 278 401.5 296.5 c 128,-1,15
 401 315 401 315 398 339.5 c 128,-1,16
 395 364 395 364 389.5 377 c 128,-1,17
 384 390 384 390 374 405 c 128,-1,18
 364 420 364 420 349 427 c 128,-1,0
 334 434 334 434 312.5 439 c 128,-1,1
385 479.5 m 128,-1,20
 428 459 428 459 449 404 c 128,-1,21
 470 349 470 349 470 262 c 128,-1,22
 470 175 470 175 451.5 123 c 128,-1,23
 433 71 433 71 402 43 c 0,24,25
 342 -11 342 -11 262 -11 c 0,26,27
 145 -11 145 -11 100 44 c 128,-1,28
 55 99 55 99 55 245 c 0,29,30
 55 315 55 315 74 367 c 128,-1,31
 93 419 93 419 125 446 c 0,32,33
 187 500 187 500 264.5 500 c 128,-1,19
 342 500 342 500 385 479.5 c 128,-1,20
320 719 m 1,34,-1
 368 674 l 1,35,36
 326 636 326 636 272 599 c 1,37,-1
 204 571 l 1,38,39
 199 577 199 577 190 585 c 128,-1,40
 181 593 181 593 176 600 c 1,41,-1
 196 614 l 1,42,43
 257 655 257 655 279.5 677 c 128,-1,44
 302 699 302 699 320 719 c 1,34,-1
EndSplineSet
EndChar

StartChar: ocircumflex
Encoding: 244 244 181
Width: 526
GlyphClass: 2
Flags: W
LayerCount: 2
Fore
SplineSet
312.5 439 m 128,-1,1
 291 444 291 444 253 444 c 128,-1,2
 215 444 215 444 186.5 431.5 c 128,-1,3
 158 419 158 419 144.5 389.5 c 128,-1,4
 131 360 131 360 127 329.5 c 128,-1,5
 123 299 123 299 123 246 c 0,6,7
 123 133 123 133 148.5 90 c 128,-1,8
 174 47 174 47 261 47 c 0,9,10
 308 47 308 47 337 59 c 128,-1,11
 366 71 366 71 380 99.5 c 128,-1,12
 394 128 394 128 398 159.5 c 128,-1,13
 402 191 402 191 402 234.5 c 128,-1,14
 402 278 402 278 401.5 296.5 c 128,-1,15
 401 315 401 315 398 339.5 c 128,-1,16
 395 364 395 364 389.5 377 c 128,-1,17
 384 390 384 390 374 405 c 128,-1,18
 364 420 364 420 349 427 c 128,-1,0
 334 434 334 434 312.5 439 c 128,-1,1
385 479.5 m 128,-1,20
 428 459 428 459 449 404 c 128,-1,21
 470 349 470 349 470 262 c 128,-1,22
 470 175 470 175 451.5 123 c 128,-1,23
 433 71 433 71 402 43 c 0,24,25
 342 -11 342 -11 262 -11 c 0,26,27
 145 -11 145 -11 100 44 c 128,-1,28
 55 99 55 99 55 245 c 0,29,30
 55 315 55 315 74 367 c 128,-1,31
 93 419 93 419 125 446 c 0,32,33
 187 500 187 500 264.5 500 c 128,-1,19
 342 500 342 500 385 479.5 c 128,-1,20
254 674 m 1,34,-1
 148 587 l 1,35,-1
 120 617 l 1,36,-1
 224 723 l 1,37,-1
 284 723 l 1,38,-1
 388 617 l 1,39,-1
 359 587 l 1,40,-1
 254 674 l 1,34,-1
EndSplineSet
EndChar

StartChar: otilde
Encoding: 245 245 182
Width: 526
GlyphClass: 2
Flags: W
LayerCount: 2
Fore
SplineSet
312.5 439 m 128,-1,1
 291 444 291 444 253 444 c 128,-1,2
 215 444 215 444 186.5 431.5 c 128,-1,3
 158 419 158 419 144.5 389.5 c 128,-1,4
 131 360 131 360 127 329.5 c 128,-1,5
 123 299 123 299 123 246 c 0,6,7
 123 133 123 133 148.5 90 c 128,-1,8
 174 47 174 47 261 47 c 0,9,10
 308 47 308 47 337 59 c 128,-1,11
 366 71 366 71 380 99.5 c 128,-1,12
 394 128 394 128 398 159.5 c 128,-1,13
 402 191 402 191 402 234.5 c 128,-1,14
 402 278 402 278 401.5 296.5 c 128,-1,15
 401 315 401 315 398 339.5 c 128,-1,16
 395 364 395 364 389.5 377 c 128,-1,17
 384 390 384 390 374 405 c 128,-1,18
 364 420 364 420 349 427 c 128,-1,0
 334 434 334 434 312.5 439 c 128,-1,1
385 479.5 m 128,-1,20
 428 459 428 459 449 404 c 128,-1,21
 470 349 470 349 470 262 c 128,-1,22
 470 175 470 175 451.5 123 c 128,-1,23
 433 71 433 71 402 43 c 0,24,25
 342 -11 342 -11 262 -11 c 0,26,27
 145 -11 145 -11 100 44 c 128,-1,28
 55 99 55 99 55 245 c 0,29,30
 55 315 55 315 74 367 c 128,-1,31
 93 419 93 419 125 446 c 0,32,33
 187 500 187 500 264.5 500 c 128,-1,19
 342 500 342 500 385 479.5 c 128,-1,20
356 596 m 2,34,35
 337 581 337 581 328 579.5 c 128,-1,36
 319 578 319 578 310.5 578 c 128,-1,37
 302 578 302 578 284 583 c 2,38,-1
 199 603 l 1,39,-1
 124 571 l 1,40,-1
 106 599 l 1,41,-1
 148 634 l 2,42,43
 169 652 169 652 176.5 653.5 c 128,-1,44
 184 655 184 655 191.5 655 c 128,-1,45
 199 655 199 655 216 651 c 2,46,-1
 311 629 l 1,47,-1
 385 664 l 1,48,-1
 403 635 l 1,49,-1
 356 596 l 2,34,35
EndSplineSet
EndChar

StartChar: odieresis
Encoding: 246 246 183
Width: 526
GlyphClass: 2
Flags: W
LayerCount: 2
Fore
SplineSet
312.5 439 m 128,-1,1
 291 444 291 444 253 444 c 128,-1,2
 215 444 215 444 186.5 431.5 c 128,-1,3
 158 419 158 419 144.5 389.5 c 128,-1,4
 131 360 131 360 127 329.5 c 128,-1,5
 123 299 123 299 123 246 c 0,6,7
 123 133 123 133 148.5 90 c 128,-1,8
 174 47 174 47 261 47 c 0,9,10
 308 47 308 47 337 59 c 128,-1,11
 366 71 366 71 380 99.5 c 128,-1,12
 394 128 394 128 398 159.5 c 128,-1,13
 402 191 402 191 402 234.5 c 128,-1,14
 402 278 402 278 401.5 296.5 c 128,-1,15
 401 315 401 315 398 339.5 c 128,-1,16
 395 364 395 364 389.5 377 c 128,-1,17
 384 390 384 390 374 405 c 128,-1,18
 364 420 364 420 349 427 c 128,-1,0
 334 434 334 434 312.5 439 c 128,-1,1
385 479.5 m 128,-1,20
 428 459 428 459 449 404 c 128,-1,21
 470 349 470 349 470 262 c 128,-1,22
 470 175 470 175 451.5 123 c 128,-1,23
 433 71 433 71 402 43 c 0,24,25
 342 -11 342 -11 262 -11 c 0,26,27
 145 -11 145 -11 100 44 c 128,-1,28
 55 99 55 99 55 245 c 0,29,30
 55 315 55 315 74 367 c 128,-1,31
 93 419 93 419 125 446 c 0,32,33
 187 500 187 500 264.5 500 c 128,-1,19
 342 500 342 500 385 479.5 c 128,-1,20
146 658 m 1,34,-1
 218 658 l 1,35,-1
 218 584 l 1,36,-1
 146 584 l 1,37,-1
 146 658 l 1,34,-1
292 658 m 1,38,-1
 364 658 l 1,39,-1
 364 584 l 1,40,-1
 292 584 l 1,41,-1
 292 658 l 1,38,-1
EndSplineSet
EndChar

StartChar: divide
Encoding: 247 247 184
Width: 527
GlyphClass: 2
Flags: W
LayerCount: 2
Fore
SplineSet
67 269 m 1,0,-1
 67 328 l 1,1,-1
 460 328 l 1,2,-1
 460 269 l 1,3,-1
 67 269 l 1,0,-1
306 501 m 1,4,-1
 306 410 l 1,5,-1
 221 410 l 1,6,-1
 222 501 l 1,7,-1
 306 501 l 1,4,-1
306 186 m 1,8,-1
 306 95 l 1,9,-1
 221 95 l 1,10,-1
 222 186 l 1,11,-1
 306 186 l 1,8,-1
EndSplineSet
EndChar

StartChar: oslash
Encoding: 248 248 185
Width: 526
GlyphClass: 2
Flags: W
LayerCount: 2
Fore
SplineSet
104 -51 m 1,0,-1
 375 556 l 1,1,-1
 428 533 l 1,2,-1
 158 -74 l 1,3,-1
 104 -51 l 1,0,-1
312.5 439 m 128,-1,5
 291 444 291 444 253 444 c 128,-1,6
 215 444 215 444 186.5 431.5 c 128,-1,7
 158 419 158 419 144.5 389.5 c 128,-1,8
 131 360 131 360 127 329.5 c 128,-1,9
 123 299 123 299 123 246 c 0,10,11
 123 133 123 133 148.5 90 c 128,-1,12
 174 47 174 47 261 47 c 0,13,14
 308 47 308 47 337 59 c 128,-1,15
 366 71 366 71 380 99.5 c 128,-1,16
 394 128 394 128 398 159.5 c 128,-1,17
 402 191 402 191 402 234.5 c 128,-1,18
 402 278 402 278 401.5 296.5 c 128,-1,19
 401 315 401 315 398 339.5 c 128,-1,20
 395 364 395 364 389.5 377 c 128,-1,21
 384 390 384 390 374 405 c 128,-1,22
 364 420 364 420 349 427 c 128,-1,4
 334 434 334 434 312.5 439 c 128,-1,5
385 479.5 m 128,-1,24
 428 459 428 459 449 404 c 128,-1,25
 470 349 470 349 470 262 c 128,-1,26
 470 175 470 175 451.5 123 c 128,-1,27
 433 71 433 71 402 43 c 0,28,29
 342 -11 342 -11 262 -11 c 0,30,31
 145 -11 145 -11 100 44 c 128,-1,32
 55 99 55 99 55 245 c 0,33,34
 55 315 55 315 74 367 c 128,-1,35
 93 419 93 419 125 446 c 0,36,37
 187 500 187 500 264.5 500 c 128,-1,23
 342 500 342 500 385 479.5 c 128,-1,24
EndSplineSet
EndChar

StartChar: ugrave
Encoding: 249 249 186
Width: 524
GlyphClass: 2
Flags: W
LayerCount: 2
Fore
SplineSet
75 492 m 1,0,-1
 140 492 l 1,1,-1
 140 141 l 1,2,3
 141 91 141 91 167.5 71 c 128,-1,4
 194 51 194 51 244.5 51 c 128,-1,5
 295 51 295 51 333.5 70 c 128,-1,6
 372 89 372 89 379 106 c 1,7,-1
 379 492 l 1,8,-1
 443 492 l 1,9,-1
 443 129 l 1,10,-1
 461 0 l 1,11,-1
 419 0 l 1,12,-1
 416 3 l 1,13,-1
 395 59 l 1,14,15
 356 33 356 33 339 22.5 c 128,-1,16
 322 12 322 12 289.5 1.5 c 128,-1,17
 257 -9 257 -9 221 -9 c 0,18,19
 78 -9 78 -9 75 142 c 1,20,-1
 75 492 l 1,0,-1
173 671 m 1,21,-1
 221 716 l 1,22,23
 259 674 259 674 284 655 c 0,24,25
 319 628 319 628 344 611 c 2,26,-1
 365 597 l 1,27,28
 360 590 360 590 351 582 c 128,-1,29
 342 574 342 574 337 568 c 1,30,-1
 269 596 l 1,31,32
 215 633 215 633 173 671 c 1,21,-1
EndSplineSet
EndChar

StartChar: uacute
Encoding: 250 250 187
Width: 524
GlyphClass: 2
Flags: W
LayerCount: 2
Fore
SplineSet
75 492 m 1,0,-1
 140 492 l 1,1,-1
 140 141 l 1,2,3
 141 91 141 91 167.5 71 c 128,-1,4
 194 51 194 51 244.5 51 c 128,-1,5
 295 51 295 51 333.5 70 c 128,-1,6
 372 89 372 89 379 106 c 1,7,-1
 379 492 l 1,8,-1
 443 492 l 1,9,-1
 443 129 l 1,10,-1
 461 0 l 1,11,-1
 419 0 l 1,12,-1
 416 3 l 1,13,-1
 395 59 l 1,14,15
 356 33 356 33 339 22.5 c 128,-1,16
 322 12 322 12 289.5 1.5 c 128,-1,17
 257 -9 257 -9 221 -9 c 0,18,19
 78 -9 78 -9 75 142 c 1,20,-1
 75 492 l 1,0,-1
348 719 m 1,21,-1
 396 674 l 1,22,23
 354 636 354 636 300 599 c 1,24,-1
 232 571 l 1,25,26
 227 577 227 577 218 585 c 128,-1,27
 209 593 209 593 204 600 c 1,28,-1
 224 614 l 1,29,30
 285 655 285 655 307.5 677 c 128,-1,31
 330 699 330 699 348 719 c 1,21,-1
EndSplineSet
EndChar

StartChar: ucircumflex
Encoding: 251 251 188
Width: 524
GlyphClass: 2
Flags: W
LayerCount: 2
Fore
SplineSet
75 492 m 1,0,-1
 140 492 l 1,1,-1
 140 141 l 1,2,3
 141 91 141 91 167.5 71 c 128,-1,4
 194 51 194 51 244.5 51 c 128,-1,5
 295 51 295 51 333.5 70 c 128,-1,6
 372 89 372 89 379 106 c 1,7,-1
 379 492 l 1,8,-1
 443 492 l 1,9,-1
 443 129 l 1,10,-1
 461 0 l 1,11,-1
 419 0 l 1,12,-1
 416 3 l 1,13,-1
 395 59 l 1,14,15
 356 33 356 33 339 22.5 c 128,-1,16
 322 12 322 12 289.5 1.5 c 128,-1,17
 257 -9 257 -9 221 -9 c 0,18,19
 78 -9 78 -9 75 142 c 1,20,-1
 75 492 l 1,0,-1
269 674 m 1,21,-1
 163 587 l 1,22,-1
 135 617 l 1,23,-1
 239 723 l 1,24,-1
 299 723 l 1,25,-1
 403 617 l 1,26,-1
 374 587 l 1,27,-1
 269 674 l 1,21,-1
EndSplineSet
EndChar

StartChar: udieresis
Encoding: 252 252 189
Width: 524
GlyphClass: 2
Flags: W
LayerCount: 2
Fore
SplineSet
75 492 m 1,0,-1
 140 492 l 1,1,-1
 140 141 l 1,2,3
 141 91 141 91 167.5 71 c 128,-1,4
 194 51 194 51 244.5 51 c 128,-1,5
 295 51 295 51 333.5 70 c 128,-1,6
 372 89 372 89 379 106 c 1,7,-1
 379 492 l 1,8,-1
 443 492 l 1,9,-1
 443 129 l 1,10,-1
 461 0 l 1,11,-1
 419 0 l 1,12,-1
 416 3 l 1,13,-1
 395 59 l 1,14,15
 356 33 356 33 339 22.5 c 128,-1,16
 322 12 322 12 289.5 1.5 c 128,-1,17
 257 -9 257 -9 221 -9 c 0,18,19
 78 -9 78 -9 75 142 c 1,20,-1
 75 492 l 1,0,-1
154 658 m 1,21,-1
 226 658 l 1,22,-1
 226 584 l 1,23,-1
 154 584 l 1,24,-1
 154 658 l 1,21,-1
300 658 m 1,25,-1
 372 658 l 1,26,-1
 372 584 l 1,27,-1
 300 584 l 1,28,-1
 300 658 l 1,25,-1
EndSplineSet
EndChar

StartChar: yacute
Encoding: 253 253 190
Width: 497
GlyphClass: 2
Flags: W
LayerCount: 2
Fore
SplineSet
19 -144 m 1,0,1
 55 -154 55 -154 80 -154 c 0,2,3
 159 -152 159 -152 186 -81 c 2,4,-1
 216 -1 l 1,5,-1
 25 492 l 1,6,-1
 97 492 l 1,7,-1
 249 70 l 1,8,-1
 398 492 l 1,9,-1
 468 492 l 1,10,-1
 248 -101 l 1,11,12
 207 -202 207 -202 98 -202 c 0,13,14
 52 -202 52 -202 -4 -184 c 1,15,-1
 19 -144 l 1,0,1
304 719 m 1,16,-1
 352 674 l 1,17,18
 310 636 310 636 256 599 c 1,19,-1
 188 571 l 1,20,21
 183 577 183 577 174 585 c 128,-1,22
 165 593 165 593 160 600 c 1,23,-1
 180 614 l 1,24,25
 241 655 241 655 263.5 677 c 128,-1,26
 286 699 286 699 304 719 c 1,16,-1
EndSplineSet
EndChar

StartChar: thorn
Encoding: 254 254 191
Width: 512
GlyphClass: 2
Flags: W
LayerCount: 2
Fore
SplineSet
78 -201 m 1,0,-1
 78 736 l 1,1,-1
 140 736 l 1,2,-1
 140 447 l 1,3,4
 200 500 200 500 263.5 500 c 128,-1,5
 327 500 327 500 365.5 481.5 c 128,-1,6
 404 463 404 463 423 426 c 0,7,8
 457 361 457 361 457 252 c 0,9,10
 457 183 457 183 440 131 c 128,-1,11
 423 79 423 79 399.5 53 c 128,-1,12
 376 27 376 27 346 11 c 0,13,14
 303 -12 303 -12 252.5 -12 c 128,-1,15
 202 -12 202 -12 140 13 c 1,16,-1
 140 -201 l 1,17,-1
 78 -201 l 1,0,-1
140 67 m 1,18,19
 196 47 196 47 246 47 c 128,-1,20
 296 47 296 47 322 59.5 c 128,-1,21
 348 72 348 72 361 88 c 128,-1,22
 374 104 374 104 380 134 c 0,23,24
 389 174 389 174 389 238 c 0,25,26
 389 357 389 357 369 399 c 128,-1,27
 349 441 349 441 269 441 c 128,-1,28
 189 441 189 441 140 385 c 1,29,-1
 140 67 l 1,18,19
EndSplineSet
EndChar

StartChar: ydieresis
Encoding: 255 255 192
Width: 497
GlyphClass: 2
Flags: W
LayerCount: 2
Fore
SplineSet
19 -144 m 1,0,1
 55 -154 55 -154 80 -154 c 0,2,3
 159 -152 159 -152 186 -81 c 2,4,-1
 216 -1 l 1,5,-1
 25 492 l 1,6,-1
 97 492 l 1,7,-1
 249 70 l 1,8,-1
 398 492 l 1,9,-1
 468 492 l 1,10,-1
 248 -101 l 1,11,12
 207 -202 207 -202 98 -202 c 0,13,14
 52 -202 52 -202 -4 -184 c 1,15,-1
 19 -144 l 1,0,1
134 658 m 1,16,-1
 206 658 l 1,17,-1
 206 584 l 1,18,-1
 134 584 l 1,19,-1
 134 658 l 1,16,-1
280 658 m 1,20,-1
 352 658 l 1,21,-1
 352 584 l 1,22,-1
 280 584 l 1,23,-1
 280 658 l 1,20,-1
EndSplineSet
EndChar

StartChar: dotlessi
Encoding: 305 305 193
Width: 218
GlyphClass: 2
Flags: W
LayerCount: 2
Fore
SplineSet
78 492 m 1,0,-1
 140 492 l 1,1,-1
 140 0 l 1,2,-1
 78 0 l 1,3,-1
 78 492 l 1,0,-1
EndSplineSet
EndChar

StartChar: Lslash
Encoding: 321 321 194
Width: 494
GlyphClass: 2
Flags: W
LayerCount: 2
Fore
SplineSet
31 284 m 1,0,-1
 31 343 l 1,1,-1
 117 343 l 1,2,-1
 117 648 l 1,3,-1
 183 648 l 1,4,-1
 182 343 l 1,5,-1
 313 343 l 1,6,-1
 313 284 l 1,7,-1
 182 284 l 1,8,-1
 182 56 l 1,9,-1
 470 56 l 1,10,-1
 470 0 l 1,11,-1
 118 0 l 1,12,-1
 118 1 l 1,13,-1
 117 1 l 1,14,-1
 117 284 l 1,15,-1
 31 284 l 1,0,-1
EndSplineSet
EndChar

StartChar: lslash
Encoding: 322 322 195
Width: 343
GlyphClass: 2
Flags: W
LayerCount: 2
Fore
SplineSet
30 284 m 1,0,-1
 30 343 l 1,1,-1
 127 343 l 1,2,-1
 127 736 l 1,3,-1
 189 736 l 1,4,-1
 189 343 l 1,5,-1
 312 343 l 1,6,-1
 312 284 l 1,7,-1
 189 284 l 1,8,-1
 189 119 l 1,9,-1
 214 -9 l 1,10,-1
 168 -9 l 1,11,-1
 164 -5 l 1,12,-1
 127 119 l 1,13,-1
 127 284 l 1,14,-1
 30 284 l 1,0,-1
EndSplineSet
EndChar

StartChar: OE
Encoding: 338 338 196
Width: 809
GlyphClass: 2
Flags: W
LayerCount: 2
Fore
SplineSet
761 0 m 1,0,-1
 311 0 l 2,1,2
 259 0 259 0 225.5 5 c 128,-1,3
 192 10 192 10 158 29 c 128,-1,4
 124 48 124 48 105.5 83 c 128,-1,5
 87 118 87 118 75 178.5 c 128,-1,6
 63 239 63 239 63 327 c 128,-1,7
 63 415 63 415 85 480.5 c 128,-1,8
 107 546 107 546 144 581 c 0,9,10
 215 648 215 648 310 648 c 2,11,-1
 750 648 l 1,12,-1
 743 592 l 1,13,-1
 491 592 l 1,14,15
 553 527 553 527 556 363 c 1,16,-1
 720 363 l 1,17,-1
 720 307 l 1,18,-1
 557 307 l 1,19,20
 552 136 552 136 466 56 c 1,21,-1
 761 56 l 1,22,-1
 761 0 l 1,0,-1
292 589 m 0,23,24
 206 589 206 589 168.5 529 c 128,-1,25
 131 469 131 469 131 327 c 0,26,27
 131 239 131 239 141 186 c 128,-1,28
 151 133 151 133 176.5 105 c 128,-1,29
 202 77 202 77 235 68 c 128,-1,30
 268 59 268 59 324 59 c 0,31,32
 413 59 413 59 451 121 c 128,-1,33
 489 183 489 183 489 328 c 0,34,35
 489 481 489 481 459 525 c 0,36,37
 428 571 428 571 370 582 c 0,38,39
 337 589 337 589 292 589 c 0,23,24
EndSplineSet
EndChar

StartChar: oe
Encoding: 339 339 197
Width: 842
GlyphClass: 2
Flags: W
LayerCount: 2
Fore
SplineSet
790 321 m 0,0,1
 790 285 790 285 784 246 c 1,2,-1
 470 246 l 1,3,4
 474 136 474 136 507 94.5 c 128,-1,5
 540 53 540 53 624 53 c 0,6,7
 687 53 687 53 771 80 c 1,8,-1
 777 30 l 1,9,10
 754 21 754 21 741.5 17.5 c 128,-1,11
 729 14 729 14 715 9.5 c 128,-1,12
 701 5 701 5 694 3 c 128,-1,13
 687 1 687 1 674 -2 c 128,-1,14
 661 -5 661 -5 652 -6 c 0,15,16
 625 -9 625 -9 606 -9 c 0,17,18
 544 -9 544 -9 504.5 18 c 128,-1,19
 465 45 465 45 437 96 c 1,20,21
 379 -11 379 -11 262 -11 c 128,-1,22
 145 -11 145 -11 100 44 c 128,-1,23
 55 99 55 99 55 245 c 0,24,25
 55 315 55 315 74 367 c 128,-1,26
 93 419 93 419 125 446 c 0,27,28
 187 500 187 500 265 500 c 128,-1,29
 343 500 343 500 384 478.5 c 128,-1,30
 425 457 425 457 445 407 c 1,31,32
 474 457 474 457 519 479 c 128,-1,33
 564 501 564 501 611 501 c 0,34,35
 790 500 790 500 790 321 c 0,0,1
329 434.5 m 128,-1,37
 302 444 302 444 258.5 444 c 128,-1,38
 215 444 215 444 186.5 431.5 c 128,-1,39
 158 419 158 419 144.5 389.5 c 128,-1,40
 131 360 131 360 127 329.5 c 128,-1,41
 123 299 123 299 123 246 c 0,42,43
 123 133 123 133 148.5 90 c 128,-1,44
 174 47 174 47 261 47 c 0,45,46
 350 47 350 47 378 94 c 0,47,48
 393 120 393 120 398 150.5 c 128,-1,49
 403 181 403 181 404 229 c 1,50,-1
 404 246 l 2,51,52
 404 329 404 329 395 363 c 128,-1,53
 386 397 386 397 371 411 c 128,-1,36
 356 425 356 425 329 434.5 c 128,-1,37
727 337 m 0,54,55
 727 397 727 397 697 421 c 128,-1,56
 667 445 667 445 608 445 c 128,-1,57
 549 445 549 445 511 413.5 c 128,-1,58
 473 382 473 382 472 297 c 1,59,-1
 724 297 l 1,60,61
 727 320 727 320 727 337 c 0,54,55
EndSplineSet
EndChar

StartChar: Scaron
Encoding: 352 352 198
Width: 514
GlyphClass: 2
Flags: W
LayerCount: 2
Fore
SplineSet
65 75 m 1,0,1
 142 46 142 46 231 46 c 128,-1,2
 320 46 320 46 357 72.5 c 128,-1,3
 394 99 394 99 394 171 c 0,4,5
 394 209 394 209 370 234 c 1,6,7
 347 256 347 256 328 266 c 2,8,-1
 292 284 l 2,9,10
 275 292 275 292 250.5 303 c 128,-1,11
 226 314 226 314 208 322.5 c 128,-1,12
 190 331 190 331 159 347.5 c 128,-1,13
 128 364 128 364 115 375.5 c 128,-1,14
 102 387 102 387 86 404 c 0,15,16
 58 435 58 435 58 484 c 0,17,18
 58 567 58 567 115 613.5 c 128,-1,19
 172 660 172 660 262 660 c 128,-1,20
 352 660 352 660 429 635 c 1,21,-1
 416 585 l 1,22,23
 354 605 354 605 273.5 605 c 128,-1,24
 193 605 193 605 160 579.5 c 128,-1,25
 127 554 127 554 127 492 c 0,26,27
 127 446 127 446 174 416 c 0,28,29
 212 392 212 392 291 357.5 c 128,-1,30
 370 323 370 323 398 304 c 0,31,32
 469 256 469 256 470 174 c 1,33,34
 470 -9 470 -9 233 -9 c 0,35,36
 134 -9 134 -9 48 20 c 1,37,-1
 65 75 l 1,0,1
155 859 m 1,38,-1
 261 772 l 1,39,-1
 366 859 l 1,40,-1
 395 829 l 1,41,-1
 291 723 l 1,42,-1
 231 723 l 1,43,-1
 127 829 l 1,44,-1
 155 859 l 1,38,-1
EndSplineSet
EndChar

StartChar: scaron
Encoding: 353 353 199
Width: 418
GlyphClass: 2
Flags: W
LayerCount: 2
Fore
SplineSet
59 68 m 1,0,1
 121 44 121 44 175 44 c 128,-1,2
 229 44 229 44 267.5 66.5 c 128,-1,3
 306 89 306 89 306 126 c 128,-1,4
 306 163 306 163 280 185.5 c 128,-1,5
 254 208 254 208 217 222 c 128,-1,6
 180 236 180 236 143.5 251.5 c 128,-1,7
 107 267 107 267 81 295.5 c 128,-1,8
 55 324 55 324 55 366 c 0,9,10
 55 432 55 432 101 467.5 c 128,-1,11
 147 503 147 503 216.5 503 c 128,-1,12
 286 503 286 503 350 480 c 1,13,-1
 337 434 l 1,14,15
 287 451 287 451 224 451 c 0,16,17
 120 451 120 451 120 370 c 0,18,19
 120 318 120 318 210 284 c 0,20,21
 248 270 248 270 285.5 253.5 c 128,-1,22
 323 237 323 237 349.5 206 c 128,-1,23
 376 175 376 175 376 131 c 0,24,25
 376 64 376 64 318 28 c 128,-1,26
 260 -8 260 -8 184 -8 c 128,-1,27
 108 -8 108 -8 44 19 c 1,28,-1
 59 68 l 1,0,1
100 703 m 1,29,-1
 206 616 l 1,30,-1
 311 703 l 1,31,-1
 340 673 l 1,32,-1
 236 567 l 1,33,-1
 176 567 l 1,34,-1
 72 673 l 1,35,-1
 100 703 l 1,29,-1
EndSplineSet
EndChar

StartChar: Ydieresis
Encoding: 376 376 200
Width: 538
GlyphClass: 2
Flags: W
LayerCount: 2
Fore
SplineSet
236 0 m 1,0,-1
 236 265 l 1,1,-1
 30 648 l 1,2,-1
 104 648 l 1,3,-1
 269 324 l 1,4,-1
 437 648 l 1,5,-1
 508 648 l 1,6,-1
 303 265 l 1,7,-1
 302 0 l 1,8,-1
 236 0 l 1,0,-1
160 814 m 1,9,-1
 232 814 l 1,10,-1
 232 740 l 1,11,-1
 160 740 l 1,12,-1
 160 814 l 1,9,-1
306 814 m 1,13,-1
 378 814 l 1,14,-1
 378 740 l 1,15,-1
 306 740 l 1,16,-1
 306 814 l 1,13,-1
EndSplineSet
EndChar

StartChar: Zcaron
Encoding: 381 381 201
Width: 522
GlyphClass: 2
Flags: W
LayerCount: 2
Fore
SplineSet
47 592 m 1,0,-1
 47 648 l 1,1,-1
 476 648 l 1,2,-1
 476 592 l 1,3,-1
 118 56 l 1,4,-1
 476 58 l 1,5,-1
 457 0 l 1,6,-1
 47 0 l 1,7,-1
 47 56 l 1,8,-1
 403 592 l 1,9,-1
 47 592 l 1,0,-1
165 859 m 1,10,-1
 271 772 l 1,11,-1
 376 859 l 1,12,-1
 405 829 l 1,13,-1
 301 723 l 1,14,-1
 241 723 l 1,15,-1
 137 829 l 1,16,-1
 165 859 l 1,10,-1
EndSplineSet
EndChar

StartChar: zcaron
Encoding: 382 382 202
Width: 461
GlyphClass: 2
Flags: W
LayerCount: 2
Fore
SplineSet
407 492 m 1,0,-1
 407 438 l 1,1,-1
 125 71 l 1,2,-1
 110 56 l 1,3,-1
 424 56 l 1,4,-1
 405 0 l 1,5,-1
 37 0 l 1,6,-1
 37 55 l 1,7,-1
 322 422 l 1,8,-1
 337 437 l 1,9,-1
 58 437 l 1,10,-1
 58 492 l 1,11,-1
 407 492 l 1,0,-1
127 703 m 1,12,-1
 233 616 l 1,13,-1
 338 703 l 1,14,-1
 367 673 l 1,15,-1
 263 567 l 1,16,-1
 203 567 l 1,17,-1
 99 673 l 1,18,-1
 127 703 l 1,12,-1
EndSplineSet
EndChar

StartChar: florin
Encoding: 402 402 203
Width: 308
GlyphClass: 2
Flags: W
LayerCount: 2
Fore
SplineSet
-49 -202 m 1,0,-1
 -41 -156 l 1,1,-1
 -28 -155 l 2,2,3
 45 -149 45 -149 78 -97 c 0,4,5
 93 -73 93 -73 94 -39 c 1,6,-1
 94 438 l 2,7,8
 94 443 94 443 81 443 c 2,9,-1
 47 443 l 1,10,-1
 48 472 l 1,11,12
 89 491 89 491 94 493 c 1,13,-1
 94 494 l 1,14,-1
 93 572 l 1,15,16
 100 729 100 729 299 735 c 1,17,-1
 291 689 l 1,18,-1
 278 688 l 2,19,20
 205 682 205 682 172 630 c 0,21,22
 157 606 157 606 156 572 c 1,23,-1
 156 500 l 2,24,25
 156 492 156 492 198.5 492 c 128,-1,26
 241 492 241 492 259 492.5 c 128,-1,27
 277 493 277 493 282 493 c 1,28,-1
 273 444 l 1,29,-1
 164 444 l 2,30,31
 156 444 156 444 156 440 c 2,32,-1
 156 -39 l 1,33,34
 149 -196 149 -196 -49 -202 c 1,0,-1
EndSplineSet
EndChar

StartChar: circumflex
Encoding: 710 710 204
Width: 378
GlyphClass: 2
Flags: W
LayerCount: 2
Fore
SplineSet
189 674 m 1,0,-1
 83 587 l 1,1,-1
 55 617 l 1,2,-1
 159 723 l 1,3,-1
 219 723 l 1,4,-1
 323 617 l 1,5,-1
 294 587 l 1,6,-1
 189 674 l 1,0,-1
EndSplineSet
EndChar

StartChar: caron
Encoding: 711 711 205
Width: 378
GlyphClass: 2
Flags: W
LayerCount: 2
Fore
SplineSet
83 703 m 1,0,-1
 189 616 l 1,1,-1
 294 703 l 1,2,-1
 323 673 l 1,3,-1
 219 567 l 1,4,-1
 159 567 l 1,5,-1
 55 673 l 1,6,-1
 83 703 l 1,0,-1
EndSplineSet
EndChar

StartChar: breve
Encoding: 728 728 206
Width: 332
GlyphClass: 2
Flags: W
LayerCount: 2
Fore
SplineSet
227 660 m 1,0,-1
 267 660 l 1,1,2
 267 620 267 620 241 591.5 c 128,-1,3
 215 563 215 563 165 563 c 128,-1,4
 115 563 115 563 90 591 c 128,-1,5
 65 619 65 619 65 660 c 1,6,-1
 105 660 l 1,7,8
 105 630 105 630 117.5 614 c 128,-1,9
 130 598 130 598 165 598 c 0,10,11
 227 598 227 598 227 660 c 1,0,-1
EndSplineSet
EndChar

StartChar: dotaccent
Encoding: 729 729 207
Width: 833
GlyphClass: 2
Flags: W
LayerCount: 2
Fore
SplineSet
81 657 m 1,0,-1
 151 657 l 1,1,-1
 151 585 l 1,2,-1
 81 585 l 1,3,-1
 81 657 l 1,0,-1
EndSplineSet
EndChar

StartChar: ring
Encoding: 730 730 208
Width: 334
GlyphClass: 2
Flags: W
LayerCount: 2
Fore
SplineSet
259 670 m 128,-1,1
 259 630 259 630 233.5 601 c 128,-1,2
 208 572 208 572 161 572 c 128,-1,3
 114 572 114 572 89.5 600 c 128,-1,4
 65 628 65 628 65 668.5 c 128,-1,5
 65 709 65 709 90 737 c 128,-1,6
 115 765 115 765 162.5 765 c 128,-1,7
 210 765 210 765 234.5 737.5 c 128,-1,0
 259 710 259 710 259 670 c 128,-1,1
205 625.5 m 128,-1,9
 220 645 220 645 220 669.5 c 128,-1,10
 220 694 220 694 205.5 712.5 c 128,-1,11
 191 731 191 731 162.5 731 c 128,-1,12
 134 731 134 731 119 712.5 c 128,-1,13
 104 694 104 694 104 669 c 128,-1,14
 104 644 104 644 118 625 c 128,-1,15
 132 606 132 606 161 606 c 128,-1,8
 190 606 190 606 205 625.5 c 128,-1,9
EndSplineSet
EndChar

StartChar: ogonek
Encoding: 731 731 209
Width: 339
GlyphClass: 2
Flags: W
LayerCount: 2
Fore
SplineSet
110 -5 m 1,0,-1
 170 -5 l 1,1,-1
 170 -64 l 1,2,-1
 199 -178 l 1,3,-1
 155 -178 l 1,4,-1
 152 -174 l 1,5,-1
 110 -64 l 1,6,-1
 110 -5 l 1,0,-1
EndSplineSet
EndChar

StartChar: tilde
Encoding: 732 732 210
Width: 833
GlyphClass: 2
Flags: W
LayerCount: 2
Fore
SplineSet
298 596 m 2,0,1
 279 581 279 581 270 579.5 c 128,-1,2
 261 578 261 578 252.5 578 c 128,-1,3
 244 578 244 578 226 583 c 2,4,-1
 141 603 l 1,5,-1
 66 571 l 1,6,-1
 48 599 l 1,7,-1
 90 634 l 2,8,9
 111 652 111 652 118.5 653.5 c 128,-1,10
 126 655 126 655 133.5 655 c 128,-1,11
 141 655 141 655 158 651 c 2,12,-1
 253 629 l 1,13,-1
 327 664 l 1,14,-1
 345 635 l 1,15,-1
 298 596 l 2,0,1
EndSplineSet
EndChar

StartChar: hungarumlaut
Encoding: 733 733 211
Width: 465
GlyphClass: 2
Flags: W
LayerCount: 2
Fore
SplineSet
109 553 m 1,0,-1
 74 574 l 1,1,2
 75 576 75 576 88 590 c 128,-1,3
 101 604 101 604 105.5 609.5 c 128,-1,4
 110 615 110 615 122 630.5 c 128,-1,5
 134 646 134 646 142 658 c 0,6,7
 158 680 158 680 183 726 c 1,8,-1
 241 695 l 1,9,10
 209 645 209 645 167 598 c 1,11,-1
 109 553 l 1,0,-1
259 553 m 1,12,-1
 224 574 l 1,13,14
 225 576 225 576 238 590 c 128,-1,15
 251 604 251 604 255.5 609.5 c 128,-1,16
 260 615 260 615 272 630.5 c 128,-1,17
 284 646 284 646 292 658 c 0,18,19
 308 680 308 680 333 726 c 1,20,-1
 391 695 l 1,21,22
 359 645 359 645 317 598 c 1,23,-1
 259 553 l 1,12,-1
EndSplineSet
EndChar

StartChar: endash
Encoding: 8211 8211 212
Width: 561
GlyphClass: 2
Flags: W
LayerCount: 2
Fore
SplineSet
66 270 m 1,0,-1
 66 329 l 1,1,-1
 495 329 l 1,2,-1
 495 270 l 1,3,-1
 66 270 l 1,0,-1
EndSplineSet
EndChar

StartChar: emdash
Encoding: 8212 8212 213
Width: 868
GlyphClass: 2
Flags: W
LayerCount: 2
Fore
SplineSet
76 270 m 1,0,-1
 76 329 l 1,1,-1
 792 329 l 1,2,-1
 792 270 l 1,3,-1
 76 270 l 1,0,-1
EndSplineSet
EndChar

StartChar: quoteleft
Encoding: 8216 8216 214
Width: 211
GlyphClass: 2
Flags: W
LayerCount: 2
Fore
SplineSet
124 447 m 1,0,-1
 64 447 l 1,1,-1
 64 501 l 1,2,3
 65 555 65 555 69.5 577 c 128,-1,4
 74 599 74 599 85 613.5 c 128,-1,5
 96 628 96 628 117 645.5 c 128,-1,6
 138 663 138 663 142 667 c 1,7,-1
 168 644 l 1,8,9
 141 610 141 610 127 579 c 1,10,-1
 124 503 l 1,11,-1
 124 447 l 1,0,-1
EndSplineSet
EndChar

StartChar: quoteright
Encoding: 8217 8217 215
Width: 208
GlyphClass: 2
Flags: W
LayerCount: 2
Fore
SplineSet
91 667 m 1,0,-1
 151 667 l 1,1,-1
 151 613 l 2,2,3
 151 569 151 569 150.5 551.5 c 128,-1,4
 150 534 150 534 138 513 c 128,-1,5
 126 492 126 492 118 485 c 128,-1,6
 110 478 110 478 73 447 c 1,7,-1
 47 470 l 1,8,9
 76 508 76 508 88 535 c 1,10,-1
 91 612 l 1,11,-1
 91 667 l 1,0,-1
EndSplineSet
EndChar

StartChar: quotesinglbase
Encoding: 8218 8218 216
Width: 214
GlyphClass: 2
Flags: W
LayerCount: 2
Fore
SplineSet
69 92 m 1,0,-1
 144 92 l 1,1,-1
 145 1 l 1,2,-1
 92 -126 l 1,3,-1
 43 -126 l 1,4,-1
 69 1 l 1,5,-1
 69 92 l 1,0,-1
EndSplineSet
EndChar

StartChar: quotedblleft
Encoding: 8220 8220 217
Width: 334
GlyphClass: 2
Flags: W
LayerCount: 2
Fore
SplineSet
247 447 m 1,0,-1
 186 447 l 1,1,-1
 186 501 l 1,2,3
 187 579 187 579 197.5 599 c 128,-1,4
 208 619 208 619 252 657 c 1,5,-1
 264 667 l 1,6,-1
 291 644 l 1,7,8
 265 610 265 610 249 579 c 1,9,-1
 247 503 l 1,10,-1
 247 447 l 1,0,-1
124 447 m 1,11,-1
 64 447 l 1,12,-1
 64 501 l 1,13,14
 65 555 65 555 69.5 577 c 128,-1,15
 74 599 74 599 85 613.5 c 128,-1,16
 96 628 96 628 117 645.5 c 128,-1,17
 138 663 138 663 142 667 c 1,18,-1
 168 644 l 1,19,20
 141 610 141 610 127 579 c 1,21,-1
 124 503 l 1,22,-1
 124 447 l 1,11,-1
EndSplineSet
EndChar

StartChar: quotedblright
Encoding: 8221 8221 218
Width: 330
GlyphClass: 2
Flags: W
LayerCount: 2
Fore
SplineSet
91 667 m 1,0,-1
 151 667 l 1,1,-1
 151 613 l 2,2,3
 151 569 151 569 150.5 551.5 c 128,-1,4
 150 534 150 534 138 513 c 128,-1,5
 126 492 126 492 118 485 c 128,-1,6
 110 478 110 478 73 447 c 1,7,-1
 47 470 l 1,8,9
 76 508 76 508 88 535 c 1,10,-1
 91 612 l 1,11,-1
 91 667 l 1,0,-1
213 667 m 1,12,-1
 274 667 l 1,13,-1
 273 613 l 1,14,15
 273 539 273 539 264 518 c 128,-1,16
 255 497 255 497 208 457 c 0,17,18
 200 451 200 451 196 447 c 1,19,-1
 169 470 l 1,20,21
 198 508 198 508 211 535 c 1,22,-1
 213 612 l 1,23,-1
 213 667 l 1,12,-1
EndSplineSet
EndChar

StartChar: quotedblbase
Encoding: 8222 8222 219
Width: 384
GlyphClass: 2
Flags: W
LayerCount: 2
Fore
SplineSet
69 92 m 1,0,-1
 144 92 l 1,1,-1
 145 1 l 1,2,-1
 92 -126 l 1,3,-1
 43 -126 l 1,4,-1
 69 1 l 1,5,-1
 69 92 l 1,0,-1
239 92 m 1,6,-1
 314 92 l 1,7,-1
 315 1 l 1,8,-1
 262 -126 l 1,9,-1
 213 -126 l 1,10,-1
 239 1 l 1,11,-1
 239 92 l 1,6,-1
EndSplineSet
EndChar

StartChar: dagger
Encoding: 8224 8224 220
Width: 459
GlyphClass: 2
Flags: W
LayerCount: 2
Fore
SplineSet
39 433 m 1,0,-1
 39 492 l 1,1,-1
 197 492 l 1,2,-1
 197 682 l 1,3,-1
 261 682 l 1,4,-1
 260 492 l 1,5,-1
 420 492 l 1,6,-1
 420 433 l 1,7,-1
 260 433 l 1,8,-1
 260 -44 l 1,9,-1
 197 -44 l 1,10,-1
 197 433 l 1,11,-1
 39 433 l 1,0,-1
EndSplineSet
EndChar

StartChar: daggerdbl
Encoding: 8225 8225 221
Width: 442
GlyphClass: 2
Flags: W
LayerCount: 2
Fore
SplineSet
55 384 m 1,0,-1
 55 443 l 1,1,-1
 188 443 l 1,2,-1
 188 682 l 1,3,-1
 252 682 l 1,4,-1
 251 443 l 1,5,-1
 386 443 l 1,6,-1
 386 384 l 1,7,-1
 251 384 l 1,8,-1
 251 243 l 1,9,-1
 386 243 l 1,10,-1
 386 184 l 1,11,-1
 251 184 l 1,12,-1
 251 -44 l 1,13,-1
 188 -44 l 1,14,-1
 188 184 l 1,15,-1
 55 184 l 1,16,-1
 55 243 l 1,17,-1
 188 243 l 1,18,-1
 188 384 l 1,19,-1
 55 384 l 1,0,-1
EndSplineSet
EndChar

StartChar: bullet
Encoding: 8226 8226 222
Width: 356
GlyphClass: 2
Flags: W
LayerCount: 2
Fore
SplineSet
113 421 m 128,-1,1
 141 445 141 445 184 445 c 128,-1,2
 227 445 227 445 248.5 422 c 128,-1,3
 270 399 270 399 270 345.5 c 128,-1,4
 270 292 270 292 243 269.5 c 128,-1,5
 216 247 216 247 175.5 247 c 128,-1,6
 135 247 135 247 110 268 c 128,-1,7
 85 289 85 289 85 343 c 128,-1,0
 85 397 85 397 113 421 c 128,-1,1
EndSplineSet
EndChar

StartChar: ellipsis
Encoding: 8230 8230 223
Width: 603
GlyphClass: 2
Flags: W
LayerCount: 2
Fore
SplineSet
154 90 m 1,0,-1
 154 0 l 1,1,-1
 69 0 l 1,2,-1
 69 90 l 1,3,-1
 154 90 l 1,0,-1
534 90 m 1,4,-1
 534 0 l 1,5,-1
 449 0 l 1,6,-1
 449 90 l 1,7,-1
 534 90 l 1,4,-1
344 90 m 1,8,-1
 344 0 l 1,9,-1
 259 0 l 1,10,-1
 259 90 l 1,11,-1
 344 90 l 1,8,-1
EndSplineSet
EndChar

StartChar: perthousand
Encoding: 8240 8240 224
Width: 1024
GlyphClass: 2
Flags: W
LayerCount: 2
Fore
SplineSet
196 -9 m 1,0,-1
 131 -9 l 1,1,-1
 505 696 l 1,2,-1
 569 696 l 1,3,-1
 196 -9 l 1,0,-1
173 647 m 128,-1,5
 124 647 124 647 111 628 c 128,-1,6
 98 609 98 609 98 543 c 128,-1,7
 98 477 98 477 112.5 451.5 c 128,-1,8
 127 426 127 426 175.5 426 c 128,-1,9
 224 426 224 426 236.5 446 c 128,-1,10
 249 466 249 466 249 531 c 128,-1,11
 249 596 249 596 235.5 621.5 c 128,-1,4
 222 647 222 647 173 647 c 128,-1,5
173 696 m 0,12,13
 253 696 253 696 277 662 c 128,-1,14
 301 628 301 628 301 545.5 c 128,-1,15
 301 463 301 463 268 420 c 128,-1,16
 235 377 235 377 166 377 c 128,-1,17
 97 377 97 377 71.5 412 c 128,-1,18
 46 447 46 447 46 528.5 c 128,-1,19
 46 610 46 610 80 653 c 128,-1,20
 114 696 114 696 173 696 c 0,12,13
533 259 m 128,-1,22
 484 259 484 259 471 240 c 128,-1,23
 458 221 458 221 458 155 c 128,-1,24
 458 89 458 89 472.5 63.5 c 128,-1,25
 487 38 487 38 535.5 38 c 128,-1,26
 584 38 584 38 596.5 58 c 128,-1,27
 609 78 609 78 609 143 c 128,-1,28
 609 208 609 208 595.5 233.5 c 128,-1,21
 582 259 582 259 533 259 c 128,-1,22
533 308 m 0,29,30
 613 308 613 308 637 274 c 128,-1,31
 661 240 661 240 661 157.5 c 128,-1,32
 661 75 661 75 628 32 c 128,-1,33
 595 -11 595 -11 526 -11 c 128,-1,34
 457 -11 457 -11 431.5 24 c 128,-1,35
 406 59 406 59 406 140.5 c 128,-1,36
 406 222 406 222 440 265 c 128,-1,37
 474 308 474 308 533 308 c 0,29,30
853 259 m 128,-1,39
 804 259 804 259 791 240 c 128,-1,40
 778 221 778 221 778 155 c 128,-1,41
 778 89 778 89 792.5 63.5 c 128,-1,42
 807 38 807 38 855.5 38 c 128,-1,43
 904 38 904 38 916.5 58 c 128,-1,44
 929 78 929 78 929 143 c 128,-1,45
 929 208 929 208 915.5 233.5 c 128,-1,38
 902 259 902 259 853 259 c 128,-1,39
853 308 m 0,46,47
 933 308 933 308 957 274 c 128,-1,48
 981 240 981 240 981 157.5 c 128,-1,49
 981 75 981 75 948 32 c 128,-1,50
 915 -11 915 -11 846 -11 c 128,-1,51
 777 -11 777 -11 751.5 24 c 128,-1,52
 726 59 726 59 726 140.5 c 128,-1,53
 726 222 726 222 760 265 c 128,-1,54
 794 308 794 308 853 308 c 0,46,47
EndSplineSet
EndChar

StartChar: guilsinglleft
Encoding: 8249 8249 225
Width: 306
GlyphClass: 2
Flags: W
LayerCount: 2
Fore
SplineSet
137 301 m 1,0,1
 116 280 116 280 116 268 c 128,-1,2
 116 256 116 256 137 231 c 1,3,-1
 249 111 l 1,4,-1
 206 71 l 1,5,-1
 43 248 l 1,6,-1
 43 286 l 1,7,-1
 205 462 l 1,8,-1
 250 424 l 1,9,-1
 137 301 l 1,0,1
EndSplineSet
EndChar

StartChar: guilsinglright
Encoding: 8250 8250 226
Width: 306
GlyphClass: 2
Flags: W
LayerCount: 2
Fore
SplineSet
169 231 m 1,0,1
 190 256 190 256 190 268 c 128,-1,2
 190 280 190 280 169 301 c 1,3,-1
 56 424 l 1,4,-1
 101 462 l 1,5,-1
 263 286 l 1,6,-1
 263 248 l 1,7,-1
 100 71 l 1,8,-1
 57 111 l 1,9,-1
 169 231 l 1,0,1
EndSplineSet
EndChar

StartChar: fraction
Encoding: 8260 8260 227
Width: 369
GlyphClass: 2
Flags: W
LayerCount: 2
Fore
SplineSet
23 -7 m 1,0,-1
 292 751 l 1,1,-1
 346 732 l 1,2,-1
 78 -26 l 1,3,-1
 23 -7 l 1,0,-1
EndSplineSet
EndChar

StartChar: Euro
Encoding: 8364 8364 228
Width: 635
GlyphClass: 2
Flags: W
LayerCount: 2
Fore
SplineSet
55 302 m 1,0,-1
 395 302 l 1,1,-1
 395 252 l 1,2,-1
 199 252 l 1,3,4
 213 133 213 133 269 90 c 0,5,6
 317 54 317 54 387 54 c 0,7,8
 421 54 421 54 440 56 c 0,9,10
 497 60 497 60 554 94 c 1,11,-1
 577 40 l 1,12,13
 505 -9 505 -9 389 -9 c 0,14,15
 349 -9 349 -9 318.5 -4.5 c 128,-1,16
 288 0 288 0 253 16 c 128,-1,17
 218 32 218 32 194 59 c 0,18,19
 139 122 139 122 128 252 c 1,20,-1
 55 252 l 1,21,-1
 55 302 l 1,0,-1
395 374 m 1,22,-1
 55 374 l 1,23,-1
 55 424 l 1,24,-1
 133 424 l 1,25,26
 175 660 175 660 421 660 c 0,27,28
 494 660 494 660 577 633 c 1,29,-1
 561 580 l 1,30,31
 471 598 471 598 431 598 c 128,-1,32
 391 598 391 598 364 595 c 128,-1,33
 337 592 337 592 307.5 581.5 c 128,-1,34
 278 571 278 571 259 552 c 0,35,36
 215 510 215 510 202 424 c 1,37,-1
 395 424 l 1,38,-1
 395 374 l 1,22,-1
EndSplineSet
EndChar

StartChar: trademark
Encoding: 8482 8482 229
Width: 764
GlyphClass: 2
Flags: W
LayerCount: 2
Fore
SplineSet
414 657 m 1,0,-1
 524 436 l 1,1,-1
 634 657 l 1,2,-1
 678 657 l 1,3,-1
 689 301 l 1,4,-1
 652 301 l 1,5,-1
 649 569 l 1,6,-1
 648 609 l 1,7,-1
 542 400 l 1,8,-1
 506 400 l 1,9,-1
 400 609 l 1,10,-1
 399 569 l 1,11,-1
 396 301 l 1,12,-1
 359 301 l 1,13,-1
 371 657 l 1,14,-1
 414 657 l 1,0,-1
62 626 m 1,15,-1
 62 657 l 1,16,-1
 298 657 l 1,17,-1
 298 626 l 1,18,-1
 198 626 l 1,19,-1
 198 301 l 1,20,-1
 162 301 l 1,21,-1
 162 626 l 1,22,-1
 62 626 l 1,15,-1
EndSplineSet
EndChar

StartChar: minus
Encoding: 8722 8722 230
Width: 533
GlyphClass: 2
Flags: W
LayerCount: 2
Fore
SplineSet
76 285 m 1,0,-1
 76 344 l 1,1,-1
 457 344 l 1,2,-1
 457 285 l 1,3,-1
 76 285 l 1,0,-1
EndSplineSet
EndChar

StartChar: fi
Encoding: 64257 64257 231
Width: 484
GlyphClass: 3
Flags: W
LayerCount: 2
Fore
SplineSet
269 492 m 2,0,-1
 320 492 l 2,1,2
 363 492 363 492 406 492 c 1,3,-1
 406 0 l 1,4,-1
 344 0 l 1,5,-1
 344 444 l 1,6,-1
 161 444 l 2,7,8
 153 444 153 444 153 440 c 2,9,-1
 153 -74 l 1,10,-1
 118 -198 l 1,11,-1
 115 -201 l 1,12,-1
 69 -201 l 1,13,-1
 91 -74 l 1,14,-1
 91 438 l 2,15,16
 91 443 91 443 78 443 c 2,17,-1
 44 443 l 1,18,-1
 45 472 l 1,19,20
 86 491 86 491 91 493 c 1,21,-1
 91 494 l 1,22,-1
 90 572 l 2,23,24
 90 624 90 624 111 659.5 c 128,-1,25
 132 695 132 695 162 710 c 1,26,27
 219 736 219 736 269 736 c 0,28,29
 272 736 272 736 275 736 c 2,30,-1
 296 735 l 1,31,-1
 285 686 l 2,32,33
 284 684 284 684 275.5 685.5 c 128,-1,34
 267 687 267 687 259.5 687 c 128,-1,35
 252 687 252 687 235 681.5 c 128,-1,36
 218 676 218 676 199 667 c 128,-1,37
 180 658 180 658 166.5 633 c 128,-1,38
 153 608 153 608 153 572 c 2,39,-1
 153 500 l 2,40,41
 153 492 153 492 269 492 c 2,0,-1
340 657 m 1,42,-1
 410 657 l 1,43,-1
 410 585 l 1,44,-1
 340 585 l 1,45,-1
 340 657 l 1,42,-1
EndSplineSet
Ligature2: "'liga' Standard Ligatures lookup 2 subtable" f i
EndChar

StartChar: fl
Encoding: 64258 64258 232
Width: 490
GlyphClass: 3
Flags: W
LayerCount: 2
Fore
SplineSet
342 122 m 1,0,-1
 343 684 l 1,1,2
 324 688 324 688 308.5 688 c 128,-1,3
 293 688 293 688 270.5 685 c 128,-1,4
 248 682 248 682 222 672 c 128,-1,5
 196 662 196 662 178.5 636 c 128,-1,6
 161 610 161 610 159 572 c 1,7,-1
 159 500 l 2,8,9
 159 495 159 495 160.5 493.5 c 128,-1,10
 162 492 162 492 168 492 c 2,11,-1
 281 492 l 1,12,-1
 273 445 l 1,13,-1
 164 445 l 2,14,15
 156 445 156 445 156 441 c 2,16,-1
 156 -73 l 1,17,-1
 117 -198 l 1,18,-1
 114 -201 l 1,19,-1
 68 -201 l 1,20,-1
 90 -74 l 1,21,-1
 91 439 l 2,22,23
 91 443 91 443 80.5 443.5 c 128,-1,24
 70 444 70 444 43 444 c 1,25,-1
 44 472 l 1,26,27
 52 476 52 476 68.5 482.5 c 128,-1,28
 85 489 85 489 91 492 c 1,29,-1
 91 573 l 1,30,31
 92 634 92 634 124 672.5 c 128,-1,32
 156 711 156 711 203 722.5 c 128,-1,33
 250 734 250 734 301 734 c 128,-1,34
 352 734 352 734 408 719 c 1,35,-1
 408 122 l 1,36,-1
 433 -6 l 1,37,-1
 384 -6 l 1,38,-1
 380 -2 l 1,39,-1
 342 122 l 1,0,-1
EndSplineSet
Ligature2: "'liga' Standard Ligatures lookup 2 subtable" f l
EndChar

StartChar: i.alt
Encoding: 65540 -1 234
Width: 222
GlyphClass: 2
Flags: W
LayerCount: 2
Fore
SplineSet
74 123 m 1,0,-1
 75 493 l 1,1,-1
 140 493 l 1,2,-1
 140 123 l 1,3,-1
 164 0 l 1,4,-1
 164 -4 l 1,5,-1
 115 -4 l 1,6,-1
 111 -1 l 1,7,-1
 74 123 l 1,0,-1
142 658 m 1,8,-1
 142 584 l 1,9,-1
 70 584 l 1,10,-1
 70 658 l 1,11,-1
 142 658 l 1,8,-1
EndSplineSet
EndChar
